<?xml version="1.0" encoding="utf-8"?>
<!-- Generator: Adobe Illustrator 23.0.3, SVG Export Plug-In . SVG Version: 6.00 Build 0)  -->
<svg version="1.1" id="Capa_1" xmlns="http://www.w3.org/2000/svg" xmlns:xlink="http://www.w3.org/1999/xlink" x="0px" y="0px"
	 viewBox="0 0 236 236" style="enable-background:new 0 0 236 236;" xml:space="preserve">
<style type="text/css">
	.st0{fill:none;}
	.st1{fill:#1A1C20;}
	.st2{fill:#646464;}
</style>
<rect y="0" class="st0" width="236" height="236"/>
<g>
	<g>
		<path class="st1" d="M81,107.5h-2.2L81.9,96h3.7l3,11.5h-2.5l-0.6-2.6h-4L81,107.5z M83.3,97.9l-1.3,5.2h3.1L84,97.9H83.3z"/>
		<path class="st1" d="M97.2,99.1l0,1.7c-0.4,0-1-0.1-1.6-0.3c0.4,0.3,0.8,0.8,0.8,1.3c0,2.1-2,2.9-3.5,2.9c-0.3,0-0.7-0.1-1.1-0.2
			c-0.3,0.1-0.4,0.2-0.4,0.5c0,0.9,5.3-0.2,5.3,3c0,2-1.9,3-4,3c-1.8,0-3.5-0.8-3.5-2.3c0-1.1,0.9-1.6,2.2-1.8
			c-1-0.1-2.1-0.4-2.1-1.4c0-0.7,0.7-1.2,1.6-1.3c-0.8-0.5-1.5-1.2-1.5-2.4c0-2.2,2.1-2.9,3.5-2.9C93.9,99,95.8,99.1,97.2,99.1z
			 M92.7,107c-0.8,0.1-1.3,0.5-1.3,1.2c0,0.7,0.7,1.3,1.6,1.3c1,0,1.7-0.5,1.7-1.4C94.6,107.4,94,107.1,92.7,107z M94.5,101.8
			c0-1-0.8-1.2-1.5-1.2c-0.7,0-1.5,0.3-1.5,1.2c0,1.1,0.8,1.3,1.5,1.3C93.7,103.1,94.5,102.9,94.5,101.8z"/>
		<path class="st1" d="M100.3,103.9c0,1.3,0.8,2.1,2.2,2.1c0.9,0,1.7-0.3,2.5-0.7l0.4,1.6c-0.7,0.4-1.8,0.8-3.2,0.8
			c-2.6,0-4.1-1.6-4.1-4.4c0-2.6,1.2-4.3,3.9-4.3c2.5,0,3.5,1.9,3.5,4v1H100.3z M101.9,100.6c-1.1,0-1.6,1-1.6,2h3.1
			C103.4,101.5,103.1,100.6,101.9,100.6z"/>
		<path class="st1" d="M112.2,107.5v-5c0-1.3-0.5-1.9-1.5-1.9c-0.6,0-1.1,0.3-1.5,0.5v6.3H107v-8.4h1.5l0.3,1
			c0.5-0.6,1.4-1.1,2.7-1.1c2.1,0,3,1.2,3,3.4v5.2H112.2z"/>
		<path class="st1" d="M122.7,106.9c-0.5,0.3-1.6,0.7-2.9,0.7c-2.5,0-4-1.4-4-4.4c0-2.7,1.5-4.4,4-4.4c1.1,0,2.1,0.2,2.9,0.7
			l-0.6,1.5c-0.6-0.4-1.4-0.5-2.1-0.5c-1.2,0-1.9,0.8-1.9,2.7c0,1.9,0.7,2.7,1.9,2.7c0.9,0,1.7-0.3,2.3-0.6L122.7,106.9z"/>
		<path class="st1" d="M124.6,107.5v-6.8l-1-0.2v-1.4h3.2v8.4H124.6z M124.5,95.7h2.3v2h-2.3V95.7z"/>
		<path class="st1" d="M133.7,107.5l-0.3-1c-0.4,0.6-1.3,1.2-2.4,1.2c-1.7,0-2.8-1.1-2.8-2.7c0-1.6,1.1-2.5,3.2-2.5h1.8v-0.4
			c0-1.1-0.6-1.4-1.5-1.4c-1,0-1.8,0.3-2.5,0.6l-0.6-1.6c0.8-0.4,2-0.7,3.3-0.7c2.4,0,3.4,1.1,3.4,3.2v5.3H133.7z M133.1,103.8h-1.4
			c-0.9,0-1.4,0.4-1.4,1.1c0,0.8,0.4,1.2,1.2,1.2c0.5,0,1.1-0.2,1.5-0.6V103.8z"/>
		<path class="st1" d="M145.8,99.8c-0.1-0.5-0.2-0.9-0.2-1.5v-2.5h2.2v11.8h-1.8l-0.3-0.9c-0.3,0.5-1.1,1.1-2.2,1.1
			c-1.9,0-3.4-1.4-3.4-4.4c0-2.8,1.6-4.4,3.6-4.4C144.7,99,145.4,99.3,145.8,99.8z M145.6,101c-0.3-0.2-0.9-0.4-1.5-0.4
			c-1.1,0-1.7,0.7-1.7,2.7c0,2,0.6,2.8,1.7,2.8c0.6,0,1.1-0.3,1.6-0.7V101z"/>
		<path class="st1" d="M151.5,103.9c0,1.3,0.8,2.1,2.2,2.1c0.9,0,1.7-0.3,2.5-0.7l0.4,1.6c-0.7,0.4-1.8,0.8-3.2,0.8
			c-2.6,0-4.1-1.6-4.1-4.4c0-2.6,1.2-4.3,3.9-4.3c2.5,0,3.5,1.9,3.5,4v1H151.5z M153.1,100.6c-1.1,0-1.6,1-1.6,2h3.1
			C154.6,101.5,154.3,100.6,153.1,100.6z"/>
		<path class="st1" d="M77.4,123.4c-3.3,0-5-2.2-5-6c0-3.6,1.7-5.9,5-5.9c1.6,0,3,0.3,3.9,1l-0.9,1.8c-0.6-0.5-1.6-0.8-2.8-0.8
			c-1.9,0-2.9,1.4-2.9,3.9c0,2.7,1,4,2.8,4c1.1,0,2.3-0.5,3-1.1l0.7,1.8C80.3,122.9,79,123.4,77.4,123.4z"/>
		<path class="st1" d="M87.8,123.2l-0.3-1c-0.4,0.6-1.3,1.2-2.4,1.2c-1.7,0-2.8-1.1-2.8-2.7c0-1.6,1.1-2.5,3.2-2.5h1.8v-0.4
			c0-1.1-0.6-1.4-1.5-1.4c-1,0-1.8,0.3-2.5,0.6l-0.6-1.6c0.8-0.4,2-0.7,3.3-0.7c2.4,0,3.4,1.1,3.4,3.2v5.3H87.8z M87.2,119.5h-1.4
			c-0.9,0-1.4,0.4-1.4,1.1c0,0.8,0.4,1.2,1.2,1.2c0.5,0,1.1-0.2,1.5-0.6V119.5z"/>
		<path class="st1" d="M91,121v-9.6h2.2v9.5c0,0.7,0.4,0.8,1.4,0.8v1.6c0,0-0.7,0.1-1.2,0.1C91.7,123.4,91,122.5,91,121z"/>
		<path class="st1" d="M96.5,123.2v-6.8l-1-0.2v-1.4h3.2v8.4H96.5z M96.4,111.4h2.3v2h-2.3V111.4z"/>
		<path class="st1" d="M105.9,115.5c-0.1-0.5-0.2-0.9-0.2-1.5v-2.5h2.2v11.8h-1.8l-0.3-0.9c-0.3,0.5-1.1,1.1-2.2,1.1
			c-1.9,0-3.4-1.4-3.4-4.4c0-2.8,1.6-4.4,3.6-4.4C104.7,114.6,105.4,114.9,105.9,115.5z M105.7,116.7c-0.3-0.2-0.9-0.4-1.5-0.4
			c-1.1,0-1.7,0.7-1.7,2.7c0,2,0.6,2.8,1.7,2.8c0.6,0,1.1-0.3,1.6-0.7V116.7z"/>
		<path class="st1" d="M114.8,123.2l-0.3-1c-0.4,0.6-1.3,1.2-2.4,1.2c-1.7,0-2.8-1.1-2.8-2.7c0-1.6,1.1-2.5,3.2-2.5h1.8v-0.4
			c0-1.1-0.6-1.4-1.5-1.4c-1,0-1.8,0.3-2.5,0.6l-0.6-1.6c0.8-0.4,2-0.7,3.3-0.7c2.4,0,3.4,1.1,3.4,3.2v5.3H114.8z M114.2,119.5h-1.4
			c-0.9,0-1.4,0.4-1.4,1.1c0,0.8,0.4,1.2,1.2,1.2c0.5,0,1.1-0.2,1.5-0.6V119.5z"/>
		<path class="st1" d="M123.4,115.5c-0.1-0.5-0.2-0.9-0.2-1.5v-2.5h2.2v11.8h-1.8l-0.3-0.9c-0.3,0.5-1.1,1.1-2.2,1.1
			c-1.9,0-3.4-1.4-3.4-4.4c0-2.8,1.6-4.4,3.6-4.4C122.3,114.6,123,114.9,123.4,115.5z M123.2,116.7c-0.3-0.2-0.9-0.4-1.5-0.4
			c-1.1,0-1.7,0.7-1.7,2.7c0,2,0.6,2.8,1.7,2.8c0.6,0,1.1-0.3,1.6-0.7V116.7z"/>
		<path class="st1" d="M136.1,115.5c-0.1-0.5-0.2-0.9-0.2-1.5v-2.5h2.2v11.8h-1.8l-0.3-0.9c-0.3,0.5-1.1,1.1-2.2,1.1
			c-1.9,0-3.4-1.4-3.4-4.4c0-2.8,1.6-4.4,3.6-4.4C134.9,114.6,135.6,114.9,136.1,115.5z M135.9,116.7c-0.3-0.2-0.9-0.4-1.5-0.4
			c-1.1,0-1.7,0.7-1.7,2.7c0,2,0.6,2.8,1.7,2.8c0.6,0,1.1-0.3,1.6-0.7V116.7z"/>
		<path class="st1" d="M141.8,119.6c0,1.3,0.8,2.1,2.2,2.1c0.9,0,1.7-0.3,2.5-0.7l0.4,1.6c-0.7,0.4-1.8,0.8-3.2,0.8
			c-2.6,0-4.1-1.6-4.1-4.4c0-2.6,1.2-4.3,3.9-4.3c2.5,0,3.5,1.9,3.5,4v1H141.8z M143.4,116.3c-1.1,0-1.6,1-1.6,2h3.1
			C144.9,117.2,144.5,116.3,143.4,116.3z"/>
		<path class="st1" d="M151.9,121v-9.6h2.2v9.5c0,0.7,0.4,0.8,1.4,0.8v1.6c0,0-0.7,0.1-1.2,0.1C152.6,123.4,151.9,122.5,151.9,121z"
			/>
		<path class="st1" d="M161.8,123.2l-0.3-1c-0.4,0.6-1.3,1.2-2.4,1.2c-1.7,0-2.8-1.1-2.8-2.7c0-1.6,1.1-2.5,3.2-2.5h1.8v-0.4
			c0-1.1-0.6-1.4-1.5-1.4c-1,0-1.8,0.3-2.5,0.6l-0.6-1.6c0.8-0.4,2-0.7,3.3-0.7c2.4,0,3.4,1.1,3.4,3.2v5.3H161.8z M161.2,119.5h-1.4
			c-0.9,0-1.4,0.4-1.4,1.1c0,0.8,0.4,1.2,1.2,1.2c0.5,0,1.1-0.2,1.5-0.6V119.5z"/>
		<path class="st1" d="M82.6,138.9v-11.5h7.1v1.9h-4.9v2.8h3.7l-0.2,2h-3.5v3h4.9v1.9H82.6z"/>
		<path class="st1" d="M95.8,131.1c-0.1-0.5-0.2-0.9-0.2-1.5v-2.5h2.2v11.8H96l-0.3-0.9c-0.3,0.5-1.1,1.1-2.2,1.1
			c-1.9,0-3.4-1.4-3.4-4.4c0-2.8,1.6-4.4,3.6-4.4C94.7,130.3,95.4,130.6,95.8,131.1z M95.6,132.4c-0.3-0.2-0.9-0.4-1.5-0.4
			c-1.1,0-1.7,0.7-1.7,2.7c0,2,0.6,2.8,1.7,2.8c0.6,0,1.1-0.3,1.6-0.7V132.4z"/>
		<path class="st1" d="M105.5,138.9l-0.3-1c-0.4,0.5-1.3,1.2-2.6,1.2c-2.1,0-3-1.2-3-3.5v-5.1h2.2v5.1c0,1.3,0.5,1.7,1.5,1.7
			c0.6,0,1.1-0.2,1.5-0.5v-6.3h2.3v8.4H105.5z"/>
		<path class="st1" d="M115.2,138.3c-0.5,0.3-1.6,0.7-2.9,0.7c-2.5,0-4-1.4-4-4.4c0-2.7,1.5-4.4,4-4.4c1.1,0,2.1,0.2,2.9,0.7
			l-0.6,1.5c-0.6-0.4-1.4-0.5-2.1-0.5c-1.2,0-1.9,0.8-1.9,2.7c0,1.9,0.7,2.7,1.9,2.7c0.9,0,1.7-0.3,2.3-0.6L115.2,138.3z"/>
		<path class="st1" d="M121.6,138.9l-0.3-1c-0.4,0.6-1.3,1.2-2.4,1.2c-1.7,0-2.8-1.1-2.8-2.7c0-1.6,1.1-2.5,3.2-2.5h1.8v-0.4
			c0-1.1-0.6-1.4-1.5-1.4c-1,0-1.8,0.3-2.5,0.6l-0.6-1.6c0.8-0.4,2-0.7,3.3-0.7c2.4,0,3.4,1.1,3.4,3.2v5.3H121.6z M120.9,135.2h-1.4
			c-0.9,0-1.4,0.4-1.4,1.1c0,0.8,0.4,1.2,1.2,1.2c0.5,0,1.1-0.2,1.5-0.6V135.2z"/>
		<path class="st1" d="M131.4,138.3c-0.5,0.3-1.6,0.7-2.9,0.7c-2.5,0-4-1.4-4-4.4c0-2.7,1.5-4.4,4-4.4c1.1,0,2.1,0.2,2.9,0.7
			l-0.6,1.5c-0.6-0.4-1.4-0.5-2.1-0.5c-1.2,0-1.9,0.8-1.9,2.7c0,1.9,0.7,2.7,1.9,2.7c0.9,0,1.7-0.3,2.3-0.6L131.4,138.3z"/>
		<path class="st1" d="M133.3,138.9v-6.8l-1-0.2v-1.4h3.2v8.4H133.3z M133.3,127.1h2.3v2h-2.3V127.1z"/>
		<path class="st1" d="M144.9,134.7c0,2.9-1.4,4.4-3.9,4.4c-2.5,0-3.9-1.5-3.9-4.4c0-2.5,1.4-4.3,3.9-4.3
			C143.5,130.3,144.9,132.2,144.9,134.7z M138.9,129.2l-0.2-1.3l4.3-1.2l0.3,1.6L138.9,129.2z M142.6,134.7c0-2-0.6-2.7-1.6-2.7
			c-1,0-1.6,0.7-1.6,2.7c0,2,0.5,2.7,1.6,2.7C142,137.4,142.6,136.7,142.6,134.7z"/>
		<path class="st1" d="M151.5,138.9v-5c0-1.3-0.5-1.9-1.5-1.9c-0.6,0-1.1,0.3-1.5,0.5v6.3h-2.2v-8.4h1.5l0.3,1
			c0.5-0.6,1.4-1.1,2.7-1.1c2.1,0,3,1.2,3,3.4v5.2H151.5z"/>
	</g>
	<path class="st2" d="M118,54.6c-5,0-9.9,0.6-14.5,1.7l1.4,8.8c4.2-1,8.6-1.6,13.1-1.6c30.1,0,54.5,24.4,54.5,54.5
		c0,30.1-24.4,54.5-54.5,54.5c-4.5,0-8.9-0.6-13.1-1.6l-1.4,8.8c4.7,1.1,9.5,1.7,14.5,1.7c35,0,63.4-28.4,63.4-63.4
		S153,54.6,118,54.6z"/>
	<path class="st1" d="M63.5,118c0-16.6,7.4-31.4,19.1-41.4c6.3-5.4,13.9-9.4,22.3-11.5l-1.4-8.8c-6.8,1.6-13.1,4.3-18.9,7.8
		c-18,11.2-29.9,31.1-29.9,53.8s12,42.7,29.9,53.8c5.7,3.6,12.1,6.3,18.9,7.8l1.4-8.8c-8.4-2.1-16-6.1-22.3-11.5
		C70.9,149.4,63.5,134.6,63.5,118z"/>
</g>
</svg>
