<?xml version="1.0" encoding="utf-8"?>
<!-- Generator: Adobe Illustrator 23.0.3, SVG Export Plug-In . SVG Version: 6.00 Build 0)  -->
<svg version="1.1" id="Capa_1" xmlns="http://www.w3.org/2000/svg" xmlns:xlink="http://www.w3.org/1999/xlink" x="0px" y="0px"
	 viewBox="0 0 236 236" style="enable-background:new 0 0 236 236;" xml:space="preserve">
<style type="text/css">
	.st0{fill:none;}
	.st1{fill:#1A1C20;}
</style>
<g>
	<rect class="st0" width="236" height="236"/>
	<g>
		<g>
			<path class="st1" d="M116.5,121.8c-1.8,0-3.2-0.4-4.4-0.6v-11.9h4.1c3.6,0,5.8,1.4,5.8,6.1C122.1,119.3,120.4,121.8,116.5,121.8z
				 M116.2,111.2h-1.7v8.3c0.4,0.1,1.2,0.3,2.2,0.3c1.6,0,2.9-0.9,2.9-4.5C119.6,112.3,118.6,111.2,116.2,111.2z"/>
			<path class="st1" d="M125.2,121.6v-7.2l-1.1-0.2v-1.5h3.5v9L125.2,121.6L125.2,121.6z M125.2,109h2.5v2.2h-2.5V109z"/>
			<path class="st1" d="M135.3,114.6c-0.3-0.1-0.7-0.1-1.2-0.1c-0.6,0-1.2,0.3-1.6,0.6v6.6h-2.4v-8.9h1.7l0.3,1.2h0.1
				c0.3-0.6,1.1-1.4,2.2-1.4c0.5,0,0.9,0.1,1.1,0.1L135.3,114.6z"/>
			<path class="st1" d="M138.7,117.7c0,1.4,0.8,2.2,2.3,2.2c0.9,0,1.9-0.4,2.7-0.7l0.4,1.7c-0.7,0.4-2,0.9-3.4,0.9
				c-2.7,0-4.4-1.7-4.4-4.7c0-2.7,1.4-4.7,4.3-4.7c2.7,0,3.7,2,3.7,4.3v1.1h-5.6V117.7z M140.4,114.2c-1.2,0-1.7,1.1-1.7,2.2h3.3
				C142,115.2,141.7,114.2,140.4,114.2z"/>
			<path class="st1" d="M153.7,121c-0.5,0.3-1.7,0.8-3.1,0.8c-2.7,0-4.3-1.5-4.3-4.7c0-3,1.6-4.7,4.3-4.7c1.2,0,2.2,0.2,3.1,0.7
				l-0.6,1.7c-0.6-0.4-1.4-0.6-2.2-0.6c-1.2,0-2,0.9-2,2.9s0.7,2.9,2.1,2.9c0.9,0,1.9-0.4,2.5-0.6L153.7,121z"/>
			<path class="st1" d="M162.8,121c-0.5,0.3-1.7,0.8-3.1,0.8c-2.7,0-4.3-1.5-4.3-4.7c0-3,1.6-4.7,4.3-4.7c1.2,0,2.2,0.2,3.1,0.7
				l-0.6,1.7c-0.6-0.4-1.4-0.6-2.2-0.6c-1.2,0-2,0.9-2,2.9s0.7,2.9,2.1,2.9c0.9,0,1.9-0.4,2.5-0.6L162.8,121z"/>
			<path class="st1" d="M165.5,121.6v-7.2l-1.1-0.2v-1.5h3.5v9L165.5,121.6L165.5,121.6z M165.4,109h2.5v2.2h-2.5V109z"/>
			<path class="st1" d="M178.5,117.1c0,3.1-1.5,4.7-4.3,4.7c-2.7,0-4.3-1.6-4.3-4.7c0-2.7,1.4-4.7,4.3-4.7
				C177,112.4,178.5,114.4,178.5,117.1z M172.1,111.2l-0.2-1.4l4.6-1.3l0.3,1.7L172.1,111.2z M176.1,117.1c0-2.2-0.6-3-1.7-3
				c-1.1,0-1.7,0.8-1.7,3c0,2.1,0.6,3,1.7,3S176.1,119.3,176.1,117.1z"/>
			<path class="st1" d="M186.2,121.6v-5.3c0-1.4-0.5-2-1.6-2c-0.6,0-1.2,0.3-1.6,0.6v6.8h-2.4v-8.9h1.7l0.4,1
				c0.5-0.6,1.5-1.2,2.8-1.2c2.3,0,3.2,1.4,3.2,3.6v5.6h-2.5V121.6z"/>
			<path class="st1" d="M117.8,129.8c-0.1-0.5-0.2-1-0.2-1.7v-2.7h2.4v12.7h-2l-0.3-1c-0.4,0.6-1.2,1.2-2.4,1.2
				c-2,0-3.7-1.4-3.7-4.7c0-3,1.7-4.7,3.9-4.7C116.6,128.9,117.3,129.3,117.8,129.8z M117.6,131.2c-0.4-0.2-0.9-0.4-1.7-0.4
				c-1.2,0-1.9,0.8-1.9,2.9c0,2.2,0.6,3,1.8,3c0.6,0,1.2-0.3,1.7-0.8L117.6,131.2L117.6,131.2z"/>
			<path class="st1" d="M124.6,134.3c0,1.4,0.8,2.2,2.3,2.2c0.9,0,1.9-0.4,2.7-0.7l0.4,1.7c-0.7,0.4-2,0.9-3.4,0.9
				c-2.7,0-4.4-1.7-4.4-4.7c0-2.7,1.4-4.7,4.3-4.7c2.7,0,3.7,2,3.7,4.3v1.1h-5.6V134.3z M126.3,130.7c-1.2,0-1.7,1.1-1.7,2.2h3.3
				C127.9,131.7,127.6,130.7,126.3,130.7z"/>
			<path class="st1" d="M132.4,135.7v-10.3h2.4v10.2c0,0.7,0.4,0.9,1.4,0.9v1.7c0,0-0.7,0.1-1.3,0.1
				C133,138.3,132.4,137.3,132.4,135.7z"/>
			<path class="st1" d="M147.2,127.8v10.4h-2.5v-10.4h-3v-2h8.6v2C150.3,127.8,147.2,127.8,147.2,127.8z"/>
			<path class="st1" d="M155.5,131.1c-0.3-0.1-0.7-0.1-1.2-0.1c-0.6,0-1.2,0.3-1.6,0.6v6.6h-2.4v-9h1.7l0.3,1.2h0.1
				c0.3-0.6,1.1-1.4,2.2-1.4c0.5,0,0.9,0.1,1.1,0.1L155.5,131.1z"/>
			<path class="st1" d="M162.7,138.1l-0.4-1.1c-0.4,0.6-1.4,1.2-2.6,1.2c-1.8,0-3-1.2-3-2.9s1.2-2.7,3.4-2.7h1.9v-0.4
				c0-1.2-0.6-1.5-1.6-1.5c-1.1,0-1.9,0.3-2.7,0.6l-0.6-1.7c0.9-0.4,2.2-0.7,3.5-0.7c2.5,0,3.7,1.2,3.7,3.5v5.7L162.7,138.1
				L162.7,138.1z M162,134.2h-1.5c-1,0-1.4,0.5-1.4,1.2c0,0.8,0.4,1.3,1.4,1.3c0.6,0,1.2-0.3,1.6-0.6L162,134.2L162,134.2z"/>
			<path class="st1" d="M169,130c0.4-0.6,1.4-1.1,2.4-1.1c2.1,0,3.6,1.5,3.6,4.7c0,3.1-1.8,4.7-4,4.7c-1.3,0-2-0.5-2.6-1.3l-0.4,1.1
				h-1.3v-12.7h2.4v3.2L169,130z M169.2,135.6c0.4,0.5,1,0.9,1.7,0.9c1.1,0,1.8-0.8,1.8-3s-0.6-2.9-1.8-2.9c-0.6,0-1.3,0.3-1.7,0.7
				V135.6z"/>
			<path class="st1" d="M182.7,138.1l-0.4-1.1c-0.4,0.6-1.4,1.2-2.6,1.2c-1.8,0-3-1.2-3-2.9s1.2-2.7,3.4-2.7h1.9v-0.4
				c0-1.2-0.6-1.5-1.6-1.5c-1.1,0-1.9,0.3-2.7,0.6l-0.6-1.7c0.9-0.4,2.2-0.7,3.5-0.7c2.5,0,3.7,1.2,3.7,3.5v5.7L182.7,138.1
				L182.7,138.1z M182.1,134.2h-1.5c-1,0-1.4,0.5-1.4,1.2c0,0.8,0.4,1.3,1.4,1.3c0.6,0,1.2-0.3,1.6-0.6v-1.9H182.1z"/>
			<path class="st1" d="M189.9,138.2c0,2.5-1.1,3.2-2.7,3.2c-0.6,0-1.2-0.1-1.6-0.3l0.3-1.9c0.2,0.1,0.5,0.1,0.8,0.1
				c0.6,0,0.9-0.4,0.9-1v-7.6l-1.1-0.2v-1.4h3.4L189.9,138.2L189.9,138.2z M187.5,125.5h2.5v2.2h-2.5V125.5z"/>
			<path class="st1" d="M200.7,133.6c0,3.1-1.5,4.7-4.3,4.7c-2.7,0-4.3-1.6-4.3-4.7c0-2.7,1.4-4.7,4.3-4.7
				C199.2,128.9,200.7,130.9,200.7,133.6z M198.3,133.6c0-2.2-0.6-3-1.7-3c-1.1,0-1.7,0.8-1.7,3c0,2.1,0.6,3,1.7,3
				S198.3,135.7,198.3,133.6z"/>
		</g>
		<g>
			<path class="st1" d="M37.1,154.7c-6.6,0-12-1.2-16.2-2.5v-43.5H36c13.2,0,21.5,5.4,21.5,22.2C57.6,145.6,51.2,154.7,37.1,154.7z
				 M35.8,115.8h-6v30.6c1.5,0.5,4.5,0.9,7.8,0.9c5.9,0,10.7-3.4,10.7-16.4C48.2,119.9,44.9,115.8,35.8,115.8z"/>
			<path class="st1" d="M78.7,116.1V154h-9.2v-37.9H58.6v-7.4H90v7.4H78.7z"/>
		</g>
		<g>
			<path class="st1" d="M118.1,153.5c-1.1,0.5-1.9,0.6-2.7,0.6c-2.2,0-3.5-1.7-3.5-4.3c0-2.4,1.2-4.2,3.6-4.2c1,0,1.8,0.2,2.4,0.6
				l-0.4,0.7c-0.4-0.3-1.2-0.5-2-0.5c-1.7,0-2.6,1.4-2.6,3.3c0,2.2,0.9,3.5,2.6,3.5c0.6,0,1.2-0.1,1.7-0.3v-2.2h-1.4l-0.1-0.7h2.3
				L118.1,153.5L118.1,153.5z"/>
			<path class="st1" d="M124.5,151c0,2-1,3.1-2.6,3.1c-1.7,0-2.5-1.1-2.5-3.1c0-1.7,0.9-3.1,2.5-3.1
				C123.7,147.9,124.5,149.3,124.5,151z M123.6,151c0-1.6-0.5-2.4-1.7-2.4s-1.6,0.9-1.6,2.4c0,1.4,0.4,2.5,1.6,2.5
				C123.2,153.4,123.6,152.6,123.6,151z"/>
			<path class="st1" d="M126.8,148.8c0.4-0.4,1.1-0.8,1.8-0.8c1.5,0,2.3,1.1,2.3,3.1c0,2.1-1.1,3.1-2.5,3.1c-0.8,0-1.3-0.4-1.7-0.8
				l-0.2,0.6H126v-8.4h0.9v2.3L126.8,148.8z M126.9,152.8c0.4,0.4,0.9,0.6,1.4,0.6c1.1,0,1.6-0.7,1.6-2.5c0-1.6-0.4-2.4-1.5-2.4
				c-0.6,0-1.2,0.3-1.5,0.6L126.9,152.8L126.9,152.8z"/>
			<path class="st1" d="M132.7,154v-5.3l-0.6-0.1V148h1.6v6H132.7z M132.7,145.7h1v1h-1V145.7z"/>
			<path class="st1" d="M136,151.3c0,1.4,0.7,2.1,1.9,2.1c0.8,0,1.4-0.4,1.9-0.6l0.2,0.6c-0.5,0.3-1.3,0.6-2.2,0.6
				c-1.7,0-2.7-1.1-2.7-3.2c0-1.9,0.9-3.1,2.6-3.1c1.7,0,2.4,1.4,2.4,2.9v0.5L136,151.3L136,151.3z M137.6,148.6c-1.2,0-1.6,1-1.6,2
				h3.1C139.2,149.6,138.8,148.6,137.6,148.6z"/>
			<path class="st1" d="M144.5,148.8c-0.1-0.1-0.4-0.1-0.8-0.1c-0.6,0-1,0.4-1.4,0.6v4.6h-0.9v-6h0.6l0.1,0.7
				c0.3-0.4,0.8-0.9,1.5-0.9c0.4,0,0.7,0.1,0.7,0.1v1H144.5z"/>
			<path class="st1" d="M149.3,154v-3.6c0-1.2-0.4-1.7-1.4-1.7c-0.6,0-1.1,0.4-1.4,0.6v4.7h-0.9v-6h0.6l0.2,0.7
				c0.4-0.4,1-0.9,1.9-0.9c1.4,0,2,0.9,2,2.3v3.7L149.3,154L149.3,154z"/>
			<path class="st1" d="M156.7,151c0,2-1,3.1-2.6,3.1c-1.7,0-2.5-1.1-2.5-3.1c0-1.7,0.9-3.1,2.5-3.1
				C155.8,147.9,156.7,149.3,156.7,151z M155.7,151c0-1.6-0.5-2.4-1.7-2.4s-1.6,0.9-1.6,2.4c0,1.4,0.4,2.5,1.6,2.5
				C155.3,153.4,155.7,152.6,155.7,151z"/>
			<path class="st1" d="M164.8,153.3c-0.4,0.4-1,0.9-1.7,0.9c-1.4,0-2.4-1.1-2.4-3.1c0-1.8,0.9-3.1,2.5-3.1c0.7,0,1.2,0.2,1.6,0.5
				c-0.1-0.3-0.1-0.6-0.1-1v-1.9h0.9v8.4h-0.7L164.8,153.3z M164.7,149c-0.3-0.2-0.8-0.4-1.4-0.4c-1.2,0-1.7,0.9-1.7,2.4
				c0,1.4,0.5,2.5,1.6,2.5c0.5,0,1-0.2,1.5-0.7L164.7,149L164.7,149z"/>
			<path class="st1" d="M167.9,151.3c0,1.4,0.7,2.1,1.9,2.1c0.8,0,1.4-0.4,1.9-0.6l0.2,0.6c-0.5,0.3-1.3,0.6-2.2,0.6
				c-1.7,0-2.7-1.1-2.7-3.2c0-1.9,0.9-3.1,2.6-3.1c1.7,0,2.4,1.4,2.4,2.9v0.5L167.9,151.3L167.9,151.3z M169.5,148.6
				c-1.2,0-1.6,1-1.6,2h3.1C171,149.6,170.7,148.6,169.5,148.6z"/>
			<path class="st1" d="M179.2,154.2c-2.2,0-3.4-1.7-3.4-4.3c0-2.7,1.3-4.2,3.4-4.2c1,0,1.9,0.2,2.5,0.6l-0.4,0.7
				c-0.5-0.4-1.3-0.6-2.1-0.6c-1.7,0-2.5,1.4-2.5,3.3c0,2.1,0.8,3.5,2.5,3.5c0.9,0,1.7-0.4,2.2-0.8l0.3,0.7
				C181.2,153.8,180.3,154.2,179.2,154.2z"/>
			<path class="st1" d="M183,154v-8.4h0.9v2.4c0,0.2-0.1,0.6-0.1,0.7c0.4-0.4,0.9-0.9,1.8-0.9c1.4,0,2.1,0.8,2.1,2.3v3.7h-0.9v-3.6
				c0-1.1-0.4-1.7-1.4-1.7c-0.6,0-1.1,0.4-1.4,0.6v4.7h-1L183,154L183,154z"/>
			<path class="st1" d="M189.6,154v-5.3l-0.6-0.1V148h1.6v6H189.6z M189.6,145.7h1v1h-1V145.7z"/>
			<path class="st1" d="M192.2,152.4v-6.8h0.9v7.1c0,0.5,0.2,0.7,0.9,0.7h0.2v0.6c0,0-0.3,0.1-0.6,0.1
				C192.5,154.2,192.2,153.5,192.2,152.4z"/>
			<path class="st1" d="M196.1,151.3c0,1.4,0.7,2.1,1.9,2.1c0.8,0,1.4-0.4,1.9-0.6l0.2,0.6c-0.5,0.3-1.3,0.6-2.2,0.6
				c-1.7,0-2.7-1.1-2.7-3.2c0-1.9,0.9-3.1,2.6-3.1c1.7,0,2.4,1.4,2.4,2.9v0.5L196.1,151.3L196.1,151.3z M197.7,148.6
				c-1.2,0-1.6,1-1.6,2h3.1C199.2,149.6,198.9,148.6,197.7,148.6z"/>
		</g>
		<g>
			<path class="st1" d="M101.5,97.6H15.4V80.2h86.1V97.6z M16.9,96h83V81.7h-83C16.9,81.7,16.9,96,16.9,96z"/>
		</g>
		<g>
			<path class="st1" d="M220.6,97.6H99.9V80.2h120.7V97.6L220.6,97.6z M101.5,96H219V81.7H101.5V96z"/>
		</g>
		<g>
			<rect x="99.9" y="108.8" class="st1" width="1.7" height="47"/>
		</g>
	</g>
</g>
</svg>
