<?xml version="1.0" encoding="utf-8"?>
<!-- Generator: Adobe Illustrator 23.0.3, SVG Export Plug-In . SVG Version: 6.00 Build 0)  -->
<svg version="1.1" id="Capa_1" xmlns="http://www.w3.org/2000/svg" xmlns:xlink="http://www.w3.org/1999/xlink" x="0px" y="0px"
	 viewBox="0 0 236 236" style="enable-background:new 0 0 236 236;" xml:space="preserve">
<style type="text/css">
	.st0{fill:none;}
	.st1{fill:#1A1C20;}
</style>
<rect y="0" class="st0" width="236" height="236"/>
<g>
	<g>
		<g>
			<path class="st1" d="M116.3,178.9c-0.9,0.4-1.7,0.6-2.5,0.6c-2,0-2.9-1.4-2.9-3.5c0-2,1-3.4,3.1-3.4c1,0,1.7,0.2,2.2,0.6l-0.6,1
				c-0.4-0.2-0.9-0.4-1.6-0.4c-1.2,0-1.7,0.9-1.7,2.2c0,1.6,0.6,2.4,1.7,2.4c0.4,0,0.9-0.1,1.2-0.2V177h-0.9l-0.1-1h2.2V178.9z"/>
			<path class="st1" d="M121.7,177c0,1.7-0.8,2.5-2.3,2.5c-1.5,0-2.3-0.9-2.3-2.5c0-1.4,0.8-2.5,2.3-2.5
				C120.9,174.5,121.7,175.6,121.7,177 M120.3,177c0-1.2-0.3-1.6-1-1.6c-0.6,0-0.9,0.4-0.9,1.6c0,1.1,0.3,1.6,0.9,1.6
				C120,178.6,120.3,178.2,120.3,177"/>
			<path class="st1" d="M123.8,175.1c0.2-0.3,0.7-0.6,1.3-0.6c1.1,0,2,0.8,2,2.5c0,1.7-1,2.5-2.1,2.5c-0.7,0-1.1-0.3-1.4-0.7
				l-0.2,0.6h-0.7v-6.8h1.3v1.7L123.8,175.1z M123.9,178.1c0.2,0.3,0.5,0.5,0.9,0.5c0.6,0,1-0.4,1-1.6c0-1.2-0.4-1.6-1-1.6
				c-0.3,0-0.7,0.2-0.9,0.4V178.1z"/>
			<path class="st1" d="M128.5,179.5v-3.9l-0.6-0.1v-0.8h1.8v4.9H128.5z M128.4,172.6h1.3v1.2h-1.3V172.6z"/>
			<path class="st1" d="M132.1,177.4c0,0.8,0.4,1.2,1.3,1.2c0.5,0,1-0.2,1.4-0.4l0.2,0.9c-0.4,0.2-1.1,0.5-1.8,0.5
				c-1.5,0-2.4-0.9-2.4-2.5c0-1.5,0.7-2.5,2.3-2.5c1.5,0,2.1,1.1,2.1,2.3v0.6H132.1z M133,175.5c-0.6,0-0.9,0.6-0.9,1.2h1.8
				C133.8,176,133.6,175.5,133,175.5"/>
			<path class="st1" d="M138.8,175.7c-0.2,0-0.4-0.1-0.6-0.1c-0.3,0-0.7,0.1-0.9,0.3v3.5H136v-4.9h0.9c0,0.2,0.1,0.4,0.1,0.7h0
				c0.1-0.3,0.6-0.7,1.2-0.7c0.3,0,0.4,0,0.6,0.1C138.8,175,138.8,175.3,138.8,175.7"/>
			<path class="st1" d="M142.6,179.5v-2.9c0-0.7-0.3-1.1-0.9-1.1c-0.3,0-0.6,0.1-0.9,0.3v3.7h-1.3v-4.9h0.9l0.2,0.6
				c0.3-0.3,0.8-0.7,1.5-0.7c1.2,0,1.7,0.7,1.7,2v3H142.6z"/>
			<path class="st1" d="M149.3,177c0,1.7-0.8,2.5-2.3,2.5c-1.5,0-2.3-0.9-2.3-2.5c0-1.4,0.8-2.5,2.3-2.5
				C148.5,174.5,149.3,175.6,149.3,177 M148,177c0-1.2-0.3-1.6-1-1.6c-0.6,0-0.9,0.4-0.9,1.6c0,1.1,0.3,1.6,0.9,1.6
				C147.7,178.6,148,178.2,148,177"/>
			<path class="st1" d="M155.6,175c-0.1-0.3-0.1-0.5-0.1-0.9v-1.5h1.3v6.8h-1.1l-0.1-0.5c-0.2,0.3-0.7,0.6-1.3,0.6
				c-1.1,0-2-0.8-2-2.5c0-1.6,0.9-2.5,2.1-2.5C155,174.5,155.4,174.7,155.6,175 M155.5,175.7c-0.2-0.1-0.5-0.2-0.9-0.2
				c-0.6,0-1,0.4-1,1.5c0,1.2,0.4,1.6,1,1.6c0.3,0,0.7-0.2,0.9-0.4V175.7z"/>
			<path class="st1" d="M159.1,177.4c0,0.8,0.4,1.2,1.2,1.2c0.5,0,1-0.2,1.4-0.4l0.2,0.9c-0.4,0.2-1.1,0.5-1.8,0.5
				c-1.5,0-2.4-0.9-2.4-2.5c0-1.5,0.7-2.5,2.3-2.5c1.5,0,2.1,1.1,2.1,2.3v0.6H159.1z M160,175.5c-0.6,0-0.9,0.6-0.9,1.2h1.8
				C160.9,176,160.7,175.5,160,175.5"/>
			<path class="st1" d="M168,179.6c-1.9,0-2.9-1.3-2.9-3.5c0-2.1,1-3.4,2.9-3.4c0.9,0,1.7,0.2,2.3,0.6l-0.5,1
				c-0.3-0.3-1-0.5-1.6-0.5c-1.1,0-1.7,0.8-1.7,2.3c0,1.5,0.6,2.4,1.6,2.4c0.7,0,1.3-0.3,1.8-0.6l0.4,1
				C169.7,179.3,168.9,179.6,168,179.6"/>
			<path class="st1" d="M171.2,179.5v-6.8h1.3v1.8c0,0.3-0.1,0.7-0.1,0.8c0.3-0.3,0.7-0.7,1.4-0.7c1.4,0,1.8,0.7,1.8,2v3h-1.3v-2.9
				c0-0.1,0-0.2-0.1-0.3c0-0.5-0.3-0.8-0.8-0.8c-0.3,0-0.6,0.1-0.9,0.3v3.7H171.2z"/>
			<path class="st1" d="M177,179.5v-3.9l-0.6-0.1v-0.8h1.8v4.9H177z M177,172.6h1.3v1.2H177V172.6z"/>
			<path class="st1" d="M179.5,178.2v-5.5h1.3v5.5c0,0.4,0.2,0.5,0.8,0.5v0.9c0,0-0.4,0.1-0.7,0.1
				C179.8,179.6,179.5,179,179.5,178.2"/>
			<path class="st1" d="M183.5,177.4c0,0.8,0.4,1.2,1.2,1.2c0.5,0,1-0.2,1.4-0.4l0.2,0.9c-0.4,0.2-1,0.5-1.8,0.5
				c-1.5,0-2.4-0.9-2.4-2.5c0-1.5,0.7-2.5,2.3-2.5c1.5,0,2.1,1.1,2.1,2.3v0.6H183.5z M184.4,175.5c-0.6,0-0.9,0.6-0.9,1.2h1.8
				C185.3,176,185.1,175.5,184.4,175.5"/>
			<path class="st1" d="M193.3,47.1H42.7h-2.4v2.4l0,136.9v2.4h2.4h150.6h2.4v-2.4l0-136.9v-2.4H193.3z M42.7,49.6h60.5l0,136.9
				H42.7L42.7,49.6z M193.3,186.4h-87.7l0-136.9h87.7L193.3,186.4z"/>
		</g>
		<g>
			<g>
				<g>
					<path class="st1" d="M74.8,68.3c0.1-0.1,0.4-0.4,0.2-0.8c-0.1-0.2-0.4-0.2-0.3-0.3c1.5-0.4,2.4-2.6,2.3-3.5
						c0.8,0.7,2.6,0.9,3.9-0.2c0.8-0.8,1.2-2.9-0.2-4c-0.7-0.5-2-0.6-2.8,0c-0.3-0.4-0.7-0.7-1.2-0.7c0-0.2,0-1.2-0.6-1.8
						c-0.8-0.8-2.9-0.9-3.7,0c-1.6-0.4-3.6,0.3-3.5,2.8c-1.1-0.4-1.7-0.4-2.3-0.4c-0.5,0.1-1.3,0.5-1.5,0.9
						c-0.1,0.1-0.2,0.4-0.3,0.5c-0.2,0.4-0.3,0.8-0.3,1.3c0.1,0.9,0.5,1.6,1.1,1.9c0.9,0.5,2,0.4,2.4,0.3c0.3-0.1,0.6-0.2,1-0.5
						c0.1-0.1,0.2-0.3,0.3-0.3c0,0.2-0.1,1.4,1.2,1.9c0,0.1,0,0.1,0,0.2c0.4,1.6,1.5,1.4,1.5,1.5c-0.5,0.3-0.3,0.7-0.2,0.9
						c0.7-0.2,1.3-0.3,1.5-0.3C73.6,68.1,74.1,68.1,74.8,68.3z"/>
					<g>
						<path class="st1" d="M78.5,73.2c0-1.6,1.1-2.9,1.1-2.9c0.1-0.1,0.1-0.3,0.1-0.3c0-0.2-0.1-0.3-0.2-0.3c-0.3-0.2-1-0.6-1-0.6
							l-0.1,0h-0.1c-0.1,0-0.1,0-0.2,0.1c-0.2,0.1-0.6,0.4-1.2,0.4c-0.1,0-0.2,0-0.3,0c-0.3,0-0.9-0.3-0.9-0.3
							c-0.2-0.1-0.4-0.2-0.5-0.2l0,0c-0.9-0.4-1.7-0.4-1.9-0.4c-0.2,0-1,0-1.9,0.4l0,0c0,0-0.1,0.1-0.2,0.1l-0.5,0.3
							c-0.2,0.1-0.4,0.2-0.6,0.2c-0.1,0-0.2,0-0.3,0c-0.6,0-1-0.3-1.2-0.4c-0.1-0.1-0.2-0.1-0.2-0.1l-0.1,0l0,0c0,0-0.7,0.4-1,0.6
							c0,0-0.2,0.1-0.2,0.3c0,0.1,0,0.2,0.1,0.3c0,0.1,1.1,1.3,1.1,2.9c0,0.2,0.1,1.2-0.7,2.6c0,0.1-1,1.7,0,3.2
							c0,0,0.8,1.4,2.9,1.4c0.2,0,1.8,0,2.3,1.1c0,0,0.3,0.5,0.4,0.7l0.1,0.2l0.1-0.2c0.1-0.2,0.4-0.6,0.4-0.7
							c0.5-1,2.2-1.1,2.3-1.1c2.2,0,2.9-1.4,2.9-1.4c1-1.5,0.1-3.2,0.1-3.2C78.4,74.4,78.5,73.4,78.5,73.2z M77.7,73.2l-2.8,2
							l1.1,3.2l-2.7-2.1l-2.7,2.1l1.1-3.2l-2.8-2l0,0h3.5l1-3.2l1,3.2L77.7,73.2L77.7,73.2z"/>
						<g>
							<path class="st1" d="M79.2,68.8c0.1,0,0.1,0.1,0.2,0.2C79.3,68.9,79.2,68.8,79.2,68.8z"/>
							<path class="st1" d="M80.2,69.6c-0.1-0.1-0.2-0.2-0.4-0.3C80,69.4,80.1,69.5,80.2,69.6L80.2,69.6z"/>
							<path class="st1" d="M79.5,69c0.1,0.1,0.2,0.2,0.3,0.3C79.7,69.2,79.6,69.1,79.5,69z"/>
							<path class="st1" d="M97.4,86.6c-0.4-0.4-1.3-0.2-1.3-0.2c0.5-1.5-0.9-1.9-0.9-1.9c-0.5-0.1-0.8,0-1,0.1c0,0,0,0,0,0
								c0,0,0,0,0,0c0,0-0.1,0-0.1,0.1c-0.1,0.1-0.2,0.3-0.2,0.5c0,0.4,0.3,0.7,0.7,0.7c0.2,0,0.3,0,0.4-0.1
								c0.1-0.1,0.2-0.3,0.3-0.4c0.2,0.1,0.3,0.3,0.3,0.3c0.4,1.3-1,1.7-1,1.7c-3.2,1-5.1-0.7-5.1-0.7l0.6-0.3
								c0.2-0.1,0.4-0.1,0.5-0.1c0,0,0,0.1,0,0.1c0,0.3,0.3,0.6,0.6,0.6c0.3,0,0.6-0.3,0.6-0.6c0-0.3-0.1-0.4-0.1-0.4
								c-0.4-0.6-1.7-0.2-1.7-0.2c0.4-1.1,0-1.8,0-1.8c-0.6-1.2-2-0.8-2-0.8c-0.5,0.1-0.6,0.6-0.6,0.6c-0.2,1,0.6,1,0.6,1
								c0.6,0,0.6-0.4,0.6-0.4c0.1-0.4-0.6-0.5-0.6-0.5c0.5-0.9,2.2,0.6,1.1,2c-0.1,0.1-0.2,0-0.2,0c-2-1-3-1.6-3.4-2
								c0-0.5-0.5-0.8-0.4-1c0.1,0,0.4,0.1,0.5-0.1c0.1-0.1,0.2-0.9,0.3-1.5c1.7,0.8,3.2,0.6,3.5,0.5c0.2-0.1,0.3-0.2,0.3-0.4
								c0-0.7-1.7-4.6-1.7-6c0.8,0.4,1.3-0.9,1.5-1.2c1.1,0.5,1.5,10.7,2.3,11c0.4,0.2,0.6-0.5,0.6-0.6c1.4-4.5,1.4-8.9,1.3-10.4
								c-0.1-2.3-0.3-4.4-0.9-6.3c-0.3-1.2-1-3.6-2.6-3.9c-0.7-0.2-1.3,0.5-1.3,1.1c0,0.5,0.4,0.8,0.2,1.3c-0.2,0.3-0.4,0.7-0.5,1.1
								c-0.1,0.4,0.2,0.5,0.1,0.9c-0.5-0.1-0.7,0.4-1.5,0.2c0.5-0.2,0.5-1.7-0.1-1.9c-0.1,0-0.2-0.1-0.2-0.1c0,0,0.2-0.2,0.3-0.4
								c0.4-0.7,0.4-1.4,0.1-1.8c0.3,0,0.5-0.4,0.6-0.8l0,0c0,0,0,0,0,0v0c0-0.1,0-0.4,0.1-0.7c0-0.1,0-0.2-0.1-0.3
								c-0.1,0-0.2,0-0.3,0.1c-0.2,0.3-0.5,0.1-0.4-0.2c0-0.1,0-0.2-0.1-0.3c-0.1,0-0.2,0-0.3,0.1c-0.1,0.3-0.5,0.1-0.4-0.2
								c0-0.1,0-0.2-0.1-0.3c-0.1,0-0.2,0-0.3,0.1c-0.1,0.3-0.5,0.1-0.4-0.2c0-0.1,0-0.2-0.1-0.3c-0.1,0-0.2,0-0.3,0.1
								c-0.2,0.3-0.3,0.5-0.4,0.6c-0.3,0.1-0.3,0.5-0.2,0.7c-0.6-0.1-1.1,0.3-1.1,0.8h-0.1c-0.5,0-1,0.3-1,0.8
								c0,0.3,0.3,0.6,0.5,0.6c0.1,0,0-0.3,0.2-0.3c0.3,0,0.6,0.2,0.7,0.4c0.1,0.3-0.2,0.9,0.7,1c0,0,0,0.1,0,0.3
								c-0.3,0-0.4,0-0.7,0c-0.5,0.1-1.3,0.4-1.5,0.9c0,0.1-0.1,0.3,0,0.4c0,0.1,0.1,0.2,0.1,0.4c0,0.1-0.1,0.2-0.2,0.2
								c-0.2,0.2-0.7,0.5-1,0.5c-0.4,0-0.8-0.2-1-0.5c-0.5-0.7,0.2-2,0.2-2.5c0-1.3-1.6-0.5-2.3-0.2c-0.8,0.4-1.4,1-1.9,1.7
								c-0.3,0.3-0.6,0.8-0.7,1.1c0,0.1-0.1,0.1-0.2,0.1C76,68.8,76.5,69,77,69c0,0,0.9,0.1,1.5-0.4c0,0,0.1-0.1,0.2-0.1
								c0.1,0,0.2,0,0.2,0.1c0,0,0.1,0.1,0.2,0.2c0.1,0,0.1,0.1,0.2,0.2c0,0,0.1,0.1,0.1,0.1c0.1,0.1,0.2,0.2,0.3,0.3c0,0,0,0,0.1,0
								c0.1,0.1,0.2,0.2,0.4,0.3l0,0c0.1,0.1,0.3,0.2,0.3,0.2l0,0c0,0,0,0,0.1,0.1c0,0,0,0.1-0.1,0.2c0,0-0.1,0.1-0.2,0.2
								c-0.2,0.3-0.6,0.8-0.8,1.4c0.3,0.5,0.8,1.1,1.5,1.1c0.6,0,0.8-0.3,0.9-0.7c0,0,0,0,0,0c0.1-0.1,0.4,1.7,0.8,2.1
								c-0.4,0.2-1,0.8-0.7,2.5c-0.3-0.3-0.9-0.7-1.2-1c-0.2-0.4-0.5-1.2-1.5-1.3c0.1,0.4,0.3,0.9,0.6,1.4c0,0,0.6,1.1,0.4,2.3
								c0.4-0.4,0.3-1.5,0.3-1.5c0,0,0.1,0,0.1,0c0.1,0,0.5,0.8,1.2,0.9c0.9,1.5,1.9,2.5,2.9,3.2c0,0.4,0,1.3-0.2,1.3
								c-0.8,0.2-1.5-0.4-2.2-0.3c-0.1,0-0.1-0.1-0.1-0.1c-2.9-1.4-6.8,1.6-7.5,2.2c-0.3,0.3-0.7-0.1-0.7-0.1
								c-0.2-0.3-0.5-0.4-0.8-0.4c-0.3,0-0.6,0.1-0.8,0.4c0,0-0.4,0.4-0.7,0.1c-0.6-0.6-4.1-3.3-7-2.3c0-0.2-0.4-0.2-0.5-0.3
								c-0.2-0.1-0.4-0.2-0.6-0.3c-0.3-0.2-0.8-0.1-1.2-0.1c-0.1,0-0.3-0.1-0.5-0.2c-0.5-0.3-1-0.6-1.3-1c0-0.1-0.2-0.2-0.2-0.3
								c-0.1-0.2-0.2-0.3-0.3-0.6c-0.2-0.6,0.1-1.2,0.2-1.7c0.1-0.4,0-0.5,0.1-0.9c1.8-0.6,2.6-2,3-2.7c0-0.1,0.2-0.3,0.2-0.3
								c0.1,0,0.2,0,0.2,0c0.7,0,1.2-0.4,2-0.3c0,0,0.1,0.4,0.6,0.6c0,0.5,0.1,1,0.3,1.4c0,0.1,0.1,0.1,0.1,0.2
								c0.3-0.8,0.4-1.5,0.4-1.9c0,0,0-0.1-0.1-0.2c-0.2-0.9-0.6-1.1-1-1.4c-0.2-0.1-0.4-0.1-0.6-0.3c-0.3-0.2-0.6-0.4-0.8-0.8
								c0,0,0.1-0.1,0.2-0.2c0.5-0.5,0.8-1.3,0.9-2.2c0.4-0.5,1.5-0.3,1.9-0.2c0.1,0,0.3,0.1,0.4,0.1c0.1,0.1,0.1,0.3,0.3,0.3
								c0.2,0.1,0.4,0,0.6,0c0.1,0.1,0.1,0.2,0.2,0.3c0,0,0.1,0.1,0.2,0.2c0.5,0,1.2-0.3,1.5-0.4c0,0-0.1,0-0.1-0.1
								c-0.2-0.3-0.6-0.6-0.9-0.7c-0.4-0.1-0.5-0.4-0.9-0.5c-0.1,0-0.4-0.1-0.6,0c-0.9,0.1-1.5-0.2-2.3-0.3
								c-0.8-0.1-0.8,0.5-1.1,0.9c-0.1,0.2-0.2,0.3-0.3,0.5c-0.2,0.2-0.5,0.2-0.7,0.4l-0.1-0.3c-0.1-0.3-0.2-0.5-0.3-0.8
								c-0.4-0.6-0.9-1.1-1.8-1.4c-0.2-0.1-0.2-0.1-0.3-0.2c-0.1-0.1,0-0.3,0-0.3c0.3-0.2,0.7-0.1,1-0.2c0.7-0.3,0.5-1,0.2-1
								c-0.4-0.1-1-0.2-1.2-0.3c-0.2-0.1-0.5-0.7-0.8-0.8c-0.3-0.1-0.2-0.6-0.5-0.7c-0.1,0-0.3,0-0.5,0.1c0-0.1-0.1-0.7-0.4-0.9
								c-0.2-0.1-0.3,0.1-0.3,0.2c0,0.1,0.4,0.3,0.4,0.9c-0.1,0-0.1,0.1-0.2,0.1c0-0.2-0.2-0.6-0.4-0.7c-0.2-0.1-0.3,0.1-0.3,0.2
								c0,0.1,0.3,0.3,0.4,0.8c-0.1,0.1-0.1,0.1-0.2,0.2c-0.5-0.1-0.6-0.5-0.7-0.5c-0.1,0-0.4,0-0.2,0.3c0.1,0.3,0.5,0.4,0.7,0.5
								c-0.1,0.1-0.1,0.1-0.1,0.2c-0.6-0.1-0.7-0.5-0.8-0.5c-0.1,0-0.4,0-0.2,0.3c0.2,0.4,0.8,0.5,0.9,0.5c-0.1,0.2-0.2,0.3-0.1,0.4
								c-0.4-0.1-1.2,0.2-1.1,0.7c0.1,0.1,0.7-0.3,1.1-0.1c0.3,0.5,0.8,0.5,0.9,0.6c0.2,0.1,0.2,0.4,0.3,0.6
								c0.1,0.4,0.4,0.8,0.7,1.1c0.3,0.4,0.6,0.8,0.8,1.2c0,0.1,0.1,0.2,0,0.4c-0.3,0.5-1.3,1.1-1.7,1.5c-0.4,0.4-4.2,3.3-4.7,4.5
								c-0.1,0.3-0.2,0.6-0.2,1c-0.2,0.1-0.7,0.3-0.9,0.1c-0.3-0.4,0.3-0.7,0.2-1.1c-0.1-0.2-0.3-0.3-0.4-0.2
								c-0.9,0.7-0.5,1.9,0.1,2.2c0.7,0.3,0.8-0.4,1.3-0.1c0.1,0.1,1.3,1.1,1.1,2c0,0-0.1,0.2-0.1,0.2c-0.3,0.3-0.7,0.6-1,0.9
								c-0.6,0.4,0.6,2.9,0.5,4.2c-0.1,0.5,0.4,0.4,0.7,1.2c-0.3,0-0.6,0.1-0.7,0.3c0,0-0.1,0.1-0.1,0.4c0,0.3,0.3,0.6,0.6,0.6
								c0.3,0,0.6-0.3,0.6-0.6c0,0,0-0.1,0-0.1c0.1,0,0.3,0,0.5,0.1l0.6,0.3c0,0-1.9,1.6-5.1,0.7c0,0-1.4-0.5-1-1.7
								c0,0,0.1-0.2,0.3-0.3c0,0.2,0.1,0.3,0.3,0.4c0.1,0.1,0.3,0.1,0.4,0.1c0.4,0,0.7-0.3,0.7-0.7c0-0.2-0.1-0.4-0.2-0.5
								c0,0-0.1-0.1-0.1-0.1c0,0,0,0,0,0c0,0,0,0,0,0c-0.2-0.1-0.5-0.2-1-0.1c0,0-1.4,0.4-0.9,1.9c0,0-0.9-0.2-1.3,0.2
								c0,0-0.1,0.1-0.1,0.4v0v0c0,0.1,0,0.2,0.1,0.3c0.1,0.1,0.3,0.2,0.4,0.2c0.2,0,0.3-0.1,0.4-0.2c0,0,0,0,0,0
								c0,0,0.2-0.1,0.3,0.1c2.1,2.2,5.5,1.3,7.4-0.2c0,0,1.1-1.1,2.2-1.7c0.5,0.2,0.9,0.3,1.4,0.5c0,0.7,0.1,1.7,0.9,2.8
								c0,0-0.5,1-1.4,0.4c0,0-0.7-0.5-0.1-1.1c0,0,0.4-0.3,0.5,0.1c-0.2,0-0.4,0.2-0.4,0.4c0,0.2,0.2,0.4,0.4,0.4
								c0.2,0,0.4-0.2,0.4-0.3c0-0.1,0-0.5-0.3-0.8c0,0-0.3-0.3-0.8-0.2c-0.8,0.1-1.2,1.8,0.3,2.5c0,0,1.2,0.6,1.9-0.4
								c0,0,0-0.1,0.2,0.1c1.3,1.3,4.2,0.9,5.4,0c0,0,0.3-0.2,0.6-0.3c0,0.5,0.4,0.9,0.9,0.9c0.5,0,0.9-0.4,0.9-0.9
								c0-0.4-0.3-0.8-0.8-0.9c0,0-0.6-0.2-1.5,0.3c0,0-0.9,0.6-0.8,0.5c0.3-0.5,0.5-1.1,0.6-1.8c1.3,0.1,2.6,0.2,3.9,0.3
								c0,0.4-0.1,0.9-0.2,1.2c0,0-0.5,0.2-0.5,0.5c0,0-0.1,0.2,0.4,0.6c0,0,0.3,0.3,0.4,0.6c0,0,0,0.4,0.5,0.4c0,0,0.1,0,0.1,0
								c0,0,0.1,0,0.1,0c0.5,0,0.5-0.4,0.5-0.4c0.1-0.3,0.4-0.6,0.4-0.6c0.4-0.3,0.4-0.6,0.4-0.6c0-0.3-0.5-0.5-0.5-0.5
								c-0.2-0.4-0.2-0.9-0.2-1.2c1.4,0,2.7-0.1,3.9-0.3c0.1,0.7,0.3,1.3,0.6,1.8c0.1,0.1-0.8-0.5-0.8-0.5c-0.9-0.5-1.4-0.3-1.5-0.3
								c-0.4,0.1-0.7,0.4-0.7,0.9c0,0.5,0.4,0.9,0.9,0.9c0.5,0,0.9-0.4,0.9-0.9c0.3,0.2,0.6,0.3,0.6,0.3c1.2,0.9,4.1,1.2,5.4,0
								c0.2-0.2,0.2-0.1,0.2-0.1c0.6,0.9,1.9,0.4,1.9,0.4c1.6-0.7,1.1-2.4,0.3-2.5c-0.5-0.1-0.8,0.2-0.8,0.2
								c-0.3,0.3-0.3,0.7-0.3,0.8c0,0.2,0.2,0.3,0.4,0.3c0.2,0,0.4-0.2,0.4-0.4c0-0.2-0.2-0.4-0.4-0.4c0.2-0.4,0.5-0.1,0.5-0.1
								c0.6,0.6-0.1,1.1-0.1,1.1c-0.9,0.5-1.4-0.4-1.4-0.4c0.8-1.1,0.9-2.1,0.9-2.8c0.5-0.2,1-0.3,1.4-0.5c1.2,0.7,2.2,1.7,2.2,1.7
								c1.9,1.5,5.3,2.4,7.4,0.2c0.2-0.2,0.3-0.1,0.3-0.1c0,0,0,0,0,0c0.1,0.1,0.3,0.2,0.4,0.2c0.2,0,0.3-0.1,0.4-0.2
								c0.1-0.1,0.1-0.2,0.1-0.3v0v0C97.5,86.7,97.4,86.6,97.4,86.6z M58.1,85.9c0,0-0.1,0.1-0.2,0c-1.1-1.4,0.6-2.9,1.1-2
								c0,0-0.6,0-0.6,0.5c0,0,0,0.5,0.6,0.4c0,0,0.8-0.1,0.6-1c0,0-0.1-0.4-0.6-0.6c0,0-1.4-0.4-2,0.8c0,0-0.1,0.3-0.1,0.7
								c-0.2-0.1-0.3-0.2-0.5-0.3c-0.3-0.3-0.7-2.5-0.4-3.6c2.1-0.4,2.8-2.2,2.9-2.7c0.4,0.1,0.7,0.6,0.7,0.9c0,0.3-0.1,0.6,0.1,0.8
								c0.2,0.3,0.8,0.7,1.1,0.9c0.1,0.1,1.7,1.3,1.9,1.3c0.2,0,0.4-0.1,0.6-0.1c0.1,0,0.1,0.1,0.2,0.1c0,0,0.1,0.1,0.3,0.2
								c-0.4,0.3-0.9,0.7-1.7,1.3C62,83.6,61.5,84.3,58.1,85.9z M63.4,87.5c0,0-0.1,0.6-0.2,0.7c0,0-0.5-0.8-0.5-1.9
								c0.4,0.1,0.7,0.2,1.1,0.3C63.6,86.8,63.4,87.1,63.4,87.5z M67.5,89.4c0,0-2.2,0.9-3.8-0.7c0,0,0.1-1,0.5-2
								c1.2,0.3,2.5,0.6,3.9,0.7C68.1,88.3,67.9,89.4,67.5,89.4z M65.3,85.1c0.4-0.4,1-0.7,1.7-0.7c0,0,1,0,1.2,1.2
								C67.2,85.5,66.2,85.3,65.3,85.1z M67.6,83.7c-0.1,0-1.6,0.1-2.8,1.3c-0.7-0.2-1.3-0.3-1.7-0.5c0.1-0.2,0.2-0.4,0.3-0.6
								c0,0,1.9-2.3,5.3-1C68.7,82.9,68.5,83.5,67.6,83.7z M69.1,85.8c0.1-1.4,0.2-2.5,0.7-2.5c0,0,0.4,0,0.6,0.3
								c0.4,0.6,1.6,1.3,2.1,2.4C71.3,85.9,70.2,85.9,69.1,85.8z M74.5,86c0.5-1.1,1.7-1.8,2.1-2.4c0.2-0.3,0.6-0.3,0.6-0.3
								c0.5,0,0.6,1.1,0.7,2.5C76.9,85.9,75.7,85.9,74.5,86z M78.4,82.9c3.4-1.3,5.3,1,5.3,1c0.1,0.2,0.2,0.4,0.3,0.6
								c-0.5,0.1-1.1,0.3-1.7,0.5c-1.2-1.2-2.7-1.2-2.8-1.3C78.5,83.5,78.3,82.9,78.4,82.9z M80,84.4c0.7,0,1.3,0.3,1.7,0.7
								c-0.8,0.2-1.8,0.4-2.9,0.5C79,84.4,80,84.4,80,84.4z M79.5,89.4c-0.4-0.1-0.5-1.1-0.6-2c1.3-0.2,2.6-0.4,3.9-0.7
								c0.4,1,0.5,2,0.5,2C81.7,90.3,79.5,89.4,79.5,89.4z M83.9,88.2c-0.1-0.1-0.2-0.7-0.2-0.7c-0.1-0.3-0.2-0.6-0.3-0.9
								c0.4-0.1,0.7-0.2,1.1-0.3C84.4,87.3,83.9,88.2,83.9,88.2z"/>
						</g>
					</g>
				</g>
			</g>
		</g>
	</g>
	<g>
		<path class="st1" d="M118.7,65.1l-0.2-7.2h-0.1c-0.2,0.9-0.3,1.6-0.4,2l-1.2,5.1h-2.4l-1.2-5.1c-0.1-0.5-0.3-1.1-0.4-2h-0.1
			l-0.1,7.2h-1.5l0.3-8.5h2.8c0,0,0.9,4.3,1.4,7h0c0.6-2.7,1.7-7,1.7-7h2.8l0.3,8.5H118.7z"/>
		<path class="st1" d="M122.5,65.1v-5l-0.7-0.2v-1h2.3v6.2H122.5z M122.4,56.4h1.7v1.5h-1.7V56.4z"/>
		<path class="st1" d="M129.4,65.1v-3.7c0-0.9-0.4-1.4-1.1-1.4c-0.4,0-0.8,0.2-1.1,0.4v4.6h-1.6v-6.2h1.1l0.3,0.7
			c0.4-0.4,1-0.8,1.9-0.8c1.6,0,2.2,0.9,2.2,2.5v3.8H129.4z"/>
		<path class="st1" d="M132.9,65.1v-5l-0.7-0.2v-1h2.3v6.2H132.9z M132.9,56.4h1.7v1.5h-1.7V56.4z"/>
		<path class="st1" d="M137.5,60.6c0,1,2.7,0.7,2.7,2.7c0,1.1-0.8,2-2.4,2c-0.7,0-1.4-0.2-1.8-0.5l0.3-1.1c0.3,0.2,0.9,0.4,1.5,0.4
			c0.5,0,0.9-0.3,0.9-0.7c0-1.1-2.6-0.7-2.6-2.8c0-0.9,0.7-1.7,2.3-1.7c0.6,0,1.3,0.1,1.7,0.3l-0.2,1.2c-0.4-0.2-0.9-0.3-1.5-0.3
			C137.7,60,137.5,60.2,137.5,60.6z"/>
		<path class="st1" d="M143.7,65.2c-1.1,0-1.8-0.5-1.8-2.1v-3.1H141v-1.2h0.9v-1.1l1.6-0.5v1.6h1.6v1.2h-1.6v3
			c0,0.4,0.2,0.7,0.7,0.7c0.3,0,0.7-0.1,0.9-0.2l0.3,1.2C145,65,144.3,65.2,143.7,65.2z"/>
		<path class="st1" d="M147.5,62.4c0,1,0.6,1.5,1.6,1.5c0.6,0,1.3-0.2,1.8-0.5l0.3,1.2c-0.5,0.3-1.4,0.6-2.3,0.6c-1.9,0-3-1.2-3-3.2
			c0-1.9,0.9-3.2,2.9-3.2c1.9,0,2.6,1.4,2.6,2.9v0.7H147.5z M148.6,60c-0.8,0-1.2,0.7-1.2,1.5h2.2C149.7,60.7,149.5,60,148.6,60z"/>
		<path class="st1" d="M156.1,60.3c-0.2-0.1-0.5-0.1-0.8-0.1c-0.4,0-0.8,0.2-1.1,0.4v4.5h-1.6v-6.2h1.1l0.2,0.8h0
			c0.2-0.4,0.7-0.9,1.5-0.9c0.3,0,0.6,0.1,0.7,0.1L156.1,60.3z"/>
		<path class="st1" d="M157.5,65.1v-5l-0.7-0.2v-1h2.3v6.2H157.5z M157.5,56.4h1.7v1.5h-1.7V56.4z"/>
		<path class="st1" d="M166.2,62c0,2.1-1.1,3.2-2.9,3.2c-1.8,0-2.9-1.1-2.9-3.2c0-1.8,1-3.2,2.9-3.2C165.2,58.8,166.2,60.2,166.2,62
			z M164.5,62c0-1.5-0.4-2-1.2-2s-1.2,0.5-1.2,2c0,1.4,0.4,2,1.2,2C164.1,64,164.5,63.5,164.5,62z"/>
		<path class="st1" d="M174.2,59.4c-0.1-0.4-0.2-0.7-0.2-1.1v-1.9h1.6v8.7h-1.3l-0.2-0.7c-0.3,0.4-0.8,0.8-1.6,0.8
			c-1.4,0-2.5-1-2.5-3.2c0-2,1.2-3.2,2.6-3.2C173.3,58.8,173.8,59,174.2,59.4z M174,60.3c-0.3-0.2-0.6-0.3-1.1-0.3
			c-0.8,0-1.3,0.5-1.3,2c0,1.5,0.5,2,1.2,2c0.4,0,0.8-0.2,1.1-0.5V60.3z"/>
		<path class="st1" d="M178.5,62.4c0,1,0.6,1.5,1.6,1.5c0.6,0,1.3-0.2,1.8-0.5l0.3,1.2c-0.5,0.3-1.4,0.6-2.3,0.6c-1.9,0-3-1.2-3-3.2
			c0-1.9,0.9-3.2,2.9-3.2c1.9,0,2.6,1.4,2.6,2.9v0.7H178.5z M179.7,60c-0.8,0-1.2,0.7-1.2,1.5h2.2C180.8,60.7,180.6,60,179.7,60z"/>
		<path class="st1" d="M183.6,63.5v-7h1.6v6.9c0,0.5,0.3,0.6,1,0.6v1.2c0,0-0.5,0.1-0.9,0.1C184.1,65.2,183.6,64.5,183.6,63.5z"/>
		<path class="st1" d="M114.4,70.6v7.1h-1.7v-7.1h-2v-1.4h5.9v1.4H114.4z"/>
		<path class="st1" d="M119.8,72.9c-0.2-0.1-0.5-0.1-0.8-0.1c-0.4,0-0.8,0.2-1.1,0.4v4.5h-1.6v-6.2h1.1l0.2,0.8h0
			c0.2-0.4,0.7-0.9,1.5-0.9c0.3,0,0.6,0.1,0.7,0.1L119.8,72.9z"/>
		<path class="st1" d="M124.5,77.6l-0.2-0.7c-0.3,0.4-0.9,0.9-1.8,0.9c-1.2,0-2.1-0.8-2.1-2c0-1.1,0.8-1.8,2.3-1.8h1.3v-0.3
			c0-0.8-0.5-1-1.1-1c-0.7,0-1.3,0.2-1.8,0.4l-0.4-1.2c0.6-0.3,1.5-0.5,2.4-0.5c1.7,0,2.5,0.8,2.5,2.4v3.9H124.5z M124,74.9h-1
			c-0.7,0-1,0.3-1,0.8c0,0.6,0.3,0.9,0.9,0.9c0.4,0,0.8-0.2,1.1-0.4V74.9z"/>
		<path class="st1" d="M128.6,72.1c0.3-0.4,0.9-0.8,1.6-0.8c1.4,0,2.5,1,2.5,3.2c0,2.1-1.3,3.2-2.7,3.2c-0.9,0-1.4-0.3-1.8-0.9
			l-0.3,0.7H127V69h1.6v2.1L128.6,72.1z M128.7,75.9c0.3,0.3,0.7,0.6,1.1,0.6c0.7,0,1.2-0.5,1.2-2c0-1.5-0.5-2-1.2-2
			c-0.4,0-0.9,0.2-1.1,0.5V75.9z"/>
		<path class="st1" d="M137.7,77.6l-0.2-0.7c-0.3,0.4-0.9,0.9-1.8,0.9c-1.2,0-2.1-0.8-2.1-2c0-1.1,0.8-1.8,2.3-1.8h1.3v-0.3
			c0-0.8-0.5-1-1.1-1c-0.7,0-1.3,0.2-1.8,0.4l-0.4-1.2c0.6-0.3,1.5-0.5,2.4-0.5c1.7,0,2.5,0.8,2.5,2.4v3.9H137.7z M137.2,74.9h-1
			c-0.7,0-1,0.3-1,0.8c0,0.6,0.3,0.9,0.9,0.9c0.4,0,0.8-0.2,1.1-0.4V74.9z"/>
		<path class="st1" d="M142.4,77.7c0,1.7-0.8,2.2-1.9,2.2c-0.4,0-0.8-0.1-1.1-0.2l0.2-1.3c0.1,0.1,0.3,0.1,0.6,0.1
			c0.4,0,0.6-0.3,0.6-0.7v-5.2l-0.7-0.2v-1h2.3V77.7z M140.7,69h1.7v1.5h-1.7V69z"/>
		<path class="st1" d="M149.5,74.5c0,2.1-1.1,3.2-2.9,3.2c-1.8,0-2.9-1.1-2.9-3.2c0-1.8,1-3.2,2.9-3.2
			C148.5,71.4,149.5,72.7,149.5,74.5z M147.8,74.5c0-1.5-0.4-2-1.2-2c-0.8,0-1.2,0.5-1.2,2c0,1.4,0.4,2,1.2,2
			C147.4,76.6,147.8,76,147.8,74.5z"/>
		<path class="st1" d="M155.9,77.5l-1.1,0.2l-1.8-6.2h1.8l1.3,5.2h0l1.3-5.2h1.6l-1.9,6.3c-0.5,1.8-1.4,2.4-2.7,2.4
			c-0.7,0-1.5-0.4-1.7-0.6l0.5-1.1h0.2c0.1,0,0.6,0.4,1.1,0.4c0.7,0,1.1-0.5,1.3-1.2L155.9,77.5z"/>
		<path class="st1" d="M113.8,87.7h-0.9v2.9h-1.6v-8.5h2.6c1.7,0,3.2,0.8,3.2,2.6C117.1,86.5,115.8,87.7,113.8,87.7z M113.8,83.6
			h-0.9v2.8h0.9c1,0,1.5-0.6,1.5-1.5C115.3,84,114.8,83.6,113.8,83.6z"/>
		<path class="st1" d="M121.5,85.9c-0.2-0.1-0.5-0.1-0.8-0.1c-0.4,0-0.8,0.2-1.1,0.4v4.5H118v-6.2h1.1l0.2,0.8h0
			c0.2-0.4,0.7-0.9,1.5-0.9c0.3,0,0.6,0.1,0.7,0.1L121.5,85.9z"/>
		<path class="st1" d="M123.6,88c0,1,0.6,1.5,1.6,1.5c0.6,0,1.3-0.2,1.8-0.5l0.3,1.2c-0.5,0.3-1.4,0.6-2.3,0.6c-1.9,0-3-1.2-3-3.2
			c0-1.9,0.9-3.2,2.9-3.2c1.9,0,2.6,1.4,2.6,2.9V88H123.6z M124.8,85.6c-0.8,0-1.2,0.7-1.2,1.5h2.2
			C125.9,86.3,125.6,85.6,124.8,85.6z"/>
		<path class="st1" d="M132.3,90.7h-2.4l-1.8-6.2h1.8l1.3,5.2h0l1.3-5.2h1.7L132.3,90.7z"/>
		<path class="st1" d="M135.5,90.7v-5l-0.7-0.2v-1h2.3v6.2H135.5z M135.5,82h1.7v1.5h-1.7V82z"/>
		<path class="st1" d="M140,86.1c0,1,2.7,0.7,2.7,2.7c0,1.1-0.8,2-2.4,2c-0.7,0-1.4-0.2-1.8-0.5l0.3-1.1c0.3,0.2,0.9,0.4,1.5,0.4
			c0.5,0,0.9-0.3,0.9-0.7c0-1.1-2.6-0.7-2.6-2.8c0-0.9,0.7-1.7,2.3-1.7c0.6,0,1.3,0.1,1.7,0.3l-0.2,1.2c-0.4-0.2-0.9-0.3-1.5-0.3
			C140.3,85.6,140,85.8,140,86.1z"/>
		<path class="st1" d="M144.5,90.7v-5l-0.7-0.2v-1h2.3v6.2H144.5z M144.5,82h1.7v1.5h-1.7V82z"/>
		<path class="st1" d="M153.2,87.6c0,2.1-1.1,3.2-2.9,3.2c-1.8,0-2.9-1.1-2.9-3.2c0-1.8,1-3.2,2.9-3.2
			C152.1,84.4,153.2,85.8,153.2,87.6z M148.7,83.6l-0.2-0.9l3.2-0.9l0.2,1.2L148.7,83.6z M151.5,87.6c0-1.5-0.4-2-1.2-2
			c-0.8,0-1.2,0.5-1.2,2c0,1.4,0.4,2,1.2,2C151.1,89.6,151.5,89.1,151.5,87.6z"/>
		<path class="st1" d="M158.2,90.7V87c0-0.9-0.4-1.4-1.1-1.4c-0.4,0-0.8,0.2-1.1,0.4v4.6h-1.6v-6.2h1.1l0.3,0.7
			c0.4-0.4,1-0.8,1.9-0.8c1.6,0,2.2,0.9,2.2,2.5v3.8H158.2z"/>
		<path class="st1" d="M113.8,103.8c-1.1,0-2.1-0.4-2.8-0.9l0.6-1.3c0.5,0.4,1.4,0.8,2.2,0.8c0.8,0,1.3-0.5,1.3-1.1
			c0-1.8-3.9-0.9-3.9-3.9c0-1.3,1-2.3,3-2.3c1,0,1.8,0.2,2.5,0.6l-0.6,1.3c-0.5-0.3-1.2-0.5-2-0.5c-0.8,0-1.3,0.3-1.3,0.9
			c0,1.5,3.9,0.9,3.9,3.8C116.8,102.6,115.7,103.8,113.8,103.8z"/>
		<path class="st1" d="M123.6,100.6c0,2.1-1.1,3.2-2.9,3.2c-1.8,0-2.9-1.1-2.9-3.2c0-1.8,1-3.2,2.9-3.2
			C122.6,97.4,123.6,98.8,123.6,100.6z M121.9,100.6c0-1.5-0.4-2-1.2-2s-1.2,0.5-1.2,2c0,1.4,0.4,2,1.2,2
			C121.5,102.6,121.9,102.1,121.9,100.6z"/>
		<path class="st1" d="M129.7,103.3c-0.4,0.2-1.2,0.5-2.1,0.5c-1.8,0-2.9-1-2.9-3.2c0-2,1.1-3.2,2.9-3.2c0.8,0,1.5,0.2,2.1,0.5
			l-0.4,1.1c-0.4-0.3-1-0.4-1.5-0.4c-0.9,0-1.4,0.6-1.4,2c0,1.4,0.5,2,1.4,2c0.6,0,1.3-0.2,1.7-0.5L129.7,103.3z"/>
		<path class="st1" d="M131.3,103.7v-5l-0.7-0.2v-1h2.3v6.2H131.3z M131.3,95h1.7v1.5h-1.7V95z"/>
		<path class="st1" d="M138.2,103.7L138,103c-0.3,0.4-0.9,0.9-1.8,0.9c-1.2,0-2.1-0.8-2.1-2c0-1.1,0.8-1.8,2.3-1.8h1.3v-0.3
			c0-0.8-0.5-1-1.1-1c-0.7,0-1.3,0.2-1.8,0.4l-0.4-1.2c0.6-0.3,1.5-0.5,2.4-0.5c1.7,0,2.5,0.8,2.5,2.4v3.9H138.2z M137.8,101h-1
			c-0.7,0-1,0.3-1,0.8c0,0.6,0.3,0.9,0.9,0.9c0.4,0,0.8-0.2,1.1-0.4V101z"/>
		<path class="st1" d="M140.8,102.1v-7h1.6v6.9c0,0.5,0.3,0.6,1,0.6v1.2c0,0-0.5,0.1-0.9,0.1C141.2,103.8,140.8,103.2,140.8,102.1z"
			/>
	</g>
</g>
</svg>
