<?xml version="1.0" encoding="utf-8"?>
<!-- Generator: Adobe Illustrator 23.0.3, SVG Export Plug-In . SVG Version: 6.00 Build 0)  -->
<svg version="1.1" id="Capa_1" xmlns="http://www.w3.org/2000/svg" xmlns:xlink="http://www.w3.org/1999/xlink" x="0px" y="0px"
	 viewBox="0 0 236 236" style="enable-background:new 0 0 236 236;" xml:space="preserve">
<style type="text/css">
	.st0{fill:none;}
	.st1{fill:#1A1C20;}
</style>
<g>
	<rect class="st0" width="236" height="236"/>
	<g>
		<path class="st1" d="M116.3,179c-0.9,0.4-1.7,0.6-2.5,0.6c-2,0-2.9-1.4-2.9-3.5c0-2,1-3.4,3.1-3.4c1,0,1.7,0.2,2.2,0.6l-0.6,1
			c-0.4-0.2-0.9-0.4-1.6-0.4c-1.2,0-1.7,0.9-1.7,2.2c0,1.6,0.6,2.4,1.7,2.4c0.4,0,0.9-0.1,1.2-0.2V177h-0.9l-0.1-1h2.2L116.3,179
			L116.3,179z"/>
		<path class="st1" d="M121.7,177c0,1.7-0.8,2.5-2.3,2.5s-2.3-0.9-2.3-2.5c0-1.4,0.8-2.5,2.3-2.5C120.9,174.5,121.7,175.6,121.7,177
			 M120.3,177c0-1.2-0.3-1.6-1-1.6c-0.6,0-0.9,0.4-0.9,1.6c0,1.1,0.3,1.6,0.9,1.6C120,178.6,120.3,178.2,120.3,177"/>
		<path class="st1" d="M123.8,175.1c0.2-0.3,0.7-0.6,1.3-0.6c1.1,0,2,0.8,2,2.5s-1,2.5-2.1,2.5c-0.7,0-1.1-0.3-1.4-0.7l-0.2,0.6
			h-0.7v-6.8h1.3v1.7L123.8,175.1z M123.9,178.1c0.2,0.3,0.5,0.5,0.9,0.5c0.6,0,1-0.4,1-1.6c0-1.2-0.4-1.6-1-1.6
			c-0.3,0-0.7,0.2-0.9,0.4V178.1z"/>
		<path class="st1" d="M128.5,179.5v-3.9l-0.6-0.1v-0.8h1.8v4.9L128.5,179.5L128.5,179.5z M128.4,172.6h1.3v1.2h-1.3V172.6z"/>
		<path class="st1" d="M132.1,177.4c0,0.8,0.4,1.2,1.2,1.2c0.5,0,1-0.2,1.4-0.4l0.2,0.9c-0.4,0.2-1.1,0.5-1.8,0.5
			c-1.5,0-2.4-0.9-2.4-2.5c0-1.5,0.7-2.5,2.3-2.5c1.5,0,2.1,1.1,2.1,2.3v0.6h-3V177.4z M133,175.5c-0.6,0-0.9,0.6-0.9,1.2h1.8
			C133.8,176,133.6,175.5,133,175.5"/>
		<path class="st1" d="M138.8,175.7c-0.2,0-0.4-0.1-0.6-0.1c-0.3,0-0.7,0.1-0.9,0.3v3.5H136v-4.9h0.9c0,0.2,0.1,0.4,0.1,0.7l0,0
			c0.1-0.3,0.6-0.7,1.2-0.7c0.3,0,0.4,0,0.6,0.1C138.8,175,138.8,175.3,138.8,175.7"/>
		<path class="st1" d="M142.6,179.5v-2.9c0-0.7-0.3-1.1-0.9-1.1c-0.3,0-0.6,0.1-0.9,0.3v3.7h-1.3v-4.9h0.9l0.2,0.6
			c0.3-0.3,0.8-0.7,1.5-0.7c1.2,0,1.7,0.7,1.7,2v3L142.6,179.5L142.6,179.5z"/>
		<path class="st1" d="M149.3,177c0,1.7-0.8,2.5-2.3,2.5s-2.3-0.9-2.3-2.5c0-1.4,0.8-2.5,2.3-2.5S149.3,175.6,149.3,177 M148,177
			c0-1.2-0.3-1.6-1-1.6c-0.6,0-0.9,0.4-0.9,1.6c0,1.1,0.3,1.6,0.9,1.6C147.7,178.6,148,178.2,148,177"/>
		<path class="st1" d="M155.6,175c-0.1-0.3-0.1-0.5-0.1-0.9v-1.5h1.3v6.8h-1.1l-0.1-0.5c-0.2,0.3-0.7,0.6-1.3,0.6
			c-1.1,0-2-0.8-2-2.5c0-1.6,0.9-2.5,2.1-2.5C155,174.5,155.4,174.7,155.6,175 M155.5,175.7c-0.2-0.1-0.5-0.2-0.9-0.2
			c-0.6,0-1,0.4-1,1.5c0,1.2,0.4,1.6,1,1.6c0.3,0,0.7-0.2,0.9-0.4V175.7z"/>
		<path class="st1" d="M159.1,177.4c0,0.8,0.4,1.2,1.2,1.2c0.5,0,1-0.2,1.4-0.4l0.2,0.9c-0.4,0.2-1.1,0.5-1.8,0.5
			c-1.5,0-2.4-0.9-2.4-2.5c0-1.5,0.7-2.5,2.3-2.5c1.5,0,2.1,1.1,2.1,2.3v0.6h-3V177.4z M160,175.5c-0.6,0-0.9,0.6-0.9,1.2h1.8
			C160.9,176,160.7,175.5,160,175.5"/>
		<path class="st1" d="M168,179.6c-1.9,0-2.9-1.3-2.9-3.5c0-2.1,1-3.4,2.9-3.4c0.9,0,1.7,0.2,2.3,0.6l-0.5,1c-0.3-0.3-1-0.5-1.6-0.5
			c-1.1,0-1.7,0.8-1.7,2.3s0.6,2.4,1.6,2.4c0.7,0,1.3-0.3,1.8-0.6l0.4,1C169.7,179.3,168.9,179.6,168,179.6"/>
		<path class="st1" d="M171.2,179.5v-6.8h1.3v1.8c0,0.3-0.1,0.7-0.1,0.8c0.3-0.3,0.7-0.7,1.4-0.7c1.4,0,1.8,0.7,1.8,2v3h-1.3v-2.9
			c0-0.1,0-0.2-0.1-0.3c0-0.5-0.3-0.8-0.8-0.8c-0.3,0-0.6,0.1-0.9,0.3v3.7h-1.3V179.5z"/>
		<path class="st1" d="M177,179.5v-3.9l-0.6-0.1v-0.8h1.8v4.9L177,179.5L177,179.5z M177,172.6h1.3v1.2H177V172.6z"/>
		<path class="st1" d="M179.5,178.2v-5.6h1.3v5.5c0,0.4,0.2,0.5,0.8,0.5v0.9c0,0-0.4,0.1-0.7,0.1C179.8,179.6,179.5,179,179.5,178.2
			"/>
		<path class="st1" d="M183.5,177.4c0,0.8,0.4,1.2,1.2,1.2c0.5,0,1-0.2,1.4-0.4l0.2,0.9c-0.4,0.2-1,0.5-1.8,0.5
			c-1.5,0-2.4-0.9-2.4-2.5c0-1.5,0.7-2.5,2.3-2.5c1.5,0,2.1,1.1,2.1,2.3v0.6h-3V177.4z M184.4,175.5c-0.6,0-0.9,0.6-0.9,1.2h1.8
			C185.3,176,185.1,175.5,184.4,175.5"/>
	</g>
	<path class="st1" d="M193.3,47.1H42.7h-2.4v2.4v136.9v2.4h2.4h150.6h2.4v-2.4V49.5v-2.4H193.3z M42.7,49.5h60.5v136.9H42.7V49.5z
		 M193.3,186.5h-87.7V49.6h87.7V186.5z"/>
	<path class="st1" d="M74.9,68.3c0.1-0.1,0.4-0.4,0.2-0.8c-0.1-0.2-0.4-0.2-0.3-0.3c1.5-0.4,2.4-2.6,2.3-3.5
		c0.8,0.7,2.6,0.9,3.9-0.2c0.8-0.8,1.2-2.9-0.2-4c-0.7-0.5-2-0.6-2.8,0c-0.3-0.4-0.7-0.7-1.2-0.7c0-0.2,0-1.2-0.6-1.8
		c-0.8-0.8-2.9-0.9-3.7,0c-1.6-0.4-3.6,0.3-3.5,2.8c-1.1-0.4-1.7-0.4-2.3-0.4c-0.5,0.1-1.3,0.5-1.5,0.9c-0.1,0.1-0.2,0.4-0.3,0.5
		c-0.2,0.4-0.3,0.8-0.3,1.3c0.1,0.9,0.5,1.6,1.1,2c0.9,0.5,2,0.4,2.4,0.3c0.3-0.1,0.6-0.2,1-0.5c0.1-0.1,0.2-0.3,0.3-0.3
		c0,0.2-0.1,1.4,1.2,1.9c0,0.1,0,0.1,0,0.2c0.4,1.6,1.5,1.4,1.5,1.5c-0.5,0.3-0.3,0.7-0.2,0.9c0.7-0.2,1.3-0.3,1.5-0.3
		C73.6,68.1,74.1,68.1,74.9,68.3z"/>
	<path class="st1" d="M78.5,73.2c0-1.6,1.1-2.9,1.1-2.9c0.1-0.1,0.1-0.3,0.1-0.3c0-0.2-0.1-0.3-0.2-0.3c-0.3-0.2-1-0.6-1-0.6h-0.1
		h-0.1c-0.1,0-0.1,0-0.2,0.1c-0.2,0.1-0.6,0.4-1.2,0.4c-0.1,0-0.2,0-0.3,0c-0.3,0-0.9-0.3-0.9-0.3c-0.2-0.1-0.4-0.2-0.5-0.2l0,0
		c-0.9-0.4-1.7-0.4-1.9-0.4c-0.2,0-1,0-1.9,0.4l0,0c0,0-0.1,0.1-0.2,0.1l-0.5,0.3c-0.2,0.1-0.4,0.2-0.6,0.2c-0.1,0-0.2,0-0.3,0
		c-0.6,0-1-0.3-1.2-0.4c-0.1-0.1-0.2-0.1-0.2-0.1h-0.1l0,0c0,0-0.7,0.4-1,0.6c0,0-0.2,0.1-0.2,0.3c0,0.1,0,0.2,0.1,0.3
		c0,0.1,1.1,1.3,1.1,2.9c0,0.2,0.1,1.2-0.7,2.6c0,0.1-1,1.7,0,3.2c0,0,0.8,1.4,2.9,1.4c0.2,0,1.8,0,2.3,1.1c0,0,0.3,0.5,0.4,0.7
		l0.1,0.2l0.1-0.2c0.1-0.2,0.4-0.6,0.4-0.7c0.5-1,2.2-1.1,2.3-1.1c2.2,0,2.9-1.4,2.9-1.4c1-1.5,0.1-3.2,0.1-3.2
		C78.4,74.4,78.5,73.4,78.5,73.2z M77.7,73.2l-2.8,2l1.1,3.2l-2.7-2.1l-2.7,2.1l1.1-3.2l-2.8-2l0,0h3.5l1-3.2l1,3.2H77.7L77.7,73.2z
		"/>
	<path class="st1" d="M79.2,68.8c0.1,0,0.1,0.1,0.2,0.2C79.3,68.9,79.2,68.8,79.2,68.8z"/>
	<path class="st1" d="M80.2,69.6c-0.1-0.1-0.2-0.2-0.4-0.3C80,69.4,80.1,69.5,80.2,69.6L80.2,69.6z"/>
	<path class="st1" d="M79.5,69c0.1,0.1,0.2,0.2,0.3,0.3C79.7,69.2,79.6,69.1,79.5,69z"/>
	<path class="st1" d="M97.4,86.6c-0.4-0.4-1.3-0.2-1.3-0.2c0.5-1.5-0.9-1.9-0.9-1.9c-0.5-0.1-0.8,0-1,0.1l0,0l0,0c0,0-0.1,0-0.1,0.1
		c-0.1,0.1-0.2,0.3-0.2,0.5c0,0.4,0.3,0.7,0.7,0.7c0.2,0,0.3,0,0.4-0.1s0.2-0.3,0.3-0.4c0.2,0.1,0.3,0.3,0.3,0.3
		c0.4,1.3-1,1.7-1,1.7c-3.2,1-5.1-0.7-5.1-0.7l0.6-0.3c0.2-0.1,0.4-0.1,0.5-0.1v0.1c0,0.3,0.3,0.6,0.6,0.6c0.3,0,0.6-0.3,0.6-0.6
		c0-0.3-0.1-0.4-0.1-0.4c-0.4-0.6-1.7-0.2-1.7-0.2c0.4-1.1,0-1.8,0-1.8c-0.6-1.2-2-0.8-2-0.8c-0.5,0.1-0.6,0.6-0.6,0.6
		c-0.2,1,0.6,1,0.6,1c0.6,0,0.6-0.4,0.6-0.4c0.1-0.4-0.6-0.5-0.6-0.5c0.5-0.9,2.2,0.6,1.1,2c-0.1,0.1-0.2,0-0.2,0c-2-1-3-1.6-3.4-2
		c0-0.5-0.5-0.8-0.4-1c0.1,0,0.4,0.1,0.5-0.1c0.1-0.1,0.2-0.9,0.3-1.5c1.7,0.8,3.2,0.6,3.5,0.5c0.2-0.1,0.3-0.2,0.3-0.4
		c0-0.7-1.7-4.6-1.7-6c0.8,0.4,1.3-0.9,1.5-1.2c1.1,0.5,1.5,10.7,2.3,11c0.4,0.2,0.6-0.5,0.6-0.6c1.4-4.5,1.4-8.9,1.3-10.4
		c-0.1-2.3-0.3-4.4-0.9-6.3c-0.3-1.2-1-3.6-2.6-3.9c-0.7-0.2-1.3,0.5-1.3,1.1c0,0.5,0.4,0.8,0.2,1.3c-0.2,0.3-0.4,0.7-0.5,1.1
		s0.2,0.5,0.1,0.9c-0.5-0.1-0.7,0.4-1.5,0.2c0.5-0.2,0.5-1.7-0.1-1.9c-0.1,0-0.2-0.1-0.2-0.1s0.2-0.2,0.3-0.4
		c0.4-0.7,0.4-1.4,0.1-1.8c0.3,0,0.5-0.4,0.6-0.8l0,0l0,0l0,0c0-0.1,0-0.4,0.1-0.7c0-0.1,0-0.2-0.1-0.3c-0.1,0-0.2,0-0.3,0.1
		c-0.2,0.3-0.5,0.1-0.4-0.2c0-0.1,0-0.2-0.1-0.3c-0.1,0-0.2,0-0.3,0.1c-0.1,0.3-0.5,0.1-0.4-0.2c0-0.1,0-0.2-0.1-0.3
		c-0.1,0-0.2,0-0.3,0.1c-0.1,0.3-0.5,0.1-0.4-0.2c0-0.1,0-0.2-0.1-0.3c-0.1,0-0.2,0-0.3,0.1c-0.2,0.3-0.3,0.5-0.4,0.6
		c-0.3,0.1-0.3,0.5-0.2,0.7c-0.6-0.1-1.1,0.3-1.1,0.8h-0.1c-0.5,0-1,0.3-1,0.8c0,0.3,0.3,0.6,0.5,0.6c0.1,0,0-0.3,0.2-0.3
		c0.3,0,0.6,0.2,0.7,0.4c0.1,0.3-0.2,0.9,0.7,1c0,0,0,0.1,0,0.3c-0.3,0-0.4,0-0.7,0c-0.5,0.1-1.3,0.4-1.5,0.9c0,0.1-0.1,0.3,0,0.4
		c0,0.1,0.1,0.2,0.1,0.4c0,0.1-0.1,0.2-0.2,0.2c-0.2,0.2-0.6,0.5-1,0.5s-0.8-0.2-1-0.5c-0.5-0.7,0.2-2,0.2-2.5
		c0-1.3-1.6-0.5-2.3-0.2c-0.8,0.4-1.4,1-1.9,1.7c-0.3,0.3-0.6,0.8-0.7,1.1c0,0.1-0.1,0.1-0.2,0.1C76,68.8,76.5,69,77,69
		c0,0,0.9,0.1,1.5-0.4c0,0,0.1-0.1,0.2-0.1s0.2,0,0.2,0.1c0,0,0.1,0.1,0.2,0.2c0.1,0,0.1,0.1,0.2,0.2l0.1,0.1
		c0.1,0.1,0.2,0.2,0.3,0.3c0,0,0,0,0.1,0c0.1,0.1,0.2,0.2,0.4,0.3l0,0c0.1,0.1,0.3,0.2,0.3,0.2l0,0c0,0,0,0,0.1,0.1
		c0,0,0,0.1-0.1,0.2c0,0-0.1,0.1-0.2,0.2c-0.2,0.3-0.6,0.8-0.8,1.4c0.3,0.5,0.8,1.1,1.5,1.1c0.6,0,0.8-0.3,0.9-0.7l0,0
		c0.1-0.1,0.4,1.7,0.8,2.1c-0.4,0.2-1,0.8-0.7,2.5c-0.3-0.3-0.9-0.7-1.2-1c-0.2-0.4-0.5-1.2-1.5-1.3c0.1,0.4,0.3,0.9,0.6,1.4
		c0,0,0.6,1.1,0.4,2.3c0.4-0.4,0.3-1.5,0.3-1.5h0.1c0.1,0,0.5,0.8,1.2,0.9c0.9,1.5,1.9,2.5,2.9,3.2c0,0.4,0,1.3-0.2,1.3
		c-0.8,0.2-1.5-0.4-2.2-0.3c-0.1,0-0.1-0.1-0.1-0.1c-2.9-1.4-6.8,1.6-7.5,2.2c-0.3,0.3-0.7-0.1-0.7-0.1c-0.2-0.3-0.5-0.4-0.8-0.4
		s-0.6,0.1-0.8,0.4c0,0-0.4,0.4-0.7,0.1c-0.6-0.6-4.1-3.3-7-2.3c0-0.2-0.4-0.2-0.5-0.3c-0.2-0.1-0.4-0.2-0.6-0.3
		c-0.3-0.2-0.8-0.1-1.2-0.1c-0.1,0-0.3-0.1-0.5-0.2c-0.5-0.3-1-0.6-1.3-1c0-0.1-0.2-0.2-0.2-0.3c-0.1-0.2-0.2-0.3-0.3-0.6
		c-0.2-0.6,0.1-1.2,0.2-1.7c0.1-0.4,0-0.5,0.1-0.9c1.8-0.6,2.6-2,3-2.7c0-0.1,0.2-0.3,0.2-0.3c0.1,0,0.2,0,0.2,0
		c0.7,0,1.2-0.4,2-0.3c0,0,0.1,0.4,0.6,0.6c0,0.5,0.1,1,0.3,1.4c0,0.1,0.1,0.1,0.1,0.2c0.3-0.8,0.4-1.5,0.4-1.9c0,0,0-0.1-0.1-0.2
		c-0.2-0.9-0.6-1.1-1-1.4c-0.2-0.1-0.4-0.1-0.6-0.3c-0.3-0.2-0.6-0.4-0.8-0.8c0,0,0.1-0.1,0.2-0.2c0.5-0.5,0.8-1.3,0.9-2.2
		c0.4-0.5,1.5-0.3,1.9-0.2c0.1,0,0.3,0.1,0.4,0.1c0.1,0.1,0.1,0.3,0.3,0.3c0.2,0.1,0.4,0,0.6,0c0.1,0.1,0.1,0.2,0.2,0.3
		c0,0,0.1,0.1,0.2,0.2c0.5,0,1.2-0.3,1.5-0.4c0,0-0.1,0-0.1-0.1c-0.2-0.3-0.6-0.6-0.9-0.7c-0.4-0.1-0.5-0.4-0.9-0.5
		c-0.1,0-0.4-0.1-0.6,0c-0.9,0.1-1.5-0.2-2.3-0.3c-0.8-0.1-0.8,0.5-1.1,0.9c-0.1,0.2-0.2,0.3-0.3,0.5c-0.2,0.2-0.5,0.2-0.7,0.4
		L64,68.3c-0.1-0.3-0.2-0.5-0.3-0.8c-0.4-0.6-0.9-1.1-1.8-1.4c-0.2-0.1-0.2-0.1-0.3-0.2s0-0.3,0-0.3c0.3-0.2,0.7-0.1,1-0.2
		c0.7-0.3,0.5-1,0.2-1c-0.4-0.1-1-0.2-1.2-0.3c-0.2-0.1-0.5-0.7-0.8-0.8s-0.2-0.6-0.5-0.7c-0.1,0-0.3,0-0.5,0.1
		c0-0.1-0.1-0.7-0.4-0.9c-0.2-0.1-0.3,0.1-0.3,0.2c0,0.1,0.4,0.3,0.4,0.9c-0.1,0-0.1,0.1-0.2,0.1c0-0.2-0.2-0.6-0.4-0.7
		c-0.2-0.1-0.3,0.1-0.3,0.2c0,0.1,0.3,0.3,0.4,0.8c-0.1,0.1-0.1,0.1-0.2,0.2c-0.5-0.1-0.6-0.5-0.7-0.5c-0.1,0-0.4,0-0.2,0.3
		c0.1,0.3,0.5,0.4,0.7,0.5c-0.1,0.1-0.1,0.1-0.1,0.2c-0.6-0.1-0.7-0.5-0.8-0.5s-0.4,0-0.2,0.3c0.2,0.4,0.8,0.5,0.9,0.5
		c-0.1,0.2-0.2,0.3-0.1,0.4c-0.4-0.1-1.2,0.2-1.1,0.7c0.1,0.1,0.7-0.3,1.1-0.1c0.3,0.5,0.8,0.5,0.9,0.6c0.2,0.1,0.2,0.4,0.3,0.6
		c0.1,0.4,0.4,0.8,0.7,1.1c0.3,0.4,0.6,0.8,0.8,1.2c0,0.1,0.1,0.2,0,0.4c-0.3,0.5-1.3,1.1-1.7,1.5s-4.2,3.3-4.7,4.5
		c-0.1,0.3-0.2,0.6-0.2,1c-0.2,0.1-0.7,0.3-0.9,0.1c-0.3-0.4,0.3-0.7,0.2-1.1c-0.1-0.2-0.3-0.3-0.4-0.2c-0.9,0.7-0.5,1.9,0.1,2.2
		c0.7,0.3,0.8-0.4,1.3-0.1c0.1,0.1,1.3,1.1,1.1,2l-0.1,0.2c-0.3,0.3-0.7,0.6-1,0.9c-0.6,0.4,0.6,2.9,0.5,4.2
		c-0.1,0.5,0.4,0.4,0.7,1.2c-0.3,0-0.6,0.1-0.7,0.3c0,0-0.1,0.1-0.1,0.4s0.3,0.6,0.6,0.6s0.6-0.3,0.6-0.6v-0.1c0.1,0,0.3,0,0.5,0.1
		l0.6,0.3c0,0-1.9,1.6-5.1,0.7c0,0-1.4-0.5-1-1.7c0,0,0.1-0.2,0.3-0.3c0,0.2,0.1,0.3,0.3,0.4c0.1,0.1,0.3,0.1,0.4,0.1
		c0.4,0,0.7-0.3,0.7-0.7c0-0.2-0.1-0.4-0.2-0.5l-0.1-0.1l0,0l0,0c-0.2-0.1-0.5-0.2-1-0.1c0,0-1.4,0.4-0.9,1.9c0,0-0.9-0.2-1.3,0.2
		c0,0-0.1,0.1-0.1,0.4l0,0l0,0c0,0.1,0,0.2,0.1,0.3c0.1,0.1,0.3,0.2,0.4,0.2c0.2,0,0.3-0.1,0.4-0.2l0,0c0,0,0.2-0.1,0.3,0.1
		c2.1,2.2,5.5,1.3,7.4-0.2c0,0,1.1-1.1,2.2-1.7c0.5,0.2,0.9,0.3,1.4,0.5c0,0.7,0.1,1.7,0.9,2.8c0,0-0.5,1-1.4,0.4
		c0,0-0.7-0.5-0.1-1.1c0,0,0.4-0.3,0.5,0.1c-0.2,0-0.4,0.2-0.4,0.4c0,0.2,0.2,0.4,0.4,0.4s0.4-0.2,0.4-0.3c0-0.1,0-0.5-0.3-0.8
		c0,0-0.3-0.3-0.8-0.2c-0.8,0.1-1.2,1.8,0.3,2.5c0,0,1.2,0.6,1.9-0.4c0,0,0-0.1,0.2,0.1c1.3,1.3,4.2,0.9,5.4,0c0,0,0.3-0.2,0.6-0.3
		c0,0.5,0.4,0.9,0.9,0.9S71,90,71,89.5c0-0.4-0.3-0.8-0.8-0.9c0,0-0.6-0.2-1.5,0.3c0,0-0.9,0.6-0.8,0.5c0.3-0.5,0.5-1.1,0.6-1.8
		c1.3,0.1,2.6,0.2,3.9,0.3c0,0.4-0.1,0.9-0.2,1.2c0,0-0.5,0.2-0.5,0.5c0,0-0.1,0.2,0.4,0.6c0,0,0.3,0.3,0.4,0.6c0,0,0,0.4,0.5,0.4
		h0.1h0.1c0.5,0,0.5-0.4,0.5-0.4c0.1-0.3,0.4-0.6,0.4-0.6c0.4-0.3,0.4-0.6,0.4-0.6c0-0.3-0.5-0.5-0.5-0.5c-0.2-0.4-0.2-0.9-0.2-1.2
		c1.4,0,2.7-0.1,3.9-0.3c0.1,0.7,0.3,1.3,0.6,1.8c0.1,0.1-0.8-0.5-0.8-0.5c-0.9-0.5-1.4-0.3-1.5-0.3c-0.4,0.1-0.7,0.4-0.7,0.9
		s0.4,0.9,0.9,0.9s0.9-0.4,0.9-0.9c0.3,0.2,0.6,0.3,0.6,0.3c1.2,0.9,4.1,1.2,5.4,0c0.2-0.2,0.2-0.1,0.2-0.1c0.6,0.9,1.9,0.4,1.9,0.4
		c1.6-0.7,1.1-2.4,0.3-2.5c-0.5-0.1-0.8,0.2-0.8,0.2c-0.3,0.3-0.3,0.7-0.3,0.8c0,0.2,0.2,0.3,0.4,0.3c0.2,0,0.4-0.2,0.4-0.4
		c0-0.2-0.2-0.4-0.4-0.4c0.2-0.4,0.5-0.1,0.5-0.1c0.6,0.6-0.1,1.1-0.1,1.1c-0.9,0.5-1.4-0.4-1.4-0.4c0.8-1.1,0.9-2.1,0.9-2.8
		c0.5-0.2,1-0.3,1.4-0.5c1.2,0.7,2.2,1.7,2.2,1.7c1.9,1.5,5.3,2.4,7.4,0.2c0.2-0.2,0.3-0.1,0.3-0.1l0,0c0.1,0.1,0.3,0.2,0.4,0.2
		c0.2,0,0.3-0.1,0.4-0.2s0.1-0.2,0.1-0.3l0,0l0,0C97.5,86.7,97.4,86.6,97.4,86.6z M58.1,85.9c0,0-0.1,0.1-0.2,0
		c-1.1-1.4,0.6-2.9,1.1-2c0,0-0.6,0-0.6,0.5c0,0,0,0.5,0.6,0.4c0,0,0.8-0.1,0.6-1c0,0-0.1-0.4-0.6-0.6c0,0-1.4-0.4-2,0.8
		c0,0-0.1,0.3-0.1,0.7c-0.2-0.1-0.3-0.2-0.5-0.3c-0.3-0.3-0.7-2.5-0.4-3.6c2.1-0.4,2.8-2.2,2.9-2.7c0.4,0.1,0.7,0.6,0.7,0.9
		s-0.1,0.6,0.1,0.8c0.2,0.3,0.8,0.7,1.1,0.9c0.1,0.1,1.7,1.3,1.9,1.3s0.4-0.1,0.6-0.1c0.1,0,0.1,0.1,0.2,0.1c0,0,0.1,0.1,0.3,0.2
		c-0.4,0.3-0.9,0.7-1.7,1.3C62,83.6,61.5,84.3,58.1,85.9z M63.4,87.4c0,0-0.1,0.6-0.2,0.7c0,0-0.5-0.8-0.5-1.9
		c0.4,0.1,0.7,0.2,1.1,0.3C63.6,86.8,63.5,87.1,63.4,87.4z M67.6,89.4c0,0-2.2,0.9-3.8-0.7c0,0,0.1-1,0.5-2c1.2,0.3,2.5,0.6,3.9,0.7
		C68.1,88.3,67.9,89.4,67.6,89.4z M65.3,85.1c0.4-0.4,1-0.7,1.7-0.7c0,0,1,0,1.2,1.2C67.2,85.5,66.2,85.3,65.3,85.1z M67.6,83.7
		c-0.1,0-1.6,0.1-2.8,1.3c-0.7-0.2-1.3-0.3-1.7-0.5c0.1-0.2,0.2-0.4,0.3-0.6c0,0,1.9-2.3,5.3-1C68.7,82.9,68.5,83.5,67.6,83.7z
		 M69.1,85.7c0.1-1.4,0.2-2.5,0.7-2.5c0,0,0.4,0,0.6,0.3c0.4,0.6,1.6,1.3,2.1,2.4C71.3,85.9,70.2,85.9,69.1,85.7z M74.5,86
		c0.5-1.1,1.7-1.8,2.1-2.4c0.2-0.3,0.6-0.3,0.6-0.3c0.5,0,0.6,1.1,0.7,2.5C76.9,85.9,75.7,85.9,74.5,86z M78.4,82.9
		c3.4-1.3,5.3,1,5.3,1c0.1,0.2,0.2,0.4,0.3,0.6c-0.5,0.1-1.1,0.3-1.7,0.5c-1.2-1.2-2.7-1.2-2.8-1.3C78.5,83.5,78.3,82.9,78.4,82.9z
		 M80,84.4c0.7,0,1.3,0.3,1.7,0.7c-0.8,0.2-1.8,0.4-2.9,0.5C79,84.4,80,84.4,80,84.4z M79.5,89.4c-0.4-0.1-0.5-1.1-0.6-2
		c1.3-0.2,2.6-0.4,3.9-0.7c0.4,1,0.5,2,0.5,2C81.7,90.3,79.5,89.4,79.5,89.4z M83.9,88.2c-0.1-0.1-0.2-0.7-0.2-0.7
		c-0.1-0.3-0.2-0.6-0.3-0.9c0.4-0.1,0.7-0.2,1.1-0.3C84.4,87.3,83.9,88.2,83.9,88.2z"/>
	<g>
		<path class="st1" d="M118.7,71.9l-0.2-7.2l0,0c-0.2,0.9-0.3,1.6-0.4,2l-1.2,5.1h-2.4l-1.2-5.1c-0.1-0.5-0.3-1.1-0.4-2h-0.1
			l-0.1,7.2h-1.5l0.3-8.5h2.8c0,0,0.9,4.3,1.4,7l0,0c0.6-2.7,1.7-7,1.7-7h2.8l0.3,8.5H118.7z"/>
		<path class="st1" d="M122.5,71.9v-5l-0.7-0.2v-1h2.3v6.2H122.5z M122.4,63.3h1.7v1.5h-1.7V63.3z"/>
		<path class="st1" d="M129.4,71.9v-3.7c0-0.9-0.4-1.4-1.1-1.4c-0.4,0-0.8,0.2-1.1,0.4v4.6h-1.6v-6.2h1.1l0.3,0.7
			c0.4-0.4,1-0.8,1.9-0.8c1.6,0,2.2,0.9,2.2,2.5v3.8L129.4,71.9L129.4,71.9z"/>
		<path class="st1" d="M132.9,71.9v-5l-0.7-0.2v-1h2.3v6.2H132.9z M132.9,63.3h1.7v1.5h-1.7V63.3z"/>
		<path class="st1" d="M137.5,67.4c0,1,2.7,0.7,2.7,2.7c0,1.1-0.8,2-2.4,2c-0.7,0-1.4-0.2-1.8-0.5l0.3-1.1c0.3,0.2,0.9,0.4,1.5,0.4
			c0.5,0,0.9-0.3,0.9-0.7c0-1.1-2.6-0.7-2.6-2.8c0-0.9,0.7-1.7,2.3-1.7c0.6,0,1.3,0.1,1.7,0.3l-0.2,1.2c-0.4-0.2-0.9-0.3-1.5-0.3
			C137.7,66.8,137.5,67,137.5,67.4z"/>
		<path class="st1" d="M143.7,72c-1.1,0-1.8-0.5-1.8-2.1v-3.1H141v-1.2h0.9v-1.1l1.6-0.5v1.6h1.6v1.2h-1.6v3c0,0.4,0.2,0.7,0.7,0.7
			c0.3,0,0.7-0.1,0.9-0.2l0.3,1.2C145,71.8,144.3,72,143.7,72z"/>
		<path class="st1" d="M147.5,69.3c0,1,0.6,1.5,1.6,1.5c0.6,0,1.3-0.2,1.8-0.5l0.3,1.2c-0.5,0.3-1.4,0.6-2.3,0.6c-1.9,0-3-1.2-3-3.2
			c0-1.9,0.9-3.2,2.9-3.2c1.9,0,2.6,1.4,2.6,2.9v0.7H147.5z M148.6,66.8c-0.8,0-1.2,0.7-1.2,1.5h2.2
			C149.7,67.5,149.5,66.8,148.6,66.8z"/>
		<path class="st1" d="M156.1,67.1c-0.2-0.1-0.5-0.1-0.8-0.1c-0.4,0-0.8,0.2-1.1,0.4v4.5h-1.6v-6.2h1.1l0.2,0.8l0,0
			c0.2-0.4,0.7-0.9,1.5-0.9c0.3,0,0.6,0.1,0.7,0.1L156.1,67.1z"/>
		<path class="st1" d="M157.5,71.9v-5l-0.7-0.2v-1h2.3v6.2H157.5z M157.5,63.3h1.7v1.5h-1.7V63.3z"/>
		<path class="st1" d="M166.2,68.8c0,2.1-1.1,3.2-2.9,3.2c-1.8,0-2.9-1.1-2.9-3.2c0-1.8,1-3.2,2.9-3.2
			C165.2,65.6,166.2,67,166.2,68.8z M164.5,68.8c0-1.5-0.4-2-1.2-2s-1.2,0.5-1.2,2c0,1.4,0.4,2,1.2,2S164.5,70.3,164.5,68.8z"/>
		<path class="st1" d="M174.2,66.2c-0.1-0.4-0.2-0.7-0.2-1.1v-1.9h1.6v8.7h-1.3l-0.2-0.7c-0.3,0.4-0.8,0.8-1.6,0.8
			c-1.4,0-2.5-1-2.5-3.2c0-2,1.2-3.2,2.6-3.2C173.3,65.6,173.8,65.9,174.2,66.2z M174,67.2c-0.3-0.2-0.6-0.3-1.1-0.3
			c-0.8,0-1.3,0.5-1.3,2s0.5,2,1.2,2c0.4,0,0.8-0.2,1.1-0.5v-3.2H174z"/>
		<path class="st1" d="M178.5,69.3c0,1,0.6,1.5,1.6,1.5c0.6,0,1.3-0.2,1.8-0.5l0.3,1.2c-0.5,0.3-1.4,0.6-2.3,0.6c-1.9,0-3-1.2-3-3.2
			c0-1.9,0.9-3.2,2.9-3.2c1.9,0,2.6,1.4,2.6,2.9v0.7H178.5z M179.7,66.8c-0.8,0-1.2,0.7-1.2,1.5h2.2
			C180.8,67.5,180.5,66.8,179.7,66.8z"/>
		<path class="st1" d="M111.3,83.7v-8.5h5.2v1.4H113v2.1h2.7l-0.1,1.5H113v2.2h3.6v1.4L111.3,83.7L111.3,83.7z"/>
		<path class="st1" d="M121.3,78.1c-0.1-0.4-0.2-0.7-0.2-1.1v-1.9h1.6v8.7h-1.3l-0.2-0.7c-0.3,0.4-0.8,0.8-1.6,0.8
			c-1.4,0-2.5-1-2.5-3.2c0-2,1.2-3.2,2.6-3.2C120.4,77.5,120.9,77.7,121.3,78.1z M121.1,79c-0.3-0.2-0.6-0.3-1.1-0.3
			c-0.8,0-1.3,0.5-1.3,2s0.5,2,1.2,2c0.4,0,0.8-0.2,1.1-0.5V79H121.1z"/>
		<path class="st1" d="M128.5,83.7l-0.3-0.8c-0.3,0.4-0.9,0.9-1.9,0.9c-1.5,0-2.2-0.9-2.2-2.5v-3.7h1.6v3.7c0,0.9,0.3,1.3,1.1,1.3
			c0.4,0,0.8-0.2,1.1-0.4v-4.7h1.7v6.2H128.5z"/>
		<path class="st1" d="M135.9,83.3c-0.4,0.2-1.2,0.5-2.1,0.5c-1.8,0-2.9-1-2.9-3.2c0-2,1.1-3.2,2.9-3.2c0.8,0,1.5,0.2,2.1,0.5
			l-0.4,1.1c-0.4-0.3-1-0.4-1.5-0.4c-0.9,0-1.4,0.6-1.4,2s0.5,2,1.4,2c0.6,0,1.3-0.2,1.7-0.5L135.9,83.3z"/>
		<path class="st1" d="M140.7,83.7l-0.2-0.7c-0.3,0.4-0.9,0.9-1.8,0.9c-1.2,0-2.1-0.8-2.1-2c0-1.1,0.8-1.8,2.3-1.8h1.3v-0.3
			c0-0.8-0.5-1-1.1-1c-0.7,0-1.3,0.2-1.8,0.4l-0.4-1.2c0.6-0.3,1.5-0.5,2.4-0.5c1.7,0,2.5,0.8,2.5,2.4v3.9h-1.1V83.7z M140.3,81.1
			h-1c-0.7,0-1,0.3-1,0.8c0,0.6,0.3,0.9,0.9,0.9c0.4,0,0.8-0.2,1.1-0.4V81.1z"/>
		<path class="st1" d="M148.2,83.3c-0.4,0.2-1.2,0.5-2.1,0.5c-1.8,0-2.9-1-2.9-3.2c0-2,1.1-3.2,2.9-3.2c0.8,0,1.5,0.2,2.1,0.5
			l-0.4,1.1c-0.4-0.3-1-0.4-1.5-0.4c-0.9,0-1.4,0.6-1.4,2s0.5,2,1.4,2c0.6,0,1.3-0.2,1.7-0.5L148.2,83.3z"/>
		<path class="st1" d="M149.8,83.7v-5l-0.7-0.2v-1h2.3v6.2H149.8z M149.7,75.1h1.7v1.5h-1.7V75.1z"/>
		<path class="st1" d="M158.4,80.7c0,2.1-1.1,3.2-2.9,3.2c-1.8,0-2.9-1.1-2.9-3.2c0-1.8,1-3.2,2.9-3.2S158.4,78.9,158.4,80.7z
			 M154,76.6l-0.2-0.9l3.2-0.9l0.2,1.2L154,76.6z M156.8,80.7c0-1.5-0.4-2-1.2-2s-1.2,0.5-1.2,2c0,1.4,0.4,2,1.2,2
			S156.8,82.1,156.8,80.7z"/>
		<path class="st1" d="M163.5,83.7V80c0-0.9-0.4-1.4-1.1-1.4c-0.4,0-0.8,0.2-1.1,0.4v4.6h-1.6v-6.2h1.1l0.3,0.7
			c0.4-0.4,1-0.8,1.9-0.8c1.6,0,2.2,0.9,2.2,2.5v3.8L163.5,83.7L163.5,83.7z"/>
	</g>
</g>
</svg>
