<?xml version="1.0" encoding="utf-8"?>
<!-- Generator: Adobe Illustrator 23.0.3, SVG Export Plug-In . SVG Version: 6.00 Build 0)  -->
<svg version="1.1" id="Capa_1" xmlns="http://www.w3.org/2000/svg" xmlns:xlink="http://www.w3.org/1999/xlink" x="0px" y="0px"
	 viewBox="0 0 236 236" style="enable-background:new 0 0 236 236;" xml:space="preserve">
<style type="text/css">
	.st0{fill:none;}
	.st1{fill:#1A1C20;}
</style>
<g>
	<rect class="st0" width="236" height="236"/>
	<g>
		<path class="st1" d="M98.7,131.5c-0.7,0.2-1.2,0.2-1.8,0.2c-1.1,0-2.2,0-3.3,0c-0.8,0-1.4-0.2-2.2,0c-0.4,0.1-0.8-0.2-1-0.7
			c-0.4-0.8-0.9-1.7-1.4-2.5c-0.4-0.6-0.7-1.2-1.1-1.8c-0.6-1-1.2-2-1.8-3c-0.2-0.4-0.5-0.8-0.6-1.1c-0.1-0.2-0.2-0.3-0.5-0.3
			c-1.1,0-2.2,0-3.3,0c-0.5,0-0.7,0.2-0.7,0.6c0,0.2,0,0.4,0,0.5c0,2,0,3.9,0.1,5.8c0,0.5,0,1.1-0.1,1.6c-0.1,0.3,0.1,0.6-0.2,0.8
			c-0.2,0.3-0.5-0.1-0.8-0.1c-0.5-0.1-1.1,0.1-1.7,0.1c-1-0.1-2,0-2.9,0c-0.2,0-0.4,0-0.5,0c-0.2,0-0.4,0.2-0.6,0.1
			c-0.3-0.2-0.2-0.5-0.2-0.8c0-1.7,0-3.5,0-5.2c0-2.2-0.1-4.4-0.1-6.6c0-0.5,0-1.1,0.1-1.6s0.1-0.9,0.1-1.4c0-2.2-0.1-4.3-0.1-6.5
			c0-1.1,0-2.1,0-3.2c0-0.2,0-0.3,0-0.5s0.2-0.3,0.3-0.4c0.2,0,0.3,0,0.5,0c4.2,0,8.4,0,12.6,0c0.6,0,1.3,0,1.9,0.1
			c0.2,0,0.4,0,0.5,0.1c0.5,0.3,1.1,0.4,1.7,0.4c0.9,0,1.6,0.4,2.3,0.9c1.2,0.8,2.1,2,2.6,3.4c0.4,1.1,0.7,2.3,0.7,3.6
			c0,1-0.2,2-0.5,2.9c-0.4,1.2-1.1,2.3-2,3.2c-0.2,0.2-0.6,0.5-0.8,0.7c-0.3,0.3-0.8,0.3-0.8,0.7c0,0.3,0.3,0.7,0.5,1.1
			c0.4,0.6,0.8,1.2,1.1,1.8c1.3,2,2.5,4.1,3.6,6.2C98.2,130.8,98.4,131.1,98.7,131.5z M84.8,116.1L84.8,116.1c0.7,0,1.4,0,2.1,0
			c0.3,0,0.7-0.1,1,0c0.7,0.1,1.1-0.3,1.4-0.7c0.5-0.4,0.3-2.2-0.1-2.6c-0.2-0.2-0.5-0.3-0.8-0.3c-0.5-0.1-1.1-0.1-1.7-0.2
			c-0.7-0.2-1.4-0.2-2.1-0.2c-0.3,0-0.6,0-1,0c-0.8,0-1.6,0-2.3,0c-0.2,0-0.4,0.2-0.4,0.4c0,1,0,2,0.1,2.9c0,0.5,0.1,0.6,0.7,0.6
			C82.8,116.1,83.8,116.1,84.8,116.1z"/>
		<path class="st1" d="M160.7,118.7c0-4,0-7.9,0-11.9c0-1-0.1-1,0.9-1c4.1,0,8.1,0,12.2,0c1.4,0,2.8,0.2,4.2,0.4
			c2.6,0.4,4.2,2,5.1,4.3c0.7,1.8,0.8,3.6,0.5,5.5c-0.2,1.2-0.8,2.2-1.5,3.2c-0.6,0.8-1.4,1.4-2.3,1.9c-0.4,0.2-0.4,0.2-0.2,0.7
			c1,1.7,2,3.3,2.9,4.9c0.9,1.5,1.8,3,2.7,4.6c0.2,0.5,0.2,0.5-0.3,0.5c-2.3,0-4.5,0-6.8,0c-0.4,0-0.6-0.1-0.8-0.5
			c-0.3-0.6-0.7-1.2-1-1.7c-1.2-2.1-2.5-4.3-3.7-6.4c-0.1-0.2-0.2-0.4-0.4-0.5c-0.1-0.2-0.2-0.2-0.5-0.2c-1.2,0-2.5,0-3.7,0
			c-0.2,0-0.4,0.2-0.4,0.5c0,2.6,0,5.1,0,7.6c0,1.4,0.1,1.3-1.2,1.3c-1.7,0-3.3,0-4.9,0c-0.2,0-0.5,0-0.6,0c-0.2,0-0.2-0.2-0.3-0.3
			c0-0.4,0-0.7,0-1.1C160.7,126.5,160.7,122.7,160.7,118.7L160.7,118.7z M171.3,112.1L171.3,112.1c-0.6,0-1.3,0-1.9,0
			c-0.5,0-1.1-0.1-1.6,0.1c-0.3,0.5-0.1,1.1-0.2,1.7c-0.1,0.6,0,1.3,0,1.9c0,0.2,0.1,0.4,0.4,0.5c0.2,0,0.4,0,0.5,0
			c1.1,0,2.1,0,3.2,0c0.9,0,1.7,0,2.6-0.1c1.8-0.2,2.1-0.9,2-2.5c0-0.1,0-0.2,0-0.2c-0.2-0.5-0.4-1-1.1-1.1
			c-0.4-0.1-0.7-0.2-1.1-0.2C173.3,112.1,172.3,112.1,171.3,112.1z"/>
		<path class="st1" d="M208.6,118.7c0-4,0-8,0-12c0-0.2,0-0.4,0-0.5c0-0.2,0.2-0.3,0.4-0.3c0.1,0,0.2,0,0.2,0c4.2,0,8.4,0,12.6,0.1
			c1.6,0,3.1,0.3,4.6,0.9c2.4,0.9,4.2,2.6,5.4,4.8c1,1.8,1.4,3.9,1.4,5.9s-0.1,4.1-0.4,6.1c-0.3,2-1.1,3.6-2.6,4.9
			c-1.3,1.1-2.6,2-4.2,2.6c-0.8,0.3-1.7,0.4-2.5,0.5c-1.1,0.2-2.3,0.2-3.5,0.2c-3.3,0-6.7,0-10,0c-0.1,0-0.2,0-0.3,0
			c-0.7,0-0.8,0-0.8-0.8C208.6,126.9,208.6,122.8,208.6,118.7L208.6,118.7z M218.9,112L218.9,112c-0.4,0-0.8,0-1.1,0
			c-0.5,0-1,0-1.5,0s-0.5,0.1-0.5,0.5c0,0.2,0,0.5,0,0.8c0,1.3,0,2.6,0,3.9c0,2.6,0,5.1,0,7.8c0,0.6,0.1,0.7,0.7,0.7
			c1.7,0,3.4,0,5.1,0c0.3,0,0.6-0.1,1-0.1c1.1-0.2,1.9-0.8,2.3-1.8c0.5-1,0.6-2,0.7-3.1c0.1-1.7,0.1-3.3-0.2-5
			c-0.2-0.8-0.4-1.5-0.7-2.2s-0.8-1.1-1.5-1.2c-0.6-0.2-1.3-0.2-1.9-0.2C220.4,112,219.7,112,218.9,112z"/>
		<path class="st1" d="M112.5,115.5c2,0,4,0,6,0c0.9,0,0.9,0,0.9,0.9c0,1.6,0.1,3.1,0.1,4.7c0,0.5-0.1,0.5-0.5,0.6c-0.3,0-0.6,0-1,0
			c-3.7,0-7.4,0-11.1,0c-0.1,0-0.2,0-0.3,0c-1.3,0-1.1,0.1-1,1.2c0.1,0.8,0.5,1.4,1.1,1.7c0.6,0.5,1.2,0.7,2,0.8
			c3.3,0.1,6.5-0.1,9.8,0c0.1,0,0.2,0,0.3,0c0.5,0,0.6,0.2,0.7,0.6c0.1,1.7,0.1,3.3-0.1,5c0,0.5-0.1,0.6-0.5,0.6
			c-0.5,0-1.1,0.1-1.7,0c-2.3,0-4.7-0.1-7,0.1c-1.3-0.2-2.6-0.2-3.9-0.2c-0.2,0-0.5-0.1-0.6-0.2c-1.1-0.4-2.3-0.8-3.3-1.4
			c-0.6-0.4-1.1-0.9-1.6-1.4c-1.7-1.7-2.6-3.9-3-6.2c-0.2-1.1-0.3-2.2-0.2-3.3c0.2-1.7,0.2-3.3,0.6-4.9c0.5-1.7,1.1-3.3,2.1-4.6
			c0.7-0.9,1.6-1.7,2.6-2.3c0.5-0.3,1.1-0.8,1.7-0.7c0.9-0.6,2-0.4,2.9-0.7c1-0.2,2-0.2,3.1-0.2c2.6,0,5.2,0,7.8-0.1
			c1.1,0,1.1,0.1,1,1.1c-0.1,0.7,0.1,1.4,0.1,2.1c-0.1,0.8-0.2,1.5-0.1,2.3c0.1,0.5-0.2,0.8-0.7,0.8c-2.9,0-5.9,0-8.8,0
			c-0.6,0-1.2,0-1.7,0.3c-0.5,0.2-0.9,0.3-1.3,0.6c-0.5,0.5-1,1.1-1.2,1.8c-0.2,0.8-0.2,0.8,0.5,0.8
			C108.3,115.5,110.5,115.5,112.5,115.5L112.5,115.5z"/>
		<path class="st1" d="M192.2,121.8c-0.1,1.6,0.6,2.8,2,3.6c0.2,0.2,0.5,0.2,0.8,0.2c0.5,0,0.9,0.1,1.4,0.1c3.1,0,6.2,0,9.3,0
			c0.5,0,0.5,0,0.5,0.5c0,1.7,0,3.5,0,5.2c0,0.5-0.1,0.5-0.5,0.5c-1.4,0-2.8,0-4.2,0c-2.5,0-5.1,0-7.6-0.2c-3.2-0.2-5.7-1.7-7.4-4.4
			c-0.9-1.4-1.5-2.8-1.9-4.4c-0.3-1.3-0.4-2.6-0.3-4c0-0.8,0.1-1.6,0.2-2.3c0.2-1.9,0.7-3.7,1.5-5.4c1.2-2.3,2.9-3.8,5.4-4.5
			c1.5-0.5,3.1-0.7,4.7-0.8c1.8-0.1,3.6,0,5.4,0c1.2,0,2.5,0,3.7,0c0.2,0,0.5,0,0.8,0c0.2,0.6,0.1,1.2,0.1,1.8c0,1.2,0,2.5,0,3.7
			c0,0.5-0.1,0.6-0.6,0.6c-2.6,0-5.3,0-7.9,0c-0.5,0-0.9,0-1.4,0c-0.8,0-1.4,0.2-2,0.5c-1.1,0.5-1.7,1.5-2,2.6
			c-0.1,0.2,0.1,0.4,0.2,0.4c0.3,0,0.6,0,0.8,0c4.2,0,8.2,0,12.4,0c0.3,0,0.5,0.1,0.5,0.3c0,1.7,0,3.6,0,5.3c0,0.5-0.1,0.5-0.5,0.5
			c-0.6,0-1.1,0-1.7,0c-3.6,0-7.1,0-10.7,0C192.9,121.7,192.6,121.7,192.2,121.8z"/>
		<path class="st1" d="M49.6,119.2c0-2.9,0-5.8,0-8.8c0-1.4,0.1-2.7-0.1-4c0-0.1,0-0.2,0-0.2c0-0.3,0.2-0.5,0.5-0.5
			c0.5,0,0.8-0.1,1.3-0.1c2.4,0,4.8,0,7.3,0c1.9,0,3.8,0,5.7,0.1c0.1,0,0.2-0.1,0.3,0c0.7,0.4,1.4,0.2,2,0.4
			c0.5,0.1,0.9,0.1,1.3,0.5c0.1,0.1,0.2,0.1,0.2,0.1c0.7-0.1,1.1,0.4,1.6,0.7c0.5,0.3,1,0.8,1.4,1.2c1,1.1,1.4,2.4,1.8,3.8
			c0,0.1,0.1,0.2,0.1,0.3c0,1,0.1,1.9,0.1,2.9c0,1.2-0.5,2.3-1,3.3c-0.4,0.8-0.8,1.4-1.4,2c-0.8,0.8-1.6,1.3-2.5,1.7
			c-0.3,0.2-0.6,0.2-0.9,0.2c-0.5,0.1-0.8,0.2-1.2,0.3c-0.4,0.2-0.8,0.2-1.1,0.2c-2.3,0-4.5,0-6.8,0c-0.2,0-0.5,0-0.8,0
			c-0.5,0-0.6,0.2-0.6,0.7c-0.1,1.6-0.1,3.1-0.2,4.7c0,0.8,0.1,1.7,0.1,2.4c0,0.5-0.2,0.7-0.8,0.7c-1.4,0-2.9-0.1-4.4,0
			c-0.5,0-1.1-0.2-1.7-0.1c-0.2,0-0.2-0.2-0.3-0.3c0-0.4-0.1-0.8-0.1-1.1C49.6,126.5,49.6,122.9,49.6,119.2L49.6,119.2z M60.2,116
			C60.2,116,60.2,116.1,60.2,116c0.6,0,1.2,0,1.8,0c0.5,0,0.9,0,1.4,0c1.4-0.1,2-0.8,1.9-2.3c0-0.2,0-0.3-0.1-0.5
			c-0.2-0.6-0.5-0.9-1.2-1c-0.5-0.1-0.8-0.1-1.3-0.2c-0.7-0.2-1.4-0.2-2.1-0.2c-0.8,0.1-1.6-0.2-2.3,0.1c-0.2,0-0.3-0.1-0.4-0.1
			c-0.2,0-0.5-0.1-0.6-0.1c-0.3,0-0.6,0.2-0.5,0.5c0.1,1-0.2,2,0,2.9c0.1,0.4,0.1,0.5,0.5,0.5C58.3,116.1,59.3,116,60.2,116z"/>
		<path class="st1" d="M124.6,105.7c1.1,0,2.2,0,3.3,0c0.4,0,0.6,0.1,0.8,0.5c0.3,0.8,0.7,1.7,1,2.5c0.5,1.4,1.1,2.6,1.7,4
			c0.6,1.5,1.2,3,1.9,4.5c0.5,1.1,0.9,2.1,1.4,3.3c0.1,0.2,0.2,0.5,0.3,0.8c0.1,0.2,0,0.4,0.2,0.4s0.2-0.2,0.3-0.4
			c0.5-1.3,1.1-2.5,1.7-3.8c0.7-1.7,1.4-3.3,2.2-5.1c0.8-1.7,1.5-3.6,2.2-5.3c0.1-0.2,0.2-0.5,0.2-0.8c0.2-0.4,0.4-0.6,0.8-0.5
			c0.5,0,0.9,0,1.4,0c1.7,0,3.4,0,5.1,0c0.4,0,0.5,0.2,0.4,0.5c-0.1,0.2-0.2,0.5-0.3,0.7c-0.2,0.4-0.4,0.8-0.5,1.1
			c-0.9,2.1-1.8,4.2-2.6,6.4c-1,2.3-1.9,4.5-2.8,6.7c-0.6,1.4-1.2,2.8-1.8,4.2c-0.6,1.4-1.1,2.8-1.7,4.2c-0.2,0.6-0.5,1.1-0.8,1.7
			c-0.2,0.3-0.3,0.4-0.6,0.4c-1.5-0.1-2.9-0.1-4.5,0c-0.5,0-1.1-0.2-1.6-0.1c-0.2,0-0.2-0.2-0.3-0.2c-0.8-1.7-1.4-3.5-2.2-5.1
			c-0.4-0.9-0.8-1.7-1.1-2.6c-0.2-0.4-0.4-0.8-0.5-1.1c-1-2-1.8-4.2-2.8-6.2c-0.7-1.4-1.2-2.8-1.8-4.2c-0.2-0.3-0.3-0.6-0.4-0.8
			c-0.8-1.5-1.3-3.2-2.1-4.6c-0.1-0.2-0.1-0.3-0.1-0.5s0.1-0.3,0.3-0.4c0.2,0,0.4,0,0.5,0C122.6,105.7,123.6,105.7,124.6,105.7
			L124.6,105.7z"/>
		<path class="st1" d="M43.1,119.2c0,4-1.7,8.4-5.1,12.1c-2.1,2.3-4.6,4.1-7.6,5.2c-3,1.2-6.1,1.7-9.4,1.4c-2-0.2-3.9-0.7-5.7-1.4
			c-2.1-0.8-4.1-2-5.7-3.6c-2.5-2.2-4.4-4.8-5.5-7.9c-0.5-1.3-0.8-2.6-1-3.9c-0.2-1.4-0.3-2.8-0.2-4.2c0.2-2.6,0.8-5.1,1.9-7.3
			c2-4.2,5.1-7.3,9.3-9.3c1.4-0.7,2.8-1.1,4.3-1.5c2.6-0.7,5.3-0.7,7.9-0.3c2.6,0.4,5,1.3,7.3,2.6c0.9,0.6,1.8,1.1,2.6,1.8
			c2.6,2.2,4.5,4.8,5.7,7.9C42.7,113.2,43,115.6,43.1,119.2z M23.2,136.3c1-0.1,2.1-0.1,3.3-0.4c1.4-0.3,2.8-0.8,4.2-1.4
			c3.2-1.4,5.7-3.6,7.6-6.5c1.3-2,2.3-4,2.6-6.4c0.6-3.1,0.5-6.1-0.5-9.2c-0.6-1.8-1.4-3.6-2.5-5.1c-1.4-2-3.3-3.7-5.4-5.1
			c-2.4-1.5-5.1-2.4-8-2.6c-1.2-0.2-2.4-0.1-3.6,0c-1.6,0.1-3.1,0.5-4.5,1c-2.3,0.8-4.5,2.1-6.3,3.9c-2.9,2.8-4.8,6.1-5.6,10.1
			c-0.5,3.2-0.3,6.4,0.8,9.5c1.6,4.2,4.3,7.4,8.2,9.7C16.6,135.6,19.7,136.4,23.2,136.3z"/>
		<path class="st1" d="M151.5,118.6c0-2.7,0-5.4,0-8.2c0-1.4,0-2.8,0-4.2c0-0.3,0.2-0.5,0.5-0.5c0.2,0,0.3,0,0.5,0
			c1.8,0,3.6,0,5.4,0c0.2,0,0.3,0,0.5,0c0.6,0.1,0.7,0.1,0.7,0.7c0,0.7,0.1,1.4,0.1,2.1c0,6.7,0,13.5,0,20.1c0,0.8,0,1.7,0,2.6
			c0,0.3-0.1,0.5-0.5,0.5c-1.2,0-2.4,0-3.6,0c-1,0-1.9,0-2.9,0c-0.4,0-0.5-0.1-0.5-0.4c0-0.3-0.1-0.6-0.1-1
			C151.4,126.4,151.4,122.5,151.5,118.6C151.4,118.6,151.5,118.6,151.5,118.6z"/>
		<path class="st1" d="M25.4,132.8c-1.1,0.2-2.5-0.9-2.6-2.5c0-1.4,1-2.6,2.6-2.6c1.4,0,2.5,1.1,2.5,2.6
			C28.1,131.8,26.8,132.8,25.4,132.8z"/>
		<path class="st1" d="M10.5,115.7c1.4,0,2.7,1.2,2.6,2.6c-0.1,1.4-1.1,2.4-2.6,2.5c-1.4,0.1-2.6-1.2-2.6-2.6
			C8,116.8,9.3,115.7,10.5,115.7z"/>
		<path class="st1" d="M25.4,108.4c-1.4,0-2.6-1.3-2.6-2.6s1.2-2.5,2.6-2.4c1.7,0.1,2.6,1.3,2.6,2.6C28,107.6,26.7,108.5,25.4,108.4
			z"/>
		<path class="st1" d="M37.8,118.3c0.2,1.2-1.1,2.6-2.6,2.5c-1.6-0.1-2.5-1.2-2.6-2.6c0-1.3,1.2-2.6,2.5-2.5
			C36.7,115.8,37.8,116.8,37.8,118.3z"/>
		<path class="st1" d="M27,115.8c1.5,0,2.6,1.2,2.6,2.6s-1.2,2.5-2.6,2.5s-2.6-1.2-2.6-2.6C24.5,116.8,25.6,115.7,27,115.8z"/>
		<path class="st1" d="M31,121.7c1.3-0.1,2.5,1.2,2.4,2.6c-0.1,1.3-1.2,2.4-2.6,2.4c-1.5,0-2.6-1.3-2.6-2.7
			C28.3,122.7,29.6,121.7,31,121.7z"/>
		<path class="st1" d="M16.2,118.3c0-1.4,1.1-2.6,2.6-2.6c1.4,0,2.5,0.9,2.6,2.5c0.1,1.4-1.3,2.6-2.7,2.6
			C17.4,120.8,16.2,119.6,16.2,118.3z"/>
		<path class="st1" d="M30.9,114.2c-1.7,0.1-2.5-1.2-2.6-2.5c-0.1-1.4,1.2-2.6,2.6-2.6s2.6,1.2,2.6,2.7
			C33.5,113,32.3,114.3,30.9,114.2z"/>
	</g>
</g>
</svg>
