<?xml version="1.0" encoding="utf-8"?>
<!-- Generator: Adobe Illustrator 23.0.3, SVG Export Plug-In . SVG Version: 6.00 Build 0)  -->
<svg version="1.1" id="Capa_1" xmlns="http://www.w3.org/2000/svg" xmlns:xlink="http://www.w3.org/1999/xlink" x="0px" y="0px"
	 viewBox="0 0 236 236" style="enable-background:new 0 0 236 236;" xml:space="preserve">
<style type="text/css">
	.st0{fill:none;}
	.st1{fill:#1A1C20;}
</style>
<rect x="0" y="0" class="st0" width="236" height="236"/>
<g>
	<rect x="64.2" y="104.2" class="st1" width="15.8" height="47.4"/>
	<path class="st1" d="M64.3,92.3c0-4.4,3.5-7.9,7.9-7.9s7.9,3.5,7.9,7.9c0,4.4-3.5,7.9-7.9,7.9S64.3,96.7,64.3,92.3"/>
	<rect x="87.9" y="104.2" class="st1" width="15.8" height="47.4"/>
	<path class="st1" d="M87.9,92.3c0-4.4,3.5-7.9,7.9-7.9c4.4,0,7.9,3.5,7.9,7.9c0,4.4-3.5,7.9-7.9,7.9
		C91.5,100.3,87.9,96.7,87.9,92.3"/>
	<rect x="40.6" y="84.4" class="st1" width="15.8" height="15.8"/>
	<path class="st1" d="M26.9,100.3h13.6c0,0-0.4,1.1-0.4,2.7c0,2,0.7,4.1,2.7,6.1c5.4,5.4,7.8,7.2,11.5,11.9
		c2.1,2.6,3.4,6.4,3.4,10.9c0,6.4-2.9,11.5-6.2,14.5c-3.4,3-8.1,5-12.4,5c-3.5,0-7.5-0.8-10-2c-3.1-1.6-4.6-2.6-4.6-2.6v-13.5
		c0,0,1.4,1.2,4.1,2.7c1.9,1.1,3.9,1.9,6.9,2.1c2.5,0.2,5-0.3,6.7-2.1c1.4-1.5,1.5-3.4,1.5-4.8c0-1.5-0.5-2.7-1.1-3.9
		c-3.2-5.7-11.2-9.6-14.3-15.2C25.7,107.5,26.9,100.3,26.9,100.3"/>
	<path class="st1" d="M128.8,101.3v2.5c-1.7-0.8-3.1-1.2-4.1-1.2c-0.6,0-1,0.1-1.4,0.3c-0.3,0.2-0.5,0.4-0.5,0.8
		c0,0.2,0.1,0.5,0.4,0.7c0.2,0.2,0.8,0.5,1.8,0.9c0.9,0.4,1.7,0.7,2.3,1c0.6,0.3,1.1,0.7,1.5,1.3c0.4,0.5,0.6,1.2,0.6,2.1
		c0,1.2-0.5,2.1-1.4,2.8c-0.9,0.7-2.1,1.1-3.6,1.1c-1.6,0-3.1-0.4-4.6-1.2v-2.8c0.9,0.6,1.6,1,2.3,1.3c0.7,0.3,1.4,0.4,2.1,0.4
		c1.3,0,1.9-0.4,1.9-1.2c0-0.3-0.1-0.5-0.4-0.8c-0.2-0.2-0.9-0.5-1.8-0.9c-1-0.3-1.7-0.7-2.3-1c-0.6-0.3-1-0.7-1.5-1.3
		c-0.4-0.5-0.6-1.2-0.6-2.1c0-1.1,0.4-2,1.3-2.7c0.9-0.7,2.1-1,3.6-1C125.8,100.3,127.2,100.6,128.8,101.3"/>
	<path class="st1" d="M139.5,110.6v1.7c-1,0.8-2.3,1.1-3.9,1.1c-1.5,0-2.8-0.4-3.7-1.2c-0.9-0.8-1.4-1.9-1.4-3.3
		c0-1.3,0.4-2.4,1.3-3.3c0.9-0.9,2-1.3,3.3-1.3c1.3,0,2.4,0.5,3.3,1.4c0.9,0.9,1.3,2.1,1.2,3.6h-6.3c0.1,0.8,0.3,1.4,0.8,1.8
		c0.5,0.4,1.2,0.6,2,0.6C137.3,111.9,138.4,111.4,139.5,110.6 M133.5,107.9h3.8c-0.1-1.3-0.8-1.9-1.9-1.9
		C134.2,106.1,133.6,106.7,133.5,107.9"/>
	<path class="st1" d="M144,104.6v2.5h0c0.8-1.8,1.7-2.7,2.8-2.7c0.5,0,1.1,0.3,1.8,0.8l-0.8,2.4c-0.7-0.4-1.2-0.6-1.6-0.6
		c-0.6,0-1.2,0.4-1.6,1.2c-0.4,0.8-0.7,1.2-0.7,1.4v3.8h-2.7v-8.7H144z"/>
	<polygon class="st1" points="153,113.5 149,104.6 151.9,104.6 153.7,109.4 155.6,104.6 158.5,104.6 154.5,113.5 	"/>
	<path class="st1" d="M159.4,101.8c0-0.4,0.1-0.8,0.4-1.1c0.3-0.3,0.7-0.4,1.1-0.4c0.4,0,0.8,0.1,1.1,0.4c0.3,0.3,0.4,0.7,0.4,1.1
		c0,0.4-0.1,0.8-0.4,1.1c-0.3,0.3-0.7,0.4-1.1,0.4c-0.4,0-0.8-0.2-1.1-0.4C159.5,102.5,159.4,102.2,159.4,101.8 M162.2,113.3h-2.7
		v-8.7h2.7V113.3z"/>
	<path class="st1" d="M171.8,110.9v2c-1.1,0.4-2,0.6-2.9,0.6c-1.5,0-2.8-0.4-3.7-1.2c-0.9-0.8-1.4-1.9-1.4-3.3
		c0-1.3,0.5-2.4,1.4-3.3c0.9-0.9,2.1-1.3,3.5-1.3c0.9,0,1.9,0.2,2.9,0.6v2c-0.8-0.4-1.5-0.6-2.2-0.6c-0.8,0-1.5,0.2-2,0.7
		c-0.5,0.5-0.7,1.1-0.7,1.8c0,0.8,0.2,1.4,0.7,1.9c0.5,0.5,1.1,0.7,1.9,0.7C169.9,111.5,170.7,111.3,171.8,110.9"/>
	<path class="st1" d="M173.3,101.8c0-0.4,0.2-0.8,0.4-1.1c0.3-0.3,0.7-0.4,1.1-0.4c0.4,0,0.8,0.1,1.1,0.4c0.3,0.3,0.4,0.7,0.4,1.1
		c0,0.4-0.1,0.8-0.4,1.1c-0.3,0.3-0.7,0.4-1.1,0.4c-0.4,0-0.8-0.2-1.1-0.4C173.4,102.5,173.3,102.2,173.3,101.8 M176.1,113.3h-2.7
		v-8.7h2.7V113.3z"/>
	<path class="st1" d="M182.6,104.4c1.4,0,2.5,0.4,3.5,1.2c0.9,0.8,1.4,1.9,1.4,3.3c0,1.4-0.5,2.5-1.4,3.3c-1,0.8-2.1,1.2-3.5,1.2
		c-1.4,0-2.6-0.4-3.5-1.3c-0.9-0.8-1.4-1.9-1.4-3.3c0-1.4,0.5-2.5,1.4-3.3C180,104.8,181.2,104.4,182.6,104.4 M182.6,111.9
		c1.3,0,2-1,2-3c0-1.9-0.7-2.8-2-2.8c-0.6,0-1.1,0.2-1.5,0.7c-0.4,0.5-0.5,1.2-0.5,2.1C180.6,110.9,181.3,111.9,182.6,111.9"/>
	<path class="st1" d="M201.5,100.7v12.6h-2.7v-0.7c-0.7,0.6-1.5,0.8-2.4,0.8c-1.1,0-2.1-0.4-2.8-1.3c-0.8-0.8-1.1-1.9-1.1-3.2
		c0-1.3,0.4-2.4,1.2-3.2c0.8-0.8,1.8-1.2,3-1.2c0.7,0,1.5,0.2,2.2,0.5v-4.4H201.5z M198.8,111v-4.1c-0.5-0.3-1-0.5-1.5-0.5
		c-0.7,0-1.2,0.2-1.6,0.7c-0.4,0.5-0.6,1.1-0.6,2c0,0.8,0.2,1.4,0.6,1.9c0.4,0.5,0.9,0.7,1.5,0.7C197.8,111.7,198.3,111.4,198.8,111
		"/>
	<path class="st1" d="M211.4,110.7v1.7c-1,0.7-2.3,1.1-3.8,1.1c-1.5,0-2.7-0.4-3.6-1.2c-0.9-0.8-1.3-1.9-1.3-3.2
		c0-1.3,0.4-2.4,1.3-3.2c0.8-0.8,1.9-1.2,3.2-1.2c1.3,0,2.4,0.4,3.2,1.3c0.8,0.9,1.2,2.1,1.2,3.5h-6.1c0.1,0.8,0.3,1.4,0.8,1.8
		c0.5,0.4,1.1,0.6,2,0.6C209.2,111.9,210.3,111.5,211.4,110.7 M205.5,108.1h3.7c-0.1-1.2-0.8-1.8-1.8-1.8
		C206.2,106.2,205.6,106.8,205.5,108.1"/>
	<rect x="119.5" y="116.9" class="st1" width="3.3" height="13.2"/>
	<path class="st1" d="M128.4,121.2v1.1c1-0.9,2-1.3,3.1-1.3c1.5,0,2.6,0.6,3.2,1.9c1.1-1.3,2.3-1.9,3.5-1.9c1,0,1.9,0.3,2.5,0.9
		c0.6,0.6,1,1.4,1,2.4v5.7h-2.8v-5.2c0-0.6-0.1-1.1-0.4-1.5c-0.3-0.4-0.7-0.5-1.2-0.5c-0.8,0-1.6,0.5-2.2,1.5v5.7h-2.8v-5.3
		c0-0.6-0.2-1.1-0.5-1.4c-0.3-0.3-0.7-0.5-1.2-0.5c-0.7,0-1.5,0.4-2.1,1.2v6h-2.8v-8.9H128.4z"/>
	<path class="st1" d="M146.8,121.2v0.8c0.7-0.6,1.6-1,2.5-1c1.2,0,2.1,0.4,2.9,1.3c0.8,0.9,1.2,2,1.2,3.2c0,1.4-0.4,2.6-1.2,3.4
		c-0.8,0.9-1.9,1.3-3.2,1.3c-0.8,0-1.6-0.2-2.3-0.6v4.9H144v-13.4H146.8z M146.8,123.7v4.1c0.5,0.4,1.1,0.6,1.6,0.6
		c0.7,0,1.2-0.2,1.6-0.7c0.4-0.5,0.6-1.1,0.6-2c0-0.8-0.2-1.5-0.6-2c-0.4-0.5-0.9-0.7-1.6-0.7C148,123,147.4,123.2,146.8,123.7"/>
	<path class="st1" d="M161.5,130.1v-1.3c-0.8,1-1.8,1.4-2.9,1.4c-1,0-1.8-0.3-2.4-0.9c-0.6-0.6-0.9-1.4-0.9-2.5v-5.7h2.8v5.5
		c0,1.1,0.5,1.7,1.4,1.7c0.5,0,1-0.2,1.4-0.6c0.4-0.4,0.6-0.7,0.6-0.9v-5.7h2.8v8.9H161.5z"/>
	<path class="st1" d="M175.3,127.3v1.8c-1.1,0.8-2.4,1.2-4,1.2c-1.6,0-2.8-0.4-3.8-1.3c-0.9-0.8-1.4-2-1.4-3.3
		c0-1.4,0.4-2.5,1.3-3.4c0.9-0.9,2-1.3,3.4-1.3c1.4,0,2.5,0.5,3.4,1.4c0.9,0.9,1.3,2.2,1.2,3.7H169c0.1,0.8,0.3,1.4,0.9,1.9
		c0.5,0.4,1.2,0.7,2.1,0.7C173,128.6,174.1,128.2,175.3,127.3 M169.1,124.6h3.9c-0.1-1.3-0.8-1.9-1.9-1.9
		C169.9,122.7,169.2,123.3,169.1,124.6"/>
	<path class="st1" d="M183.5,121.6v2c-1.1-0.7-2.1-1-3-1c-0.7,0-1,0.2-1,0.7c0,0.1,0.1,0.2,0.2,0.4c0.1,0.1,0.7,0.4,1.6,0.7
		c0.9,0.4,1.6,0.8,2,1.3c0.4,0.5,0.6,1,0.6,1.6c0,0.9-0.3,1.6-0.9,2.1c-0.6,0.5-1.5,0.8-2.7,0.8c-1.2,0-2.3-0.2-3.2-0.7v-2
		c1.1,0.5,2.1,0.8,2.9,0.8c0.9,0,1.4-0.2,1.4-0.7c0-0.2-0.1-0.3-0.3-0.5c-0.2-0.2-0.7-0.4-1.7-0.8c-1-0.4-1.6-0.8-2-1.2
		c-0.4-0.4-0.5-0.9-0.5-1.5c0-0.8,0.3-1.5,1-2c0.7-0.5,1.6-0.8,2.7-0.8C181.6,121,182.6,121.2,183.5,121.6"/>
	<path class="st1" d="M192,121.2v1.9h-3.2v3.7c0,0.4,0.1,0.8,0.4,1c0.2,0.3,0.6,0.4,1,0.4c0.6,0,1.2-0.2,1.9-0.5v2
		c-0.9,0.4-1.8,0.6-2.6,0.6c-1.1,0-1.9-0.3-2.6-0.9c-0.6-0.6-0.9-1.4-0.9-2.5v-3.8h-1.3v-0.5l3.7-4.2h0.4v2.8H192z"/>
	<path class="st1" d="M198.1,121c1.4,0,2.6,0.4,3.6,1.2c1,0.8,1.5,2,1.5,3.4c0,1.5-0.5,2.6-1.5,3.4c-1,0.8-2.2,1.2-3.5,1.2
		c-1.5,0-2.7-0.4-3.6-1.3c-0.9-0.9-1.4-2-1.4-3.4c0-1.4,0.5-2.5,1.4-3.4C195.4,121.4,196.6,121,198.1,121 M198.1,128.6
		c1.3,0,2-1,2-3c0-1.9-0.7-2.9-2-2.9c-0.6,0-1.1,0.3-1.5,0.8c-0.4,0.5-0.5,1.2-0.5,2.2C196,127.6,196.7,128.6,198.1,128.6"/>
	<path class="st1" d="M211.1,121.6v2c-1.1-0.7-2.1-1-3-1c-0.7,0-1,0.2-1,0.7c0,0.1,0.1,0.2,0.2,0.4c0.1,0.1,0.7,0.4,1.6,0.7
		c0.9,0.4,1.6,0.8,2,1.3c0.4,0.5,0.6,1,0.6,1.6c0,0.9-0.3,1.6-0.9,2.1c-0.6,0.5-1.5,0.8-2.7,0.8c-1.2,0-2.3-0.2-3.2-0.7v-2
		c1.1,0.5,2.1,0.8,2.9,0.8c0.9,0,1.4-0.2,1.4-0.7c0-0.2-0.1-0.3-0.3-0.5c-0.2-0.2-0.7-0.4-1.7-0.8c-1-0.4-1.6-0.8-2-1.2
		c-0.4-0.4-0.5-0.9-0.5-1.5c0-0.8,0.3-1.5,1-2c0.7-0.5,1.6-0.8,2.7-0.8C209.2,121,210.2,121.2,211.1,121.6"/>
	<rect x="119.5" y="133.6" class="st1" width="3.3" height="13.2"/>
	<path class="st1" d="M128.4,137.9v1.3c0.8-1,1.8-1.5,2.9-1.5c0.9,0,1.7,0.3,2.3,0.9c0.6,0.6,0.9,1.4,0.9,2.5v5.7h-2.8v-5.4
		c0-1.2-0.5-1.8-1.4-1.8c-0.7,0-1.3,0.5-2,1.5v5.8h-2.8v-8.9H128.4z"/>
	<path class="st1" d="M143.1,137.9v1.9h-3.2v3.7c0,0.4,0.1,0.8,0.4,1c0.2,0.3,0.6,0.4,1,0.4c0.6,0,1.2-0.2,1.9-0.5v2
		c-0.9,0.4-1.8,0.6-2.6,0.6c-1.1,0-1.9-0.3-2.5-0.9c-0.6-0.6-0.9-1.4-0.9-2.5v-3.8h-1.3v-0.5l3.7-4.2h0.4v2.8H143.1z"/>
	<path class="st1" d="M153.3,144.1v1.8c-1.1,0.8-2.4,1.2-4,1.2c-1.6,0-2.8-0.4-3.8-1.3c-0.9-0.8-1.4-2-1.4-3.3
		c0-1.4,0.4-2.5,1.3-3.4c0.9-0.9,2-1.3,3.4-1.3c1.4,0,2.5,0.5,3.4,1.4c0.9,0.9,1.3,2.2,1.2,3.7H147c0.1,0.8,0.3,1.4,0.9,1.9
		c0.5,0.4,1.2,0.7,2.1,0.7C151,145.3,152.1,144.9,153.3,144.1 M147.1,141.3h3.9c-0.2-1.3-0.8-1.9-1.9-1.9
		C147.9,139.4,147.2,140,147.1,141.3"/>
	<path class="st1" d="M158.2,137.9v2.6h0c0.8-1.8,1.8-2.7,2.8-2.7c0.5,0,1.1,0.3,1.9,0.8l-0.8,2.5c-0.7-0.4-1.2-0.7-1.7-0.7
		c-0.7,0-1.2,0.4-1.6,1.2c-0.4,0.8-0.7,1.3-0.7,1.4v3.9h-2.8v-8.9H158.2z"/>
	<path class="st1" d="M166.9,137.9v1.3c0.8-1,1.8-1.5,2.9-1.5c0.9,0,1.7,0.3,2.3,0.9c0.6,0.6,0.9,1.4,0.9,2.5v5.7h-2.8v-5.4
		c0-1.2-0.5-1.8-1.4-1.8c-0.7,0-1.3,0.5-2,1.5v5.8h-2.8v-8.9H166.9z"/>
	<path class="st1" d="M180,137.7c1.4,0,2.6,0.4,3.6,1.2c1,0.8,1.5,2,1.5,3.4c0,1.5-0.5,2.6-1.5,3.4c-1,0.8-2.2,1.2-3.5,1.2
		c-1.5,0-2.7-0.4-3.6-1.3c-0.9-0.9-1.4-2-1.4-3.4c0-1.4,0.5-2.5,1.4-3.4C177.3,138.1,178.5,137.7,180,137.7 M180,145.3
		c1.3,0,2-1,2-3c0-1.9-0.7-2.9-2-2.9c-0.6,0-1.1,0.3-1.5,0.8c-0.4,0.5-0.5,1.2-0.5,2.2C177.9,144.3,178.6,145.3,180,145.3"/>
	<path class="st1" d="M192.9,138.4v2c-1.1-0.7-2.1-1-3-1c-0.7,0-1,0.2-1,0.7c0,0.1,0.1,0.2,0.2,0.4c0.1,0.1,0.7,0.4,1.6,0.7
		c0.9,0.4,1.6,0.8,2,1.3c0.4,0.5,0.6,1,0.6,1.6c0,0.9-0.3,1.6-0.9,2.1c-0.6,0.5-1.5,0.8-2.7,0.8c-1.2,0-2.3-0.2-3.2-0.7v-2
		c1.1,0.5,2.1,0.8,2.9,0.8c0.9,0,1.4-0.2,1.4-0.7c0-0.2-0.1-0.3-0.3-0.5c-0.2-0.1-0.7-0.4-1.7-0.8c-1-0.4-1.6-0.8-2-1.2
		s-0.5-0.9-0.5-1.5c0-0.8,0.3-1.5,1-2c0.7-0.5,1.6-0.8,2.7-0.8C191.1,137.7,192.1,137.9,192.9,138.4"/>
</g>
</svg>
