<?xml version="1.0" encoding="utf-8"?>
<!-- Generator: Adobe Illustrator 23.0.3, SVG Export Plug-In . SVG Version: 6.00 Build 0)  -->
<svg version="1.1" id="Capa_1" xmlns="http://www.w3.org/2000/svg" xmlns:xlink="http://www.w3.org/1999/xlink" x="0px" y="0px"
	 viewBox="0 0 236 236" style="enable-background:new 0 0 236 236;" xml:space="preserve">
<style type="text/css">
	.st0{fill:none;}
	.st1{fill:#1A1C20;}
</style>
<g>
	<rect class="st0" width="236" height="236"/>
	<g>
		<g>
			<path class="st1" d="M18.9,113.4c0,1.7-0.6,3-1.8,4s-2.9,1.4-5,1.4c-2,0-3.7-0.4-5.3-1.1V114c1.2,0.5,2.3,0.9,3.1,1.1
				c0.8,0.2,1.7,0.3,2.4,0.3c0.8,0,1.5-0.2,2-0.5s0.7-0.8,0.7-1.4c0-0.4-0.1-0.7-0.3-1s-0.5-0.5-0.9-0.8c-0.4-0.2-1.2-0.7-2.4-1.2
				s-2-1.1-2.5-1.5c-0.5-0.5-1-1.1-1.4-1.7C7.2,106.6,7,105.9,7,105c0-1.6,0.5-2.9,1.7-3.9c1.1-0.9,2.7-1.4,4.6-1.4
				c1,0,1.9,0.1,2.7,0.3c0.8,0.2,1.8,0.5,2.7,1l-1.3,3.1c-1-0.4-1.8-0.7-2.4-0.8c-0.6-0.2-1.3-0.2-1.9-0.2c-0.8,0-1.3,0.2-1.7,0.5
				s-0.6,0.8-0.6,1.4c0,0.4,0.1,0.6,0.2,0.9c0.2,0.2,0.4,0.5,0.8,0.8s1.1,0.7,2.5,1.3c1.8,0.8,2.9,1.7,3.6,2.5
				C18.6,111.2,18.9,112.2,18.9,113.4z"/>
			<path class="st1" d="M31.7,118.5l-0.5-1.8H31c-0.4,0.7-1,1.1-1.8,1.5s-1.6,0.5-2.6,0.5c-1.7,0-2.9-0.5-3.7-1.3
				c-0.8-0.9-1.3-2.1-1.3-3.8v-9.2h3.9v8.2c0,1,0.2,1.8,0.5,2.3c0.4,0.5,0.9,0.8,1.8,0.8c1.1,0,1.8-0.4,2.4-1.1
				c0.5-0.7,0.7-1.9,0.7-3.6v-6.6h3.9v14.1H31.7z"/>
			<path class="st1" d="M46.2,118.7c-1.7,0-3-0.6-3.9-1.8h-0.2c0.2,1.1,0.2,1.8,0.2,2.1v5.7h-3.9v-20.3h3.1l0.5,1.8h0.2
				c0.9-1.4,2.2-2.1,4-2.1c1.7,0,3,0.6,3.9,1.9s1.4,3.1,1.4,5.3c0,1.5-0.2,2.8-0.7,4c-0.5,1.1-1.1,2-1.9,2.5
				C48.3,118.5,47.3,118.7,46.2,118.7z M45.1,107.2c-0.9,0-1.7,0.3-2.1,0.9c-0.5,0.6-0.7,1.5-0.7,2.9v0.4c0,1.5,0.2,2.6,0.7,3.3
				c0.5,0.7,1.1,1,2.1,1c1.8,0,2.6-1.4,2.6-4.3c0-1.4-0.2-2.4-0.6-3.1C46.8,107.6,46,107.2,45.1,107.2z"/>
			<path class="st1" d="M61,118.7c-2.3,0-4-0.6-5.3-1.9c-1.3-1.2-1.9-3.1-1.9-5.3c0-2.4,0.6-4.2,1.8-5.5s2.8-1.9,4.9-1.9
				c2,0,3.6,0.5,4.7,1.7c1.1,1.1,1.7,2.7,1.7,4.7v1.9h-9.1c0.1,1.1,0.4,2,1,2.6s1.4,0.9,2.5,0.9c0.8,0,1.7-0.1,2.4-0.2
				c0.8-0.2,1.5-0.5,2.4-0.8v3c-0.7,0.3-1.4,0.6-2.1,0.8C63,118.6,62.1,118.7,61,118.7z M60.4,106.8c-0.8,0-1.4,0.2-1.9,0.8
				c-0.5,0.5-0.8,1.2-0.8,2.2h5.4c0-0.9-0.2-1.7-0.8-2.2C61.9,107.1,61.3,106.8,60.4,106.8z"/>
			<path class="st1" d="M77.5,104.1c0.5,0,1,0,1.3,0.1l-0.3,3.6c-0.3-0.1-0.7-0.2-1.1-0.2c-1.2,0-2.2,0.3-2.9,0.9s-1,1.5-1,2.7v7.2
				h-3.9v-14h2.9l0.5,2.4h0.2c0.5-0.8,1-1.4,1.8-1.9C75.8,104.4,76.6,104.1,77.5,104.1z"/>
			<path class="st1" d="M81,100.7c0-1.2,0.7-1.9,2.1-1.9s2.1,0.6,2.1,1.9c0,0.6-0.2,1.1-0.5,1.4c-0.4,0.3-0.8,0.5-1.6,0.5
				C81.6,102.6,81,102,81,100.7z M84.9,118.5H81v-14.1h3.9V118.5z"/>
			<path class="st1" d="M101.8,118.5h-3.9v-8.2c0-1-0.2-1.8-0.5-2.3c-0.4-0.5-0.9-0.8-1.8-0.8c-1.1,0-1.8,0.4-2.4,1.1
				c-0.5,0.7-0.7,1.9-0.7,3.6v6.6h-3.9v-14.1h3l0.5,1.8h0.2c0.5-0.7,1-1.2,1.8-1.5c0.8-0.4,1.6-0.5,2.6-0.5c1.7,0,2.9,0.5,3.7,1.3
				c0.8,0.9,1.3,2.1,1.3,3.8L101.8,118.5L101.8,118.5z"/>
			<path class="st1" d="M111.5,115.7c0.7,0,1.4-0.2,2.4-0.5v2.9c-1,0.5-2.1,0.6-3.5,0.6c-1.5,0-2.7-0.4-3.4-1.1
				c-0.7-0.8-1.1-2-1.1-3.5v-6.8h-1.8v-1.6l2.1-1.3l1.1-3h2.4v3h4v2.9h-4v6.8c0,0.5,0.2,0.9,0.5,1.2
				C110.6,115.5,110.9,115.7,111.5,115.7z"/>
			<path class="st1" d="M122.8,118.7c-2.3,0-4-0.6-5.3-1.9c-1.3-1.2-1.9-3.1-1.9-5.3c0-2.4,0.6-4.2,1.8-5.5c1.2-1.3,2.8-1.9,4.9-1.9
				c2,0,3.6,0.5,4.7,1.7c1.1,1.1,1.7,2.7,1.7,4.7v1.9h-9.1c0.1,1.1,0.4,2,1,2.6s1.4,0.9,2.5,0.9c0.8,0,1.7-0.1,2.4-0.2
				s1.5-0.5,2.4-0.8v3c-0.7,0.3-1.4,0.6-2.1,0.8C124.9,118.6,124,118.7,122.8,118.7z M122.3,106.8c-0.8,0-1.4,0.2-1.9,0.8
				c-0.5,0.5-0.8,1.2-0.8,2.2h5.4c0-0.9-0.2-1.7-0.8-2.2C123.8,107.1,123.2,106.8,122.3,106.8z"/>
			<path class="st1" d="M144.5,118.5h-3.9v-8.2c0-1-0.2-1.8-0.5-2.3c-0.4-0.5-0.9-0.8-1.8-0.8c-1.1,0-1.8,0.4-2.4,1.1
				c-0.5,0.7-0.7,1.9-0.7,3.6v6.6h-3.9v-14.1h3l0.5,1.8h0.2c0.5-0.7,1-1.2,1.8-1.5c0.8-0.4,1.6-0.5,2.6-0.5c1.7,0,2.9,0.5,3.7,1.3
				c0.8,0.9,1.3,2.1,1.3,3.8L144.5,118.5L144.5,118.5z"/>
			<path class="st1" d="M152.8,118.7c-1.7,0-3-0.6-3.9-1.9s-1.4-3.1-1.4-5.3c0-2.3,0.5-4.1,1.4-5.4c1-1.3,2.3-1.9,4-1.9
				c1.8,0,3.1,0.7,4,2.1h0.2c-0.2-1.1-0.3-2-0.3-2.8V99h3.9v19.7h-3l-0.8-1.8h-0.2C155.9,118,154.5,118.7,152.8,118.7z M154.1,115.7
				c1,0,1.7-0.3,2.1-0.8c0.5-0.6,0.7-1.5,0.8-2.9v-0.4c0-1.5-0.2-2.6-0.7-3.3c-0.5-0.7-1.2-1-2.3-1c-0.8,0-1.5,0.4-2,1.1
				c-0.5,0.8-0.7,1.8-0.7,3.2c0,1.4,0.2,2.4,0.7,3.1C152.5,115.4,153.2,115.7,154.1,115.7z"/>
			<path class="st1" d="M170.8,118.7c-2.3,0-4-0.6-5.3-1.9c-1.3-1.2-1.9-3.1-1.9-5.3c0-2.4,0.6-4.2,1.8-5.5s2.8-1.9,4.9-1.9
				c2,0,3.6,0.5,4.7,1.7c1.1,1.1,1.7,2.7,1.7,4.7v1.9h-9.1c0.1,1.1,0.4,2,1,2.6s1.4,0.9,2.5,0.9c0.8,0,1.7-0.1,2.4-0.2
				c0.8-0.2,1.5-0.5,2.4-0.8v3c-0.7,0.3-1.4,0.6-2.1,0.8C172.8,118.6,171.9,118.7,170.8,118.7z M170.2,106.8c-0.8,0-1.4,0.2-1.9,0.8
				c-0.5,0.5-0.8,1.2-0.8,2.2h5.4c0-0.9-0.2-1.7-0.8-2.2C171.7,107.1,171.1,106.8,170.2,106.8z"/>
			<path class="st1" d="M192.4,118.5h-3.9v-8.2c0-1-0.2-1.8-0.5-2.3c-0.4-0.5-0.9-0.8-1.8-0.8c-1.1,0-1.8,0.4-2.4,1.1
				c-0.5,0.7-0.7,1.9-0.7,3.6v6.6h-3.9v-14.1h3l0.5,1.8h0.2c0.5-0.7,1-1.2,1.8-1.5c0.8-0.4,1.6-0.5,2.6-0.5c1.7,0,2.9,0.5,3.7,1.3
				c0.8,0.9,1.3,2.1,1.3,3.8L192.4,118.5L192.4,118.5z"/>
			<path class="st1" d="M201.9,118.7c-4.4,0-6.6-2.4-6.6-7.2c0-2.4,0.6-4.3,1.8-5.5c1.2-1.3,2.9-1.9,5.1-1.9c1.6,0,3.1,0.3,4.4,1
				l-1.1,3c-0.6-0.2-1.1-0.5-1.7-0.6c-0.5-0.2-1.1-0.2-1.6-0.2c-2,0-3,1.4-3,4.3c0,2.7,1,4.1,3,4.1c0.8,0,1.4-0.1,2.1-0.3
				s1.3-0.5,1.9-0.9v3.3c-0.6,0.4-1.2,0.7-1.9,0.8C203.7,118.6,202.9,118.7,201.9,118.7z"/>
			<path class="st1" d="M209.1,100.7c0-1.2,0.7-1.9,2.1-1.9s2.1,0.6,2.1,1.9c0,0.6-0.2,1.1-0.5,1.4c-0.4,0.3-0.8,0.5-1.6,0.5
				C209.8,102.6,209.1,102,209.1,100.7z M213,118.5h-3.9v-14.1h3.9V118.5z"/>
			<path class="st1" d="M225.9,118.5l-0.8-1.9H225c-0.7,0.8-1.3,1.4-2,1.7c-0.7,0.3-1.6,0.5-2.7,0.5c-1.4,0-2.4-0.4-3.2-1.1
				c-0.8-0.8-1.1-1.9-1.1-3.3c0-1.5,0.5-2.6,1.6-3.3c1.1-0.7,2.6-1.1,4.7-1.1l2.4-0.1v-0.6c0-1.4-0.8-2.1-2.2-2.1
				c-1.1,0-2.4,0.3-4,1l-1.3-2.6c1.6-0.8,3.4-1.3,5.4-1.3c1.9,0,3.4,0.4,4.3,1.2c1,0.8,1.5,2.1,1.5,3.7v9.4
				C228.6,118.5,225.9,118.5,225.9,118.5z M224.7,111.9l-1.5,0.1c-1.1,0-2,0.2-2.5,0.6s-0.8,0.9-0.8,1.7c0,1.1,0.6,1.6,1.9,1.6
				c0.9,0,1.6-0.2,2.1-0.8c0.5-0.5,0.8-1.2,0.8-2.1V111.9z"/>
			<path class="st1" d="M13.7,155c-2.3,0-4-0.8-5.3-2.6s-1.9-4.2-1.9-7.2c0-3.1,0.7-5.6,2-7.3s3.1-2.7,5.4-2.7
				c2.4,0,4.3,0.9,5.5,2.8h0.2c-0.2-1.4-0.4-2.7-0.4-3.8V128h5.3v26.7h-4l-1-2.5h-0.2C17.9,154.1,16.1,155,13.7,155z M15.5,150.8
				c1.4,0,2.3-0.4,3-1.1c0.6-0.8,1-2.1,1-4v-0.5c0-2.1-0.3-3.5-0.9-4.4s-1.7-1.4-3.1-1.4c-1.1,0-2.1,0.5-2.7,1.4c-0.6,1-1,2.4-1,4.3
				s0.3,3.3,1,4.3C13.3,150.3,14.3,150.8,15.5,150.8z"/>
			<path class="st1" d="M38.2,155c-3.1,0-5.5-0.8-7.2-2.6c-1.8-1.7-2.6-4.1-2.6-7.2c0-3.2,0.8-5.7,2.4-7.5c1.6-1.8,3.8-2.7,6.6-2.7
				c2.7,0,4.8,0.8,6.3,2.3s2.3,3.7,2.3,6.4v2.5H33.6c0.1,1.5,0.5,2.7,1.3,3.5s2,1.2,3.4,1.2c1.1,0,2.2-0.2,3.3-0.4s2.1-0.6,3.2-1.1
				v4c-0.9,0.5-1.9,0.8-2.9,1C41,154.9,39.7,155,38.2,155z M37.5,138.8c-1.1,0-2,0.4-2.6,1.1c-0.6,0.7-1,1.7-1.1,3h7.3
				c0-1.3-0.4-2.3-1-3C39.4,139.2,38.5,138.8,37.5,138.8z"/>
			<path class="st1" d="M73.6,154.7H59.1v-25.1h14.5v4.3h-9.2v5.5h8.5v4.3h-8.5v6.5h9.2V154.7z"/>
			<path class="st1" d="M84.2,155c-2.3,0-4-0.8-5.3-2.6s-1.9-4.2-1.9-7.2c0-3.1,0.7-5.6,2-7.3c1.3-1.8,3.1-2.7,5.4-2.7
				c2.4,0,4.3,0.9,5.5,2.8H90c-0.2-1.4-0.4-2.7-0.4-3.8V128h5.3v26.7h-4l-1-2.5h-0.2C88.4,154.1,86.6,155,84.2,155z M86,150.8
				c1.4,0,2.3-0.4,3-1.1c0.6-0.8,1-2.1,1-4v-0.5c0-2.1-0.3-3.5-0.9-4.4s-1.7-1.4-3.1-1.4c-1.1,0-2.1,0.5-2.7,1.4c-0.6,1-1,2.4-1,4.3
				s0.3,3.3,1,4.3C83.9,150.3,84.8,150.8,86,150.8z"/>
			<path class="st1" d="M113.6,154.7l-0.7-2.4h-0.3c-0.5,0.9-1.4,1.6-2.4,2.1c-1.1,0.5-2.2,0.8-3.5,0.8c-2.3,0-4-0.6-5.1-1.8
				s-1.8-3-1.8-5.2v-12.5h5.3v11.1c0,1.4,0.2,2.4,0.8,3.1c0.5,0.7,1.3,1.1,2.4,1.1c1.4,0,2.5-0.5,3.2-1.4c0.7-1,1-2.6,1-4.9v-9h5.3
				v19.2L113.6,154.7L113.6,154.7z"/>
			<path class="st1" d="M130.6,155c-6,0-9-3.3-9-9.8c0-3.3,0.8-5.7,2.4-7.5s4-2.6,7-2.6c2.2,0,4.2,0.5,6,1.3l-1.5,4
				c-0.8-0.3-1.6-0.6-2.3-0.8s-1.4-0.3-2.1-0.3c-2.7,0-4.1,1.9-4.1,5.8c0,3.7,1.4,5.6,4.1,5.6c1,0,1.9-0.2,2.8-0.4
				c0.8-0.3,1.8-0.7,2.6-1.3v4.5c-0.8,0.5-1.7,0.9-2.6,1.1C133,154.9,131.8,155,130.6,155z"/>
			<path class="st1" d="M152.7,154.7l-1-2.6h-0.2c-0.9,1.1-1.8,1.9-2.7,2.3c-0.9,0.5-2.1,0.6-3.7,0.6c-1.8,0-3.3-0.5-4.3-1.6
				c-1.1-1.1-1.6-2.5-1.6-4.5c0-2.1,0.7-3.5,2.1-4.5c1.4-1,3.6-1.5,6.5-1.6l3.4-0.1v-0.8c0-2-1-2.9-3-2.9c-1.5,0-3.4,0.5-5.4,1.4
				l-1.8-3.5c2.2-1.1,4.7-1.8,7.3-1.8s4.6,0.5,6,1.7s2.1,2.8,2.1,5.1v12.8L152.7,154.7L152.7,154.7z M151.2,145.7l-2.1,0.1
				c-1.5,0.1-2.7,0.3-3.4,0.8c-0.8,0.5-1.1,1.3-1.1,2.3c0,1.4,0.8,2.2,2.5,2.2c1.2,0,2.2-0.4,2.9-1.1c0.8-0.7,1.1-1.6,1.1-2.7v-1.6
				H151.2z"/>
			<path class="st1" d="M169.2,155c-6,0-9-3.3-9-9.8c0-3.3,0.8-5.7,2.4-7.5c1.6-1.8,4-2.6,7-2.6c2.2,0,4.2,0.5,6,1.3l-1.5,4
				c-0.8-0.3-1.6-0.6-2.3-0.8s-1.4-0.3-2.1-0.3c-2.7,0-4.1,1.9-4.1,5.8c0,3.7,1.4,5.6,4.1,5.6c1,0,1.9-0.2,2.8-0.4
				c0.8-0.3,1.8-0.7,2.6-1.3v4.5c-0.8,0.5-1.7,0.9-2.6,1.1C171.6,154.9,170.5,155,169.2,155z"/>
			<path class="st1" d="M178.9,130.5c0-1.7,0.9-2.6,2.8-2.6s2.8,0.8,2.8,2.6c0,0.8-0.2,1.4-0.7,1.9s-1.2,0.7-2.1,0.7
				C179.8,133.1,178.9,132.2,178.9,130.5z M184.3,154.7H179v-19.2h5.3V154.7z"/>
			<path class="st1" d="M206.9,145c0,3.1-0.8,5.6-2.4,7.3c-1.7,1.8-4,2.7-6.9,2.7c-1.8,0-3.4-0.4-4.9-1.2c-1.4-0.8-2.5-2-3.3-3.5
				s-1.1-3.3-1.1-5.3c0-3.1,0.8-5.6,2.4-7.3c1.6-1.8,4-2.6,6.9-2.6c1.8,0,3.4,0.4,4.9,1.2c1.4,0.8,2.5,2,3.3,3.4
				C206.6,141.2,206.9,143,206.9,145z M193.7,145c0,1.9,0.3,3.4,0.9,4.3c0.6,1,1.7,1.4,3.1,1.4s2.4-0.5,3.1-1.4
				c0.6-1,0.9-2.4,0.9-4.3s-0.3-3.4-0.9-4.3c-0.6-0.9-1.6-1.4-3.1-1.4c-1.4,0-2.4,0.5-3.1,1.4C194,141.7,193.7,143.1,193.7,145z
				 M194.8,133.3v-0.5c2-2.3,3.3-4,4-5.2h5.9v0.4c-0.6,0.6-1.6,1.4-3.1,2.7c-1.4,1.1-2.6,2.1-3.4,2.6H194.8z"/>
			<path class="st1" d="M228.7,154.7h-5.3v-11.2c0-1.4-0.2-2.4-0.8-3.1c-0.5-0.7-1.3-1.1-2.4-1.1c-1.4,0-2.5,0.5-3.2,1.4
				c-0.7,1-1,2.6-1,4.9v9h-5.3v-19.2h4l0.7,2.4h0.3c0.6-0.9,1.4-1.6,2.4-2.1s2.2-0.7,3.5-0.7c2.2,0,3.9,0.6,5.1,1.8
				c1.1,1.2,1.8,3,1.8,5.3L228.7,154.7L228.7,154.7z"/>
		</g>
		<g>
			<path class="st1" d="M108.5,90.2H5.3V81h103.2V90.2z M7.2,88.3h99.4v-5.4H7.2V88.3z"/>
		</g>
		<g>
			<path class="st1" d="M230.7,90.2H106.6V81h124.1V90.2L230.7,90.2z M108.5,88.3h120.3v-5.4H108.5V88.3z"/>
		</g>
	</g>
</g>
</svg>
