<svg xmlns="http://www.w3.org/2000/svg" viewBox="0 0 1920 1080"><defs><style>.cls-1{fill:#2933f2;}.cls-2{fill:#1b1c1f;}</style></defs><title>bg-consultoria</title><g id="Capa_2" data-name="Capa 2"><g id="Capa_1-2" data-name="Capa 1"><rect class="cls-1" width="1920" height="1080"/><path class="cls-2" d="M1457.84,169h-611a61.52,61.52,0,0,0-40,14.76L465.49,475.65A61.48,61.48,0,0,0,444,522.4V892.75A18.21,18.21,0,0,0,462.16,911h611a61.52,61.52,0,0,0,40-14.76l341.35-291.85a61.48,61.48,0,0,0,21.54-46.75V187.25A18.21,18.21,0,0,0,1457.84,169ZM715.59,694.28a18.2,18.2,0,0,1-18.21-18.2V385.72h507a18.2,18.2,0,0,1,18.21,18.2V694.28Z"/></g></g></svg>