<svg xmlns="http://www.w3.org/2000/svg" viewBox="0 0 1920 1080"><defs><style>.cls-1{fill:#fff;}.cls-2{fill:#bcc4f8;}</style></defs><title>bg-footer</title><g id="Capa_2" data-name="Capa 2"><g id="Capa_1-2" data-name="Capa 1"><rect class="cls-1" width="1920" height="1080"/><g id="Capa_1-2-2" data-name="Capa 1-2"><path class="cls-2" d="M1513.7,494.26l-44.11-211.93s-8.22-27.35-36.23-21.51l-256.47,53.41s-35.68,13.19-27.36,52.66l78.93,379a28.21,28.21,0,0,0,34.17,20.55h.11l59-12.33a28.28,28.28,0,0,0,23.35-32.44v-.11l-62-297A28,28,0,0,1,1303.29,393a139.36,139.36,0,0,1,44.11-7,29.49,29.49,0,0,1,18.93,6.81L1497.16,502.8C1504.19,508.75,1515.54,502.8,1513.7,494.26Z"/><path class="cls-2" d="M1795.8,712.89,1716.87,334a28.37,28.37,0,0,0-34.38-20.55l-59.15,12.33a28.26,28.26,0,0,0-23.24,32.44v.11l62,297a28.09,28.09,0,0,1-20.11,31.57,142.56,142.56,0,0,1-44.12,7,30.36,30.36,0,0,1-18.92-6.92L1448,576.87c-6.92-5.73-18.27.22-16.54,8.87l44.11,211.93s8.22,27.35,36.23,21.51l256.47-53.41C1768.12,765.66,1803.91,752.36,1795.8,712.89Z"/></g></g></g></svg>