<svg xmlns="http://www.w3.org/2000/svg" viewBox="0 0 433.67 90.4"><defs><style>.cls-1{fill:#1b1c1f;}</style></defs><title>consultoria</title><g id="Capa_2" data-name="Capa 2"><g id="Capa_1-2" data-name="Capa 1"><path class="cls-1" d="M73.48,12h9v6.37A17.4,17.4,0,0,1,97.13,11a21.14,21.14,0,0,1,7.86,1.4,16.21,16.21,0,0,1,5.94,4,17.84,17.84,0,0,1,3.74,6.37A25.79,25.79,0,0,1,116,31.24V57.85h-9.26V31.93q0-5.87-3-9.35T95,19.1a12.58,12.58,0,0,0-4.89.93,11.42,11.42,0,0,0-3.91,2.68A12.38,12.38,0,0,0,83.61,27a15.73,15.73,0,0,0-.93,5.56V57.85h-9.2Z"/><path class="cls-1" d="M144.4,58.8q-9.18,0-14.07-5.4t-4.86-14.92V12h9.35V37.88q0,5.86,2.89,9.31t8.75,3.44a12.57,12.57,0,0,0,4.8-.92A10.8,10.8,0,0,0,155.12,47a12.55,12.55,0,0,0,2.55-4.21,15.32,15.32,0,0,0,.94-5.53V12h9.18V57.87h-9V51.56A17.34,17.34,0,0,1,144.4,58.8"/><path class="cls-1" d="M178,12h9.09v5.27a15.09,15.09,0,0,1,5.36-4.55A16.71,16.71,0,0,1,200.08,11a17.82,17.82,0,0,1,9.14,2.13,13.79,13.79,0,0,1,5.48,5.94,16.71,16.71,0,0,1,6-5.86A17.48,17.48,0,0,1,229.66,11a22.47,22.47,0,0,1,8.16,1.37,14.85,14.85,0,0,1,5.76,3.9,16.06,16.06,0,0,1,3.4,6.12,27,27,0,0,1,1.11,8V57.85h-9.43V30.92a13.74,13.74,0,0,0-2.47-8.59q-2.46-3.22-7.88-3.23a10.2,10.2,0,0,0-7.86,3.14q-2.92,3.15-2.94,9.52V57.85h-9.28V30.32c0-3.52-.8-6.26-2.42-8.23s-4.17-3-7.67-3a10.23,10.23,0,0,0-8,3.27q-2.93,3.27-2.94,9.82V57.85H178Z"/><path class="cls-1" d="M280.16,58.79a26.16,26.16,0,0,1-10-1.82,23.76,23.76,0,0,1-7.7-5,22,22,0,0,1-5-7.52,24.75,24.75,0,0,1-1.74-9.35,24.2,24.2,0,0,1,1.83-9.47,23.33,23.33,0,0,1,5-7.61,24,24,0,0,1,7.57-5.1A23.49,23.49,0,0,1,279.65,11,24.76,24.76,0,0,1,289,12.76a22.4,22.4,0,0,1,7.44,4.9,22.77,22.77,0,0,1,4.92,7.44,24,24,0,0,1,1.79,9.39v3.82H264.61a14.57,14.57,0,0,0,5.1,9,15.81,15.81,0,0,0,10.45,3.35,15.19,15.19,0,0,0,8.12-2,16.42,16.42,0,0,0,5.31-5.34l7.56,4.5a25.5,25.5,0,0,1-8.4,8,24.23,24.23,0,0,1-12.59,3m-.51-39.68a14.42,14.42,0,0,0-9.43,3.2,15.53,15.53,0,0,0-5.27,8.2h29a13.33,13.33,0,0,0-4.8-8.42,14.93,14.93,0,0,0-9.47-3Z"/><path class="cls-1" d="M311.12,12h9v8a12,12,0,0,1,4.77-6.5,13.8,13.8,0,0,1,7.72-2.19,19.45,19.45,0,0,1,4.38.46A11.06,11.06,0,0,1,340.36,13l-3.57,8.83A10.35,10.35,0,0,0,331,20.5a11.11,11.11,0,0,0-7.81,2.64c-1.93,1.75-2.89,4.7-2.9,8.84V57.81h-9.18Z"/><path class="cls-1" d="M364.88,58.8q-9.17,0-14.06-5.4t-4.89-14.91V12h9.35V37.9c0,3.9,1,7,2.89,9.3s4.84,3.44,8.76,3.44a12.38,12.38,0,0,0,4.8-.91,11,11,0,0,0,3.86-2.68,12.71,12.71,0,0,0,2.55-4.21,15.5,15.5,0,0,0,.92-5.52V12h9.22V57.89h-9V51.56a17.29,17.29,0,0,1-14.36,7.24"/><path class="cls-1" d="M415,58.8a26.67,26.67,0,0,1-12.28-2.55,19.45,19.45,0,0,1-7.95-7.57L403,44a16,16,0,0,0,5.09,5,14,14,0,0,0,7.32,1.78c3,0,5.27-.63,6.8-1.91a5.71,5.71,0,0,0,2.28-4.54,3.38,3.38,0,0,0-1-2.51,7.64,7.64,0,0,0-2.6-1.62,24.84,24.84,0,0,0-3.69-1.1l-4.38-1a57.6,57.6,0,0,1-5.74-1.49A20.29,20.29,0,0,1,402,34.29a11.45,11.45,0,0,1-3.7-3.82,11.18,11.18,0,0,1-1.41-5.82,11.46,11.46,0,0,1,1.24-5.14,13.41,13.41,0,0,1,3.52-4.42,17,17,0,0,1,5.57-3,22.91,22.91,0,0,1,7.35-1.1,24.41,24.41,0,0,1,11,2.25A20.41,20.41,0,0,1,433,19.55l-7.9,4.5a12.5,12.5,0,0,0-4.25-4,12.64,12.64,0,0,0-6.29-1.44c-2.83,0-4.93.56-6.29,1.7a5.2,5.2,0,0,0-2,4.16,3.89,3.89,0,0,0,2.93,3.83,58.36,58.36,0,0,0,8.2,2.2q2.88.6,5.78,1.49a20.71,20.71,0,0,1,5.23,2.42,12.73,12.73,0,0,1,3.82,3.91,11,11,0,0,1,1.49,5.94,12.72,12.72,0,0,1-1.15,5.15,14,14,0,0,1-3.44,4.67,18.08,18.08,0,0,1-5.83,3.4A23.9,23.9,0,0,1,415,58.8"/><path class="cls-1" d="M74.59,78.65a11.94,11.94,0,0,1,.73-4A11.22,11.22,0,0,1,77.46,71a10.91,10.91,0,0,1,3.45-2.59,10.36,10.36,0,0,1,4.6-1,9.77,9.77,0,0,1,5.27,1.36,8.88,8.88,0,0,1,3.3,3.56l-2.79,1.87a6.38,6.38,0,0,0-1.14-1.71,5.87,5.87,0,0,0-1.46-1.12A6.24,6.24,0,0,0,87,70.8a8.15,8.15,0,0,0-1.65-.18,6.47,6.47,0,0,0-3.12.72A6.68,6.68,0,0,0,80,73.23a8.35,8.35,0,0,0-1.37,2.63,9.57,9.57,0,0,0-.46,2.92,9.13,9.13,0,0,0,.54,3.14,8.38,8.38,0,0,0,1.51,2.64,7.28,7.28,0,0,0,2.3,1.82,6.25,6.25,0,0,0,2.92.69,7.25,7.25,0,0,0,1.7-.21A6.58,6.58,0,0,0,90.35,85a5.63,5.63,0,0,0,1.13-1.68l3,1.68a6.89,6.89,0,0,1-1.52,2.24,10,10,0,0,1-2.22,1.64,11.55,11.55,0,0,1-2.62,1,11.22,11.22,0,0,1-2.72.35,9.47,9.47,0,0,1-4.35-1,11.46,11.46,0,0,1-3.39-2.66,12.21,12.21,0,0,1-2.22-3.71A11.77,11.77,0,0,1,74.59,78.65Z"/><path class="cls-1" d="M104.65,90.4a8.74,8.74,0,0,1-3.54-.7,8.44,8.44,0,0,1-2.68-1.87,8.28,8.28,0,0,1-1.71-2.75,9.15,9.15,0,0,1,0-6.57,8.18,8.18,0,0,1,1.73-2.75,8.45,8.45,0,0,1,6.2-2.57,8.66,8.66,0,0,1,3.51.7,8.52,8.52,0,0,1,2.7,1.87,8.18,8.18,0,0,1,1.73,2.75,9.29,9.29,0,0,1,0,6.57,8.18,8.18,0,0,1-1.73,2.75,8.52,8.52,0,0,1-2.7,1.87A8.66,8.66,0,0,1,104.65,90.4Zm-5-8.57a6.39,6.39,0,0,0,.38,2.22,5.53,5.53,0,0,0,1,1.76A4.92,4.92,0,0,0,102.7,87a4.74,4.74,0,0,0,3.9,0,5,5,0,0,0,1.58-1.19,5.72,5.72,0,0,0,1-1.78,6.65,6.65,0,0,0,0-4.43,5.55,5.55,0,0,0-1-1.79,4.71,4.71,0,0,0-1.58-1.19,4.52,4.52,0,0,0-3.87,0,5,5,0,0,0-1.57,1.21,5.89,5.89,0,0,0-1.06,1.79A6,6,0,0,0,99.7,81.83Z"/><path class="cls-1" d="M131.09,90.08H127.6v-9.3a6.11,6.11,0,0,0-.74-3.41,2.54,2.54,0,0,0-2.21-1.07,4.27,4.27,0,0,0-1.52.29,5.21,5.21,0,0,0-1.43.81,6.1,6.1,0,0,0-1.19,1.24,5.57,5.57,0,0,0-.81,1.57v9.87h-3.49V73.48h3.17v3.33a6.85,6.85,0,0,1,2.76-2.65,8.42,8.42,0,0,1,4-1,4.94,4.94,0,0,1,2.45.54,4.09,4.09,0,0,1,1.5,1.48,6.44,6.44,0,0,1,.78,2.16,14.25,14.25,0,0,1,.22,2.58Z"/><path class="cls-1" d="M141.09,90.4a12.8,12.8,0,0,1-4-.65,10.1,10.1,0,0,1-3.41-1.86l1.39-2.22A13,13,0,0,0,138,87.3a8.38,8.38,0,0,0,3,.56,4.39,4.39,0,0,0,2.46-.6,2,2,0,0,0,.9-1.72,1.59,1.59,0,0,0-1-1.52,20.09,20.09,0,0,0-3.18-1c-1-.27-1.92-.54-2.66-.79a6.93,6.93,0,0,1-1.81-.89,3.06,3.06,0,0,1-1-1.18,3.74,3.74,0,0,1-.32-1.62,5,5,0,0,1,.5-2.25,4.78,4.78,0,0,1,1.36-1.67,6.27,6.27,0,0,1,2.05-1,9,9,0,0,1,2.54-.35,10.18,10.18,0,0,1,3.49.58,9.1,9.1,0,0,1,2.89,1.65l-1.49,2.09a7.79,7.79,0,0,0-4.92-1.84,4.3,4.3,0,0,0-2.24.55,1.92,1.92,0,0,0-.91,1.77,1.81,1.81,0,0,0,.19.85,1.65,1.65,0,0,0,.62.61,5.39,5.39,0,0,0,1.11.46c.46.13,1,.29,1.7.46,1.12.27,2.09.55,2.91.82a8.19,8.19,0,0,1,2,1,3.71,3.71,0,0,1,1.18,1.3,4,4,0,0,1,.38,1.8A4.49,4.49,0,0,1,146,89,7.79,7.79,0,0,1,141.09,90.4Z"/><path class="cls-1" d="M155.82,90.4a4.69,4.69,0,0,1-3.93-1.7,8.08,8.08,0,0,1-1.34-5.06V73.48H154v9.46q0,4.47,3.18,4.47a4.84,4.84,0,0,0,2.82-.92,5.91,5.91,0,0,0,2.07-2.66V73.48h3.49V86a1.43,1.43,0,0,0,.2.86,1,1,0,0,0,.75.29v3c-.36.06-.66.11-.89.13l-.67,0a2.57,2.57,0,0,1-1.61-.52,1.72,1.72,0,0,1-.7-1.35l-.07-1.65a7.41,7.41,0,0,1-2.88,2.74A8.21,8.21,0,0,1,155.82,90.4Z"/><path class="cls-1" d="M170,66.91h3.49V85.29a2.05,2.05,0,0,0,.48,1.44,1.7,1.7,0,0,0,1.33.53,3.37,3.37,0,0,0,.81-.13,8.86,8.86,0,0,0,.87-.29l.51,2.73a7.89,7.89,0,0,1-1.81.56,9.63,9.63,0,0,1-1.87.21,3.81,3.81,0,0,1-2.81-1,3.72,3.72,0,0,1-1-2.79Z"/><path class="cls-1" d="M188.64,89.22a16.57,16.57,0,0,1-1.84.72,7.91,7.91,0,0,1-2.51.4,5.19,5.19,0,0,1-1.55-.23,3.94,3.94,0,0,1-1.29-.66,3.09,3.09,0,0,1-.87-1.16,4.31,4.31,0,0,1-.32-1.73V76.18h-2.19v-2.7h2.19V68h3.49v5.46h3.62v2.7h-3.62v9.27a1.73,1.73,0,0,0,.56,1.28,1.87,1.87,0,0,0,1.22.4,3.91,3.91,0,0,0,1.4-.26c.44-.17.77-.3,1-.41Z"/><path class="cls-1" d="M198.42,90.4a8.74,8.74,0,0,1-3.54-.7,8.14,8.14,0,0,1-4.4-4.62,9.29,9.29,0,0,1,0-6.57,8.18,8.18,0,0,1,1.73-2.75,8.52,8.52,0,0,1,2.7-1.87,8.66,8.66,0,0,1,9.71,1.87,8.18,8.18,0,0,1,1.73,2.75,9.15,9.15,0,0,1,0,6.57,8.18,8.18,0,0,1-1.73,2.75,8.41,8.41,0,0,1-6.2,2.57Zm-4.95-8.57a6.16,6.16,0,0,0,.38,2.22,5.35,5.35,0,0,0,1.05,1.76A4.81,4.81,0,0,0,196.47,87a4.74,4.74,0,0,0,3.9,0,5,5,0,0,0,1.57-1.19A5.55,5.55,0,0,0,203,84a6.65,6.65,0,0,0,0-4.43,5.39,5.39,0,0,0-1.05-1.79,4.67,4.67,0,0,0-1.57-1.19,4.42,4.42,0,0,0-2-.43,4.36,4.36,0,0,0-1.92.44,4.9,4.9,0,0,0-1.57,1.21,5.92,5.92,0,0,0-1.07,1.79A6.19,6.19,0,0,0,193.47,81.83Z"/><path class="cls-1" d="M219.3,76.5a7.81,7.81,0,0,0-3.6.93,4.94,4.94,0,0,0-2.24,2.49V90.08H210V73.48h3.24v3.71a7.61,7.61,0,0,1,2.24-2.74,5.39,5.39,0,0,1,3-1.13h.52a1.86,1.86,0,0,1,.36,0Z"/><path class="cls-1" d="M221.75,90.08V73.48h3.49v16.6Zm2.54-19L222,70.4l1.81-3.49h3.33Z"/><path class="cls-1" d="M233.75,90.4a6.07,6.07,0,0,1-2.24-.4,5.43,5.43,0,0,1-1.78-1.09,5.06,5.06,0,0,1-1.17-1.65,5,5,0,0,1-.43-2.07,4.4,4.4,0,0,1,.51-2.12,4.92,4.92,0,0,1,1.44-1.65,6.86,6.86,0,0,1,2.22-1.08,9.8,9.8,0,0,1,2.84-.39,12.75,12.75,0,0,1,2.32.21,11.19,11.19,0,0,1,2.06.56V79.57a3.85,3.85,0,0,0-1-2.87,4.13,4.13,0,0,0-3-1,7.24,7.24,0,0,0-2.62.49,13.73,13.73,0,0,0-2.65,1.41l-1.08-2.22a11.78,11.78,0,0,1,6.67-2.16,7.62,7.62,0,0,1,5.33,1.75A6.45,6.45,0,0,1,243,80v6c0,.74.3,1.13.92,1.15v3c-.34.06-.63.11-.88.13l-.71,0a2.23,2.23,0,0,1-1.57-.51,2.14,2.14,0,0,1-.68-1.3l-.1-1.05a7.41,7.41,0,0,1-2.74,2.24A8,8,0,0,1,233.75,90.4Zm.95-2.57a6.41,6.41,0,0,0,2.4-.46,4.21,4.21,0,0,0,1.76-1.29,1.61,1.61,0,0,0,.66-1.2v-2.2a11.35,11.35,0,0,0-3.84-.73,5.34,5.34,0,0,0-3.06.81,2.5,2.5,0,0,0-1.19,2.15,2.72,2.72,0,0,0,.92,2.08A3.37,3.37,0,0,0,234.7,87.83Z"/><path class="cls-1" d="M27.11,32.39a5.47,5.47,0,0,1,0,7.65L1,66.61a3.42,3.42,0,0,0,2.44,5.82H20.12a5.63,5.63,0,0,0,4-1.68L53.83,40.54a6.17,6.17,0,0,0,0-8.65L24.14,1.69a5.64,5.64,0,0,0-4-1.69H3.43A3.42,3.42,0,0,0,1,5.82Z"/></g></g></svg>