<?xml version="1.0" encoding="utf-8"?>
<!-- Generator: Adobe Illustrator 23.0.3, SVG Export Plug-In . SVG Version: 6.00 Build 0)  -->
<svg version="1.1" id="Capa_1" xmlns="http://www.w3.org/2000/svg" xmlns:xlink="http://www.w3.org/1999/xlink" x="0px" y="0px"
	 viewBox="0 0 150.1 150.1" style="enable-background:new 0 0 150.1 150.1;" xml:space="preserve" width="100" height="100">
<style type="text/css">
	.st0{fill:#2933F2;}
</style>
<g>
	<path class="st0" d="M88.3,65.3V7.6c0,0-0.7-7.6-8.3-7.6H10C10,0,0,1.5,0,12.2v103.4c0,4,3.5,7.2,7.9,7.2H24c4.3,0,7.9-3.2,7.9-7.2
		v-81c0-3.7,3-6.7,7-7.1c3.3-0.4,7.5-0.4,11.9,0.6c1.8,0.4,3.5,1.4,4.6,2.8l28.2,35.9C85,68.6,88.3,67.7,88.3,65.3z"/>
	<path class="st0" d="M142.3,27.3h-16.1c-4.3,0-7.9,3.2-7.9,7.2v81c0,3.7-3,6.7-7,7.1c-3.3,0.4-7.5,0.4-11.9-0.6
		c-1.8-0.4-3.5-1.4-4.6-2.8L66.6,83.4c-1.5-1.9-4.7-0.9-4.7,1.4v57.8c0,0,0.7,7.6,8.3,7.6h70c0,0,10-1.5,10-12.2V34.5
		C150.1,30.5,146.6,27.3,142.3,27.3z"/>
</g>
</svg>
