<svg xmlns="http://www.w3.org/2000/svg" viewBox="0 0 948.09 126.64"><defs><style>.cls-1{fill:#fff;}</style></defs><title>logo-white</title><g id="Capa_2" data-name="Capa 2"><g id="Capa_1-2" data-name="Capa 1"><path class="cls-1" d="M241.9,34a35.51,35.51,0,0,0-13-8.74,46.12,46.12,0,0,0-17.2-3.07,38.07,38.07,0,0,0-32,16V24.2H160V124.6h20.08V69.19a34.51,34.51,0,0,1,2-12.18,26.88,26.88,0,0,1,5.67-9.29,24.76,24.76,0,0,1,8.55-5.86,27.66,27.66,0,0,1,10.69-2q12.65,0,19.15,7.63t6.51,20.45V124.6H253V66.4a56.07,56.07,0,0,0-2.88-18.5A38.85,38.85,0,0,0,241.9,34Z"/><path class="cls-1" d="M346.21,79.6a33.91,33.91,0,0,1-2,12.09,27.72,27.72,0,0,1-5.58,9.2,23.73,23.73,0,0,1-8.46,5.86,27.14,27.14,0,0,1-10.5,2q-12.83,0-19.15-7.53t-6.32-20.35V24.2H273.69v58q0,20.82,10.7,32.63t30.77,11.8a37.88,37.88,0,0,0,31.42-15.8V124.6h19.71V24.2H346.21Z"/><path class="cls-1" d="M532.17,33.68a32.64,32.64,0,0,0-12.64-8.55,49.08,49.08,0,0,0-17.85-3A38.25,38.25,0,0,0,482.16,27,36.41,36.41,0,0,0,469,39.81a30.15,30.15,0,0,0-12-13q-7.9-4.65-20-4.65a36.19,36.19,0,0,0-16.74,3.63,33,33,0,0,0-11.71,9.94V24.2H388.64V124.6h20.08V68.45q0-14.31,6.41-21.48t17.57-7.16q11.52,0,16.83,6.51t5.3,18V124.6h20.26V67.52q0-13.95,6.42-20.83t17.19-6.88q11.91,0,17.3,7.07t5.39,18.78V124.6H542V64.54a59,59,0,0,0-2.42-17.47A35.25,35.25,0,0,0,532.17,33.68Z"/><path class="cls-1" d="M647.89,36.65A48.67,48.67,0,0,0,631.62,26a54.14,54.14,0,0,0-20.54-3.81,51.66,51.66,0,0,0-20.64,4.09A52.73,52.73,0,0,0,573.89,37.4,51.05,51.05,0,0,0,562.83,54a53.15,53.15,0,0,0-4,20.73,54.34,54.34,0,0,0,3.81,20.45,48,48,0,0,0,10.88,16.46,51.41,51.41,0,0,0,16.83,11,57.19,57.19,0,0,0,21.84,4q16.37,0,27.52-6.6a55.88,55.88,0,0,0,18.41-17.57l-16.55-9.85A35.64,35.64,0,0,1,630,104.33q-7.16,4.47-17.76,4.46-13.94,0-22.87-7.34a31.82,31.82,0,0,1-11.15-19.61h84.41V73.47a52.88,52.88,0,0,0-3.91-20.55A49.93,49.93,0,0,0,647.89,36.65Zm-69,28.08a34,34,0,0,1,11.53-17.94q8.55-7,20.64-7,12.45,0,20.73,6.51t10.5,18.41Z"/><path class="cls-1" d="M727,22.71a30.19,30.19,0,0,0-16.91,4.74q-7.26,4.74-10.42,14.22V24.2H679.94V124.6H700V68.08q0-13.57,6.33-19.34T723.45,43q8.17,0,12.64,3l7.81-19.34a24.4,24.4,0,0,0-7.34-2.88A42.15,42.15,0,0,0,727,22.71Z"/><path class="cls-1" d="M828.61,79.6a33.92,33.92,0,0,1-2,12.09,28.05,28.05,0,0,1-5.58,9.2,23.91,23.91,0,0,1-8.46,5.86,27.21,27.21,0,0,1-10.5,2q-12.84,0-19.16-7.53t-6.32-20.35V24.2H756.1v58q0,20.82,10.69,32.63t30.77,11.8A37.88,37.88,0,0,0,829,110.84V124.6h19.7V24.2H828.61Z"/><path class="cls-1" d="M944.83,81.84a27.65,27.65,0,0,0-8.36-8.56A45.1,45.1,0,0,0,925,68q-6.31-2-12.64-3.25a127.28,127.28,0,0,1-17.94-4.83Q888,57.49,888,51.53a11.45,11.45,0,0,1,4.46-9.11Q897,38.7,906.25,38.7q8.19,0,13.76,3.16a27.22,27.22,0,0,1,9.3,8.74l17.29-9.86a44.87,44.87,0,0,0-16.36-13.85q-9.86-4.92-24-4.92a50.11,50.11,0,0,0-16.08,2.41A37.78,37.78,0,0,0,878,31a29.48,29.48,0,0,0-7.71,9.67,25.22,25.22,0,0,0-2.7,11.25,24.36,24.36,0,0,0,3.07,12.74A25.25,25.25,0,0,0,878.74,73,45.37,45.37,0,0,0,890,78.21a126.4,126.4,0,0,0,12.55,3.25l9.57,2.14A54.65,54.65,0,0,1,920.2,86a16.6,16.6,0,0,1,5.67,3.53A7.45,7.45,0,0,1,928,95q0,5.76-5,9.94t-14.88,4.19q-9.48,0-16-3.91a34.68,34.68,0,0,1-11.15-11l-18,10.23a42.56,42.56,0,0,0,17.39,16.55q10.88,5.57,26.86,5.57a51.78,51.78,0,0,0,18.13-2.88,39.22,39.22,0,0,0,12.74-7.43,30.61,30.61,0,0,0,7.53-10.23,27.67,27.67,0,0,0,2.51-11.25Q948.09,87,944.83,81.84Z"/><path class="cls-1" d="M73.32,54.26V6.3S72.77,0,66.43,0H8.33S0,1.22,0,10.16V96a6.26,6.26,0,0,0,6.53,6H19.91a6.26,6.26,0,0,0,6.53-6V28.73a6.19,6.19,0,0,1,5.79-5.93,31.08,31.08,0,0,1,9.91.46A6.63,6.63,0,0,1,46,25.6L69.38,55.42C70.61,57,73.32,56.19,73.32,54.26Z"/><path class="cls-1" d="M118.14,22.68H104.75a6.26,6.26,0,0,0-6.52,6V95.94a6.21,6.21,0,0,1-5.79,5.93,30.82,30.82,0,0,1-9.91-.47,6.67,6.67,0,0,1-3.81-2.33L55.29,69.24c-1.24-1.57-3.95-.77-3.95,1.16v48s.56,6.3,6.89,6.3h58.1s8.34-1.22,8.34-10.16V28.65A6.27,6.27,0,0,0,118.14,22.68Z"/></g></g></svg>