<svg xmlns="http://www.w3.org/2000/svg" viewBox="0 0 433.67 90.4"><defs><style>.cls-1{fill:#1b1c1f;}</style></defs><title>logo-numerus-consultoria</title><g id="Capa_2" data-name="Capa 2"><g id="Capa_1-2" data-name="Capa 1"><path class="cls-1" d="M110.93,16.42a16.21,16.21,0,0,0-5.94-4A21.14,21.14,0,0,0,97.13,11,17.4,17.4,0,0,0,82.5,18.33V12h-9V57.85h9.2V32.52A15.73,15.73,0,0,1,83.61,27a12.38,12.38,0,0,1,2.59-4.25A11.42,11.42,0,0,1,90.11,20,12.58,12.58,0,0,1,95,19.1q5.77,0,8.75,3.48t3,9.35V57.85H116V31.24a25.79,25.79,0,0,0-1.32-8.45A17.84,17.84,0,0,0,110.93,16.42Z"/><path class="cls-1" d="M158.61,37.3a15.32,15.32,0,0,1-.94,5.53A12.55,12.55,0,0,1,155.12,47a10.8,10.8,0,0,1-3.86,2.67,12.57,12.57,0,0,1-4.8.92q-5.86,0-8.75-3.44t-2.89-9.31V12h-9.35V38.48q0,9.52,4.86,14.92t14.07,5.4a17.34,17.34,0,0,0,14.36-7.24v6.31h9V12h-9.18Z"/><path class="cls-1" d="M243.58,16.29a14.85,14.85,0,0,0-5.76-3.9A22.47,22.47,0,0,0,229.66,11a17.48,17.48,0,0,0-8.92,2.21,16.71,16.71,0,0,0-6,5.86,13.79,13.79,0,0,0-5.48-5.94A17.82,17.82,0,0,0,200.08,11a16.71,16.71,0,0,0-7.65,1.66,15,15,0,0,0-5.36,4.55V12H178V57.85h9.19V32.19q0-6.55,2.94-9.82a10.23,10.23,0,0,1,8-3.27q5.25,0,7.67,3c1.62,2,2.42,4.71,2.42,8.23V57.85h9.28V31.76q0-6.37,2.94-9.52a10.2,10.2,0,0,1,7.86-3.14q5.41,0,7.88,3.23a13.74,13.74,0,0,1,2.47,8.59V57.85h9.43V30.39a27,27,0,0,0-1.11-8A16.06,16.06,0,0,0,243.58,16.29Z"/><path class="cls-1" d="M296.48,17.66a22.4,22.4,0,0,0-7.44-4.9A24.76,24.76,0,0,0,279.65,11a23.49,23.49,0,0,0-9.43,1.87,24,24,0,0,0-7.57,5.1,23.17,23.17,0,0,0-5,7.61,24.2,24.2,0,0,0-1.83,9.47,24.75,24.75,0,0,0,1.74,9.35,22,22,0,0,0,5,7.52,23.76,23.76,0,0,0,7.7,5,26.16,26.16,0,0,0,10,1.82,24.23,24.23,0,0,0,12.59-3,25.5,25.5,0,0,0,8.4-8l-7.56-4.5a16.42,16.42,0,0,1-5.31,5.34,15.19,15.19,0,0,1-8.12,2,15.81,15.81,0,0,1-10.45-3.35,14.57,14.57,0,0,1-5.1-9h38.58V34.49a24.17,24.17,0,0,0-1.79-9.39A22.77,22.77,0,0,0,296.48,17.66ZM265,30.51a15.53,15.53,0,0,1,5.27-8.2,14.42,14.42,0,0,1,9.43-3.2h0a14.93,14.93,0,0,1,9.47,3,13.33,13.33,0,0,1,4.8,8.42Z"/><path class="cls-1" d="M332.62,11.26a13.8,13.8,0,0,0-7.72,2.19,12,12,0,0,0-4.77,6.5V12h-9V57.81h9.18V32c0-4.14,1-7.09,2.9-8.84A11.11,11.11,0,0,1,331,20.5a10.35,10.35,0,0,1,5.78,1.37L340.36,13A11.06,11.06,0,0,0,337,11.72,19.45,19.45,0,0,0,332.62,11.26Z"/><path class="cls-1" d="M379.06,37.32a15.5,15.5,0,0,1-.92,5.52,12.71,12.71,0,0,1-2.55,4.21,11,11,0,0,1-3.86,2.68,12.38,12.38,0,0,1-4.8.91q-5.88,0-8.76-3.44c-1.93-2.29-2.89-5.4-2.89-9.3V12h-9.35V38.49q0,9.51,4.89,14.91t14.06,5.4a17.29,17.29,0,0,0,14.36-7.24v6.33h9V12h-9.22Z"/><path class="cls-1" d="M432.18,38.33a12.73,12.73,0,0,0-3.82-3.91A20.71,20.71,0,0,0,423.13,32q-2.89-.88-5.78-1.49a58.36,58.36,0,0,1-8.2-2.2,3.89,3.89,0,0,1-2.93-3.83,5.2,5.2,0,0,1,2-4.16c1.36-1.14,3.46-1.7,6.29-1.7a12.64,12.64,0,0,1,6.29,1.44,12.5,12.5,0,0,1,4.25,4l7.9-4.5a20.49,20.49,0,0,0-7.47-6.33,24.41,24.41,0,0,0-11-2.25,22.91,22.91,0,0,0-7.35,1.1,17,17,0,0,0-5.57,3,13.41,13.41,0,0,0-3.52,4.42,11.46,11.46,0,0,0-1.24,5.14,11.18,11.18,0,0,0,1.41,5.82A11.52,11.52,0,0,0,402,34.29a20.52,20.52,0,0,0,5.14,2.38,57.6,57.6,0,0,0,5.74,1.49l4.38,1a24.84,24.84,0,0,1,3.69,1.1,7.64,7.64,0,0,1,2.6,1.62,3.38,3.38,0,0,1,1,2.51,5.71,5.71,0,0,1-2.28,4.54c-1.53,1.28-3.8,1.91-6.8,1.91A14,14,0,0,1,408.08,49,16,16,0,0,1,403,44l-8.23,4.67a19.45,19.45,0,0,0,7.95,7.57A26.67,26.67,0,0,0,415,58.8a23.9,23.9,0,0,0,8.26-1.31,18.08,18.08,0,0,0,5.83-3.4,14,14,0,0,0,3.44-4.67,12.72,12.72,0,0,0,1.15-5.15A11,11,0,0,0,432.18,38.33Z"/><path class="cls-1" d="M90.35,85a6.58,6.58,0,0,1-3.17,1.83,7.25,7.25,0,0,1-1.7.21,6.25,6.25,0,0,1-2.92-.69,7.28,7.28,0,0,1-2.3-1.82,8.38,8.38,0,0,1-1.51-2.64,9.13,9.13,0,0,1-.54-3.14,9.57,9.57,0,0,1,.46-2.92A8.35,8.35,0,0,1,80,73.23a6.68,6.68,0,0,1,2.23-1.89,6.46,6.46,0,0,1,3.11-.72A8.17,8.17,0,0,1,87,70.8a6.24,6.24,0,0,1,1.65.58,5.87,5.87,0,0,1,1.46,1.12,6.38,6.38,0,0,1,1.14,1.71l2.79-1.87a8.88,8.88,0,0,0-3.3-3.56,9.77,9.77,0,0,0-5.27-1.36,10.36,10.36,0,0,0-4.6,1A10.91,10.91,0,0,0,77.46,71a11.22,11.22,0,0,0-2.14,3.62,11.94,11.94,0,0,0-.73,4,11.77,11.77,0,0,0,.8,4.24,11.9,11.9,0,0,0,2.22,3.71A11.46,11.46,0,0,0,81,89.26a9.47,9.47,0,0,0,4.35,1,11.22,11.22,0,0,0,2.72-.35,11.55,11.55,0,0,0,2.62-1,10,10,0,0,0,2.22-1.64A6.89,6.89,0,0,0,94.43,85l-3-1.68A5.63,5.63,0,0,1,90.35,85Z"/><path class="cls-1" d="M110.86,75.76a8.52,8.52,0,0,0-2.7-1.87,9.13,9.13,0,0,0-7,0,8.52,8.52,0,0,0-2.7,1.87,8.18,8.18,0,0,0-1.73,2.75,9.15,9.15,0,0,0,0,6.57,8.28,8.28,0,0,0,1.71,2.75,8.44,8.44,0,0,0,2.68,1.87,9.23,9.23,0,0,0,7,0,8.52,8.52,0,0,0,2.7-1.87,8.18,8.18,0,0,0,1.73-2.75,9.29,9.29,0,0,0,0-6.57A8.18,8.18,0,0,0,110.86,75.76ZM109.22,84a5.72,5.72,0,0,1-1,1.78A5,5,0,0,1,106.6,87a4.74,4.74,0,0,1-3.9,0,4.92,4.92,0,0,1-1.57-1.18,5.53,5.53,0,0,1-1-1.76,6.39,6.39,0,0,1-.38-2.22,6,6,0,0,1,.4-2.21,5.89,5.89,0,0,1,1.06-1.79,5,5,0,0,1,1.57-1.21,4.52,4.52,0,0,1,3.87,0,4.71,4.71,0,0,1,1.58,1.19,5.55,5.55,0,0,1,1,1.79,6.65,6.65,0,0,1,0,4.43Z"/><path class="cls-1" d="M130.09,75.21a4.09,4.09,0,0,0-1.5-1.48,4.94,4.94,0,0,0-2.45-.54,8.42,8.42,0,0,0-4,1,6.85,6.85,0,0,0-2.76,2.65V73.48h-3.17v16.6h3.49V80.21a5.57,5.57,0,0,1,.81-1.57,6.1,6.1,0,0,1,1.19-1.24,5.21,5.21,0,0,1,1.43-.81,4.27,4.27,0,0,1,1.52-.29,2.54,2.54,0,0,1,2.21,1.07,6.11,6.11,0,0,1,.74,3.41v9.3h3.49V80a14.25,14.25,0,0,0-.22-2.58A6.44,6.44,0,0,0,130.09,75.21Z"/><path class="cls-1" d="M146.2,82.16a8.19,8.19,0,0,0-2-1c-.82-.27-1.79-.55-2.91-.82-.68-.17-1.24-.33-1.7-.46a5.39,5.39,0,0,1-1.11-.46,1.65,1.65,0,0,1-.62-.61,1.81,1.81,0,0,1-.19-.85,1.92,1.92,0,0,1,.91-1.77,4.3,4.3,0,0,1,2.24-.55,7.79,7.79,0,0,1,4.92,1.84l1.49-2.09a9.1,9.1,0,0,0-2.89-1.65,10.18,10.18,0,0,0-3.49-.58,9,9,0,0,0-2.54.35,6.27,6.27,0,0,0-2.05,1,4.78,4.78,0,0,0-1.36,1.67,5,5,0,0,0-.5,2.25,3.74,3.74,0,0,0,.32,1.62,3.06,3.06,0,0,0,1,1.18,6.93,6.93,0,0,0,1.81.89c.74.25,1.63.52,2.66.79a20.09,20.09,0,0,1,3.18,1,1.59,1.59,0,0,1,1,1.52,2,2,0,0,1-.9,1.72,4.39,4.39,0,0,1-2.46.6,8.38,8.38,0,0,1-3-.56,13,13,0,0,1-2.95-1.63l-1.39,2.22a10.1,10.1,0,0,0,3.41,1.86,12.8,12.8,0,0,0,4,.65A7.79,7.79,0,0,0,146,89a4.49,4.49,0,0,0,1.8-3.76,4,4,0,0,0-.38-1.8A3.71,3.71,0,0,0,146.2,82.16Z"/><path class="cls-1" d="M165.6,86V73.48h-3.49V83.83A5.91,5.91,0,0,1,160,86.49a4.84,4.84,0,0,1-2.82.92q-3.18,0-3.18-4.47V73.48h-3.49V83.64a8.08,8.08,0,0,0,1.34,5.06,4.69,4.69,0,0,0,3.93,1.7,8.21,8.21,0,0,0,3.91-.94,7.41,7.41,0,0,0,2.88-2.74l.07,1.65a1.72,1.72,0,0,0,.7,1.35,2.57,2.57,0,0,0,1.61.52l.67,0c.23,0,.53-.07.89-.13v-3a1,1,0,0,1-.75-.29A1.43,1.43,0,0,1,165.6,86Z"/><path class="cls-1" d="M176.09,87.13a3.37,3.37,0,0,1-.81.13,1.7,1.7,0,0,1-1.33-.53,2.05,2.05,0,0,1-.48-1.44V66.91H170V86.56a3.72,3.72,0,0,0,1,2.79,3.81,3.81,0,0,0,2.81,1,9.63,9.63,0,0,0,1.87-.21,7.89,7.89,0,0,0,1.81-.56L177,86.84A8.86,8.86,0,0,1,176.09,87.13Z"/><path class="cls-1" d="M186.93,86.87a3.91,3.91,0,0,1-1.4.26,1.87,1.87,0,0,1-1.22-.4,1.73,1.73,0,0,1-.56-1.28V76.18h3.62v-2.7h-3.62V68h-3.49v5.46h-2.19v2.7h2.19V86.56a4.31,4.31,0,0,0,.32,1.73,3.09,3.09,0,0,0,.87,1.16,3.94,3.94,0,0,0,1.29.66,5.19,5.19,0,0,0,1.55.23,7.91,7.91,0,0,0,2.51-.4,16.57,16.57,0,0,0,1.84-.72l-.73-2.76C187.7,86.57,187.37,86.7,186.93,86.87Z"/><path class="cls-1" d="M204.62,75.76a8.68,8.68,0,0,0-12.41,0,8.18,8.18,0,0,0-1.73,2.75,9.29,9.29,0,0,0,0,6.57,8.14,8.14,0,0,0,4.4,4.62,9.23,9.23,0,0,0,7.05,0,8.59,8.59,0,0,0,2.69-1.87,8.18,8.18,0,0,0,1.73-2.75,9.15,9.15,0,0,0,0-6.57A8.18,8.18,0,0,0,204.62,75.76ZM203,84a5.55,5.55,0,0,1-1.05,1.78A5,5,0,0,1,200.37,87a4.74,4.74,0,0,1-3.9,0,4.81,4.81,0,0,1-1.57-1.18,5.35,5.35,0,0,1-1.05-1.76,6.56,6.56,0,0,1,0-4.43,5.92,5.92,0,0,1,1.07-1.79,4.9,4.9,0,0,1,1.57-1.21,4.36,4.36,0,0,1,1.92-.44,4.42,4.42,0,0,1,2,.43,4.67,4.67,0,0,1,1.57,1.19A5.39,5.39,0,0,1,203,79.59,6.65,6.65,0,0,1,203,84Z"/><path class="cls-1" d="M218.42,73.32a5.39,5.39,0,0,0-3,1.13,7.61,7.61,0,0,0-2.24,2.74V73.48H210v16.6h3.49V79.92a4.94,4.94,0,0,1,2.24-2.49,7.81,7.81,0,0,1,3.6-.93V73.35a1.86,1.86,0,0,0-.36,0Z"/><polygon class="cls-1" points="222 70.4 224.29 71.1 227.14 66.91 223.81 66.91 222 70.4"/><rect class="cls-1" x="221.75" y="73.48" width="3.49" height="16.6"/><path class="cls-1" d="M243,86V80a6.46,6.46,0,0,0-1.91-5,7.62,7.62,0,0,0-5.33-1.75,11.78,11.78,0,0,0-6.67,2.16l1.08,2.22a13.73,13.73,0,0,1,2.65-1.41,7.24,7.24,0,0,1,2.62-.49,4.13,4.13,0,0,1,3,1,3.85,3.85,0,0,1,1,2.87v1.15a11.19,11.19,0,0,0-2.06-.56,12.75,12.75,0,0,0-2.32-.21,9.8,9.8,0,0,0-2.84.39,6.86,6.86,0,0,0-2.22,1.08,4.92,4.92,0,0,0-1.44,1.65,4.4,4.4,0,0,0-.51,2.12,5,5,0,0,0,.43,2.07,5.06,5.06,0,0,0,1.17,1.65A5.43,5.43,0,0,0,231.51,90a6.07,6.07,0,0,0,2.24.4,8,8,0,0,0,3.5-.78A7.37,7.37,0,0,0,240,87.38l.1,1.05a2.14,2.14,0,0,0,.68,1.3,2.23,2.23,0,0,0,1.57.51l.71,0c.25,0,.54-.07.88-.13v-3C243.32,87.08,243,86.69,243,86Zm-3.5-1.07a1.61,1.61,0,0,1-.66,1.2,4.21,4.21,0,0,1-1.76,1.29,6.41,6.41,0,0,1-2.4.46,3.37,3.37,0,0,1-2.35-.84,2.72,2.72,0,0,1-.92-2.08,2.5,2.5,0,0,1,1.19-2.15,5.34,5.34,0,0,1,3.06-.81,11.35,11.35,0,0,1,3.84.73Z"/><path class="cls-1" d="M24.14,1.69a5.64,5.64,0,0,0-4-1.69H3.43A3.42,3.42,0,0,0,1,5.82L27.11,32.39a5.47,5.47,0,0,1,0,7.65L1,66.61a3.42,3.42,0,0,0,2.44,5.82H20.12a5.63,5.63,0,0,0,4-1.68L53.83,40.54a6.17,6.17,0,0,0,0-8.65Z"/></g></g></svg>