<svg xmlns="http://www.w3.org/2000/svg" viewBox="0 0 50 31.26"><defs><style>.cls-1{fill:#211915;}</style></defs><title>logo-elev50x50</title><g id="Capa_2" data-name="Capa 2"><g id="Capa_1-2" data-name="Capa 1"><path class="cls-1" d="M43.18,1.68a1.39,1.39,0,1,0,1.39,1.38A1.39,1.39,0,0,0,43.18,1.68Z"/><path class="cls-1" d="M48.25,6.55a1.38,1.38,0,1,0-1.38,1.39A1.39,1.39,0,0,0,48.25,6.55Z"/><path class="cls-1" d="M48.62,9.91A1.39,1.39,0,1,0,50,11.3,1.4,1.4,0,0,0,48.62,9.91Z"/><path class="cls-1" d="M38.6,2.77A1.4,1.4,0,0,0,40,1.38a1.39,1.39,0,0,0-2.77,0A1.4,1.4,0,0,0,38.6,2.77Z"/><path class="cls-1" d="M34.09,18.48,30.2,9.32H28.06l5.08,11.6a.93.93,0,0,0,.92.59,1,1,0,0,0,.92-.63L40.09,9.29H38Z"/><path class="cls-1" d="M5.53,9.32C2,9.32,0,11.5,0,15.45c0,4.18,1.88,6.22,5.73,6.22a6.44,6.44,0,0,0,3.89-1.18L8.47,19.3A5.47,5.47,0,0,1,5.73,20a3.65,3.65,0,0,1-3.26-1.52v0a.15.15,0,0,0,0-.07v0A5.54,5.54,0,0,1,2,17.33a8,8,0,0,1-.2-1.82,6.53,6.53,0,0,1,.53-2.83l0,0a.17.17,0,0,1,.07-.13,3.21,3.21,0,0,1,3-1.68A3,3,0,0,1,8.63,14v.56H5.3V16s.07,0,.1,0h4c1.12,0,1.18-.59,1.18-1.71V14.1C10.51,12.32,9.75,9.32,5.53,9.32Z"/><path class="cls-1" d="M27,20.49,25.79,19.3a5.42,5.42,0,0,1-2.73.73,3.63,3.63,0,0,1-3.26-1.52v0s0-.07-.07-.07v0a6.32,6.32,0,0,1-.4-1.05,11.31,11.31,0,0,1-.16-1.82,6.39,6.39,0,0,1,.53-2.83l0,0c0-.07,0-.1.07-.13a3.2,3.2,0,0,1,3-1.68A3.05,3.05,0,0,1,26,14v.56H22.63V16s.06,0,.1,0h4c1.12,0,1.19-.59,1.19-1.71V14.1c-.07-1.78-.82-4.78-5-4.78-3.56,0-5.5,2.18-5.5,6.13,0,4.18,1.88,6.22,5.73,6.22A6.47,6.47,0,0,0,27,20.49Z"/><path class="cls-1" d="M15.55,20.13a1.06,1.06,0,0,1-1.06-1V3.85c0-.06,0-.13,0-.19H12.58a.47.47,0,0,0-.06.19v15a2.68,2.68,0,0,0,1.68,2.83l1.51-1.51C15.65,20.16,15.61,20.13,15.55,20.13Z"/><path class="cls-1" d="M1.91,30.07c0-.06-.1-.1-.13-.13s-.07-.07-.1-.07a0,0,0,0,0,0,0l0,0,.07-.07.09-.1a.77.77,0,0,0,.07-.16.46.46,0,0,0,0-.2.57.57,0,0,0-.23-.49.92.92,0,0,0-.59-.2H0v2.64H1.15A.87.87,0,0,0,1.78,31,.68.68,0,0,0,2,30.47a.58.58,0,0,0,0-.23A.85.85,0,0,0,1.91,30.07Zm-1.35-1h.53a.27.27,0,0,1,.23.07.36.36,0,0,1,.06.2.27.27,0,0,1-.06.2.52.52,0,0,1-.23.06H.56Zm.86,1.55a.38.38,0,0,1-.27.1H.56v-.66h.59a.43.43,0,0,1,.27.1.33.33,0,0,1,.1.23A.31.31,0,0,1,1.42,30.63Z"/><polygon class="cls-1" points="4.12 29.71 3.52 28.59 2.93 28.59 3.85 30.27 3.85 31.19 4.41 31.19 4.41 30.27 5.34 28.59 4.74 28.59 4.12 29.71"/><polygon class="cls-1" points="9.72 30.24 8.43 28.59 7.94 28.59 7.94 31.19 8.5 31.19 8.5 29.55 9.78 31.19 10.28 31.19 10.28 28.59 9.72 28.59 9.72 30.24"/><path class="cls-1" d="M13.37,30.14a.72.72,0,0,1-.16.43.55.55,0,0,1-.43.16.49.49,0,0,1-.4-.16.69.69,0,0,1-.16-.43V28.59h-.56v1.55a1.13,1.13,0,0,0,1.15,1.12,1.24,1.24,0,0,0,.83-.33,1,1,0,0,0,.33-.79V28.59h-.6Z"/><polygon class="cls-1" points="16.73 29.74 15.84 28.59 15.35 28.59 15.35 31.19 15.91 31.19 15.91 29.45 16.73 30.5 17.59 29.45 17.59 31.19 18.15 31.19 18.15 28.59 17.66 28.59 16.73 29.74"/><polygon class="cls-1" points="20.13 30.11 21.18 30.11 21.18 29.61 20.13 29.61 20.13 29.08 21.48 29.08 21.48 28.59 19.57 28.59 19.57 31.19 21.54 31.19 21.54 30.7 20.13 30.7 20.13 30.11"/><path class="cls-1" d="M24.41,30.2a.25.25,0,0,0,.13-.06s.1-.07.13-.13a.53.53,0,0,0,.13-.23.78.78,0,0,0,0-.3.85.85,0,0,0-.27-.63.84.84,0,0,0-.62-.26H22.79v2.64h.56V30.3h.5l.49.93h.59l-.56-1Zm-.23-.52a.43.43,0,0,1-.27.1h-.59v-.7h.59a.34.34,0,0,1,.37.37A.33.33,0,0,1,24.18,29.68Z"/><path class="cls-1" d="M27.9,30.14a.73.73,0,0,1-.17.43.49.49,0,0,1-.46.16.59.59,0,0,1-.39-.16.64.64,0,0,1-.17-.43V28.59h-.56v1.55a1.08,1.08,0,0,0,.33.79,1.11,1.11,0,0,0,.83.33,1.09,1.09,0,0,0,.82-.33,1,1,0,0,0,.33-.79V28.59H27.9Z"/><path class="cls-1" d="M31.09,29.78a2,2,0,0,0-.39-.14,2.06,2.06,0,0,1-.33-.13.18.18,0,0,1-.13-.2.22.22,0,0,1,.1-.19.5.5,0,0,1,.26-.07.63.63,0,0,1,.26.07.33.33,0,0,1,.17.1s.06,0,.06.06l.33-.36,0,0-.1-.1s-.13-.07-.16-.1a1,1,0,0,0-.23-.1,1,1,0,0,0-.3,0,.89.89,0,0,0-.66.23.69.69,0,0,0-.26.52.6.6,0,0,0,.13.43.74.74,0,0,0,.33.23,2,2,0,0,0,.39.14.82.82,0,0,1,.33.13c.07,0,.13.1,0,.23a.22.22,0,0,1-.1.23.61.61,0,0,1-.33.1.57.57,0,0,1-.33-.07,1.38,1.38,0,0,1-.2-.13l-.07-.07-.32.33,0,0a.36.36,0,0,0,.13.09l.2.14.29.1a1.54,1.54,0,0,0,.37,0,1,1,0,0,0,.72-.23.81.81,0,0,0,.26-.6.59.59,0,0,0-.13-.42A1,1,0,0,0,31.09,29.78Z"/></g></g></svg>