<?xml version="1.0" encoding="utf-8"?>
<!-- Generator: Adobe Illustrator 23.0.3, SVG Export Plug-In . SVG Version: 6.00 Build 0)  -->
<svg version="1.1" id="Capa_1" xmlns="http://www.w3.org/2000/svg" xmlns:xlink="http://www.w3.org/1999/xlink" x="0px" y="0px"
	 viewBox="0 0 600 517.8" style="enable-background:new 0 0 600 517.8;" xml:space="preserve">
<style type="text/css">
	.st0{fill:#BCC4F8;}
</style>
<title>numerus-footer</title>
<g>
	<g id="Capa_1-2">
		<path class="st0" d="M338,216.6l-40.8-196c0,0-7.6-25.3-33.5-19.9L26.5,50.1c0,0-33,12.2-25.3,48.7l73,350.5
			c3.5,14,17.7,22.5,31.6,19l0,0h0.1l54.6-11.4c14.2-2.3,23.9-15.7,21.6-30v-0.1l-57.3-274.7c-2.2-13,5.8-25.6,18.6-29.2
			c13.2-4.3,27-6.6,40.8-6.5c6.4,0,12.6,2.2,17.5,6.3l121,101.8C329.2,230,339.7,224.5,338,216.6z"/>
		<path class="st0" d="M598.9,418.8l-73-350.4c-3.5-14-17.8-22.5-31.8-19l-54.7,11.4c-14.2,2.3-23.8,15.8-21.5,30v0.1l57.3,274.7
			c2.1,13-5.8,25.6-18.6,29.2c-13.2,4.3-27,6.5-40.8,6.5c-6.4-0.1-12.5-2.3-17.5-6.4L277.2,293c-6.4-5.3-16.9,0.2-15.3,8.2l40.8,196
			c0,0,7.6,25.3,33.5,19.9l237.2-49.4C573.3,467.6,606.4,455.3,598.9,418.8z"/>
	</g>
</g>
</svg>
