<svg xmlns="http://www.w3.org/2000/svg" viewBox="0 0 1459.59 1259.64"><defs><style>.cls-1{fill:none;}</style></defs><title>numerus-solo</title><g id="Capa_2" data-name="Capa 2"><g id="Capa_1-2" data-name="Capa 1"><path class="cls-1" d="M2.77,240.58l177.61,852.74a63.48,63.48,0,0,0,77.05,46.12l.22,0,132.89-27.68A63.53,63.53,0,0,0,443,1038.84l0-.22L303.79,370.32A62.78,62.78,0,0,1,349,299.45a314.27,314.27,0,0,1,99.35-15.92,67.23,67.23,0,0,1,42.7,15.34L785.44,546.59c15.47,13,40.74-.51,36.74-19.68L722.89,50.18S704.4-11.28,641.45,1.84L64.41,122S-15.72,151.8,2.77,240.58"/><path class="cls-1" d="M1456.83,1019.05,1279.26,166.5A63.66,63.66,0,0,0,1202,120.42l-133.11,27.72a63.56,63.56,0,0,0-52.36,73l0,.12,139.2,668.34a63,63,0,0,1-45.23,70.87,312.32,312.32,0,0,1-99.38,15.81,67.79,67.79,0,0,1-42.42-15.48L674.28,712.94c-15.53-13-41.28.62-37.28,19.79l99.29,476.74s18.6,61.43,81.44,48.34l577-120.19s80.55-29.75,62.06-118.57"/></g></g></svg>