<svg xmlns="http://www.w3.org/2000/svg" viewBox="0 0 236.3 49.26"><defs><style>.cls-1{fill:#211915;}</style></defs><title>numerus-consultoria50x50</title><g id="Capa_2" data-name="Capa 2"><g id="Capa_1-2" data-name="Capa 1"><path class="cls-1" d="M60.44,8.94a8.77,8.77,0,0,0-3.23-2.17A11.43,11.43,0,0,0,52.92,6a9.5,9.5,0,0,0-8,4V6.52H40v25h5V17.72a8.69,8.69,0,0,1,.51-3A6.69,6.69,0,0,1,47,12.38a6.1,6.1,0,0,1,2.13-1.46,7,7,0,0,1,2.66-.52,6,6,0,0,1,4.77,1.91,7.56,7.56,0,0,1,1.62,5.09V31.52H63.2V17a13.83,13.83,0,0,0-.72-4.6A9.72,9.72,0,0,0,60.44,8.94Z"/><path class="cls-1" d="M86.43,20.33a8.41,8.41,0,0,1-.52,3,6.84,6.84,0,0,1-1.39,2.29,5.93,5.93,0,0,1-2.1,1.46,6.71,6.71,0,0,1-2.62.5A5.88,5.88,0,0,1,75,25.71a7.63,7.63,0,0,1-1.57-5.07V6.52h-5.1V21c0,3.47.88,6.18,2.66,8.14S75.34,32,78.68,32a9.45,9.45,0,0,0,7.83-3.95v3.44h4.92v-25h-5Z"/><path class="cls-1" d="M132.73,8.88a8.16,8.16,0,0,0-3.15-2.13A12.45,12.45,0,0,0,125.14,6a9.49,9.49,0,0,0-4.86,1.21A8.91,8.91,0,0,0,117,10.4a7.47,7.47,0,0,0-3-3.23A9.66,9.66,0,0,0,109,6a9,9,0,0,0-4.17.9,8.21,8.21,0,0,0-2.92,2.48V6.52H97v25h5v-14a7.78,7.78,0,0,1,1.6-5.35A5.56,5.56,0,0,1,108,10.4,5.15,5.15,0,0,1,112.14,12a6.86,6.86,0,0,1,1.32,4.48v15h5.06V17.31a7.4,7.4,0,0,1,1.6-5.19,5.57,5.57,0,0,1,4.28-1.72,5.11,5.11,0,0,1,4.3,1.77A7.54,7.54,0,0,1,130,16.85V31.52h5.14v-15a14.56,14.56,0,0,0-.6-4.35A8.89,8.89,0,0,0,132.73,8.88Z"/><path class="cls-1" d="M161.55,9.62A12.25,12.25,0,0,0,157.49,7a13.71,13.71,0,0,0-5.11-1,12.92,12.92,0,0,0-5.14,1,13.3,13.3,0,0,0-4.13,2.78A12.85,12.85,0,0,0,140.36,14a13.39,13.39,0,0,0-1,5.16,13.64,13.64,0,0,0,.95,5.09A12,12,0,0,0,143,28.3,12.94,12.94,0,0,0,147.21,31a14.46,14.46,0,0,0,5.44,1,13.29,13.29,0,0,0,6.87-1.65A14,14,0,0,0,164.09,26L160,23.57a8.93,8.93,0,0,1-2.89,2.91,8.25,8.25,0,0,1-4.43,1.11A8.66,8.66,0,0,1,147,25.76a7.93,7.93,0,0,1-2.78-4.88h21V18.79a13.24,13.24,0,0,0-1-5.12A12.5,12.5,0,0,0,161.55,9.62Zm-17.18,7a8.48,8.48,0,0,1,2.87-4.47,7.86,7.86,0,0,1,5.14-1.74h0A8.17,8.17,0,0,1,157.54,12a7.26,7.26,0,0,1,2.61,4.58Z"/><path class="cls-1" d="M181.24,6.14A7.49,7.49,0,0,0,177,7.33a6.46,6.46,0,0,0-2.59,3.54V6.52h-4.91v25h5V17.42c0-2.25.53-3.86,1.57-4.81a6.07,6.07,0,0,1,4.26-1.44,5.6,5.6,0,0,1,3.15.75l2-4.82a6.41,6.41,0,0,0-1.83-.72A10.71,10.71,0,0,0,181.24,6.14Z"/><path class="cls-1" d="M206.54,20.33a8.31,8.31,0,0,1-.5,3,7,7,0,0,1-1.39,2.3,5.93,5.93,0,0,1-2.1,1.46,6.89,6.89,0,0,1-2.62.49,5.88,5.88,0,0,1-4.77-1.87,7.63,7.63,0,0,1-1.57-5.07V6.53h-5.1V21q0,5.19,2.67,8.13c1.77,2,4.33,2.94,7.66,2.94a9.42,9.42,0,0,0,7.82-3.95v3.45h4.93v-25h-5Z"/><path class="cls-1" d="M235.49,20.89a6.75,6.75,0,0,0-2.09-2.13,11.06,11.06,0,0,0-2.85-1.33c-1.05-.32-2.1-.59-3.14-.8a32.77,32.77,0,0,1-4.47-1.21,2.11,2.11,0,0,1-1.6-2.08,2.87,2.87,0,0,1,1.11-2.27,5.26,5.26,0,0,1,3.43-.93,6.86,6.86,0,0,1,3.42.79,6.73,6.73,0,0,1,2.32,2.18l4.31-2.46a11.25,11.25,0,0,0-4.08-3.45,13.24,13.24,0,0,0-6-1.22,12.38,12.38,0,0,0-4,.6,9.3,9.3,0,0,0-3,1.64,7.24,7.24,0,0,0-1.92,2.41,6.35,6.35,0,0,0-.68,2.8A6,6,0,0,0,217,16.6a6.37,6.37,0,0,0,2,2.09,11.65,11.65,0,0,0,2.8,1.29,28.78,28.78,0,0,0,3.13.81l2.38.53a14.24,14.24,0,0,1,2,.61,4,4,0,0,1,1.41.88,1.81,1.81,0,0,1,.53,1.36,3.11,3.11,0,0,1-1.24,2.48,5.64,5.64,0,0,1-3.71,1,7.6,7.6,0,0,1-4-1A8.76,8.76,0,0,1,219.58,24l-4.48,2.55a10.61,10.61,0,0,0,4.33,4.12A14.6,14.6,0,0,0,226.12,32a12.75,12.75,0,0,0,4.5-.72,9.59,9.59,0,0,0,3.18-1.85,7.69,7.69,0,0,0,1.87-2.54,7,7,0,0,0,.63-2.81A6,6,0,0,0,235.49,20.89Z"/><path class="cls-1" d="M49.23,46.33a3.41,3.41,0,0,1-.81.63,3.62,3.62,0,0,1-.92.37,4.27,4.27,0,0,1-.92.11A3.39,3.39,0,0,1,45,47.07a4,4,0,0,1-1.26-1,4.69,4.69,0,0,1-.82-1.43,4.88,4.88,0,0,1-.29-1.71,5.17,5.17,0,0,1,.25-1.59,4.37,4.37,0,0,1,.74-1.44,3.79,3.79,0,0,1,1.22-1,3.51,3.51,0,0,1,1.69-.39,4.07,4.07,0,0,1,.9.1,3.12,3.12,0,0,1,.9.32,3.05,3.05,0,0,1,.8.6,3.57,3.57,0,0,1,.62.94l1.52-1a4.76,4.76,0,0,0-1.8-1.93,5.27,5.27,0,0,0-2.87-.75,5.6,5.6,0,0,0-2.5.54,5.92,5.92,0,0,0-1.88,1.41,6.24,6.24,0,0,0-1.17,2,6.57,6.57,0,0,0-.4,2.21,6.73,6.73,0,0,0,1.65,4.33,6.24,6.24,0,0,0,1.85,1.44,5.05,5.05,0,0,0,2.37.56A6.46,6.46,0,0,0,48,49a6,6,0,0,0,1.42-.56,5.11,5.11,0,0,0,1.21-.89,3.53,3.53,0,0,0,.83-1.22l-1.6-.91A3.32,3.32,0,0,1,49.23,46.33Z"/><path class="cls-1" d="M60.41,41.28a4.76,4.76,0,0,0-1.48-1,5,5,0,0,0-3.82,0,4.83,4.83,0,0,0-1.47,1,4.48,4.48,0,0,0-.94,1.5,5,5,0,0,0,0,3.58,4.62,4.62,0,0,0,.93,1.5,4.76,4.76,0,0,0,6.78,0,4.65,4.65,0,0,0,.94-1.5,5,5,0,0,0,0-3.58A4.65,4.65,0,0,0,60.41,41.28Zm-.9,4.5a2.86,2.86,0,0,1-.57,1,2.47,2.47,0,0,1-1.92.88A2.52,2.52,0,0,1,56,47.4a2.84,2.84,0,0,1-.86-.64,3.06,3.06,0,0,1-.57-1,3.42,3.42,0,0,1-.2-1.21,3.46,3.46,0,0,1,.21-1.21,3.33,3.33,0,0,1,.58-1,2.64,2.64,0,0,1,.86-.66,2.33,2.33,0,0,1,1-.24,2.47,2.47,0,0,1,1.92.88,2.81,2.81,0,0,1,.57,1,3.56,3.56,0,0,1,0,2.41Z"/><path class="cls-1" d="M70.89,41a2.2,2.2,0,0,0-.83-.8,2.62,2.62,0,0,0-1.33-.3,4.59,4.59,0,0,0-2.18.53,3.66,3.66,0,0,0-1.5,1.44V40H63.32v9h1.9V43.7a3.27,3.27,0,0,1,.44-.85,3.51,3.51,0,0,1,.65-.68,3,3,0,0,1,.78-.44,2.43,2.43,0,0,1,.83-.15,1.36,1.36,0,0,1,1.2.58A3.28,3.28,0,0,1,69.53,44v5.06h1.9V43.57a7.88,7.88,0,0,0-.12-1.41A3.51,3.51,0,0,0,70.89,41Z"/><path class="cls-1" d="M79.66,44.77a4.18,4.18,0,0,0-1.1-.53c-.44-.15-1-.3-1.58-.45-.37-.09-.68-.18-.92-.25a2.74,2.74,0,0,1-.61-.25.9.9,0,0,1-.34-.33,1,1,0,0,1-.1-.47,1.06,1.06,0,0,1,.49-1,2.32,2.32,0,0,1,1.22-.3,4.27,4.27,0,0,1,2.68,1l.82-1.14a5,5,0,0,0-1.58-.9,5.87,5.87,0,0,0-1.9-.31,5,5,0,0,0-1.38.19,3.57,3.57,0,0,0-1.12.56,2.61,2.61,0,0,0-.74.91,2.71,2.71,0,0,0-.27,1.23,2.09,2.09,0,0,0,.17.88,1.69,1.69,0,0,0,.56.64,3.58,3.58,0,0,0,1,.49c.4.14.89.28,1.45.43a11.51,11.51,0,0,1,1.73.57.87.87,0,0,1,.56.83,1,1,0,0,1-.5.93,2.35,2.35,0,0,1-1.34.33,4.55,4.55,0,0,1-1.62-.3,7,7,0,0,1-1.61-.89l-.76,1.21a5.38,5.38,0,0,0,1.86,1,6.81,6.81,0,0,0,2.17.36,4.18,4.18,0,0,0,2.65-.76,2.45,2.45,0,0,0,1-2,2.07,2.07,0,0,0-.21-1A2,2,0,0,0,79.66,44.77Z"/><path class="cls-1" d="M90.23,46.84V40h-1.9v5.64a3.21,3.21,0,0,1-1.13,1.45,2.66,2.66,0,0,1-1.53.5c-1.16,0-1.73-.81-1.73-2.44V40H82v5.53a4.44,4.44,0,0,0,.73,2.76,2.55,2.55,0,0,0,2.14.93A4.47,4.47,0,0,0,87,48.75a4.06,4.06,0,0,0,1.58-1.5l0,.9a.93.93,0,0,0,.38.73,1.39,1.39,0,0,0,.88.29l.37,0a4.25,4.25,0,0,0,.48-.07V47.46a.56.56,0,0,1-.41-.16A.78.78,0,0,1,90.23,46.84Z"/><path class="cls-1" d="M96,47.48a2,2,0,0,1-.44.06.94.94,0,0,1-.73-.28,1.14,1.14,0,0,1-.26-.79v-10h-1.9v10.7a2.07,2.07,0,0,0,.54,1.53,2.14,2.14,0,0,0,1.53.53,5.74,5.74,0,0,0,1-.11,5.29,5.29,0,0,0,1-.3l-.28-1.49Z"/><path class="cls-1" d="M101.85,47.34a2.14,2.14,0,0,1-.76.14,1,1,0,0,1-.66-.22,1,1,0,0,1-.31-.7V41.51h2V40h-2v-3h-1.9v3H97v1.47h1.19v5.65a2.27,2.27,0,0,0,.18,1,1.58,1.58,0,0,0,.47.63,2.11,2.11,0,0,0,.7.36,3,3,0,0,0,.85.12,4.3,4.3,0,0,0,1.36-.21c.43-.15.77-.28,1-.39l-.4-1.51Z"/><path class="cls-1" d="M111.5,41.28a4.83,4.83,0,0,0-1.47-1,5,5,0,0,0-3.83,0,4.83,4.83,0,0,0-1.47,1,4.48,4.48,0,0,0-.94,1.5,5,5,0,0,0,0,3.58,4.62,4.62,0,0,0,.93,1.5,4.83,4.83,0,0,0,1.47,1,5,5,0,0,0,3.84,0,4.83,4.83,0,0,0,1.47-1,4.48,4.48,0,0,0,.94-1.5,5,5,0,0,0,0-3.58A4.48,4.48,0,0,0,111.5,41.28Zm-.89,4.5a3.05,3.05,0,0,1-.58,1,2.57,2.57,0,0,1-.85.65,2.58,2.58,0,0,1-2.13,0,2.68,2.68,0,0,1-.85-.64,2.9,2.9,0,0,1-.58-1,3.66,3.66,0,0,1-.2-1.21,3.46,3.46,0,0,1,.21-1.21,3.33,3.33,0,0,1,.58-1,2.64,2.64,0,0,1,.86-.66,2.37,2.37,0,0,1,1-.24,2.54,2.54,0,0,1,1.07.23,2.57,2.57,0,0,1,.85.65,3,3,0,0,1,.58,1,3.73,3.73,0,0,1,0,2.41Z"/><path class="cls-1" d="M119,40a3,3,0,0,0-1.62.62,4.21,4.21,0,0,0-1.22,1.49V40h-1.76v9h1.9V43.55a2.74,2.74,0,0,1,1.22-1.36,4.2,4.2,0,0,1,2-.51V40l-.2,0Z"/><polygon class="cls-1" points="120.97 38.36 122.21 38.74 123.77 36.46 121.95 36.46 120.97 38.36"/><rect class="cls-1" x="120.83" y="40.04" width="1.9" height="9.05"/><path class="cls-1" d="M132.42,46.84V43.57a3.55,3.55,0,0,0-1-2.74,4.16,4.16,0,0,0-2.91-.95,6.35,6.35,0,0,0-3.63,1.18l.59,1.21a7,7,0,0,1,1.44-.77,3.94,3.94,0,0,1,1.43-.27,2.26,2.26,0,0,1,1.64.56,2.12,2.12,0,0,1,.57,1.57V44a5.7,5.7,0,0,0-1.12-.3,6.71,6.71,0,0,0-1.26-.11,5.39,5.39,0,0,0-1.55.2,3.9,3.9,0,0,0-1.21.59,2.79,2.79,0,0,0-.79.9,2.49,2.49,0,0,0-.28,1.16,2.78,2.78,0,0,0,.88,2,2.74,2.74,0,0,0,1,.6,3.42,3.42,0,0,0,1.21.22,4.46,4.46,0,0,0,1.92-.43,4,4,0,0,0,1.49-1.22l0,.57a1.16,1.16,0,0,0,.38.71,1.18,1.18,0,0,0,.85.28l.39,0a3.7,3.7,0,0,0,.48-.07V47.46C132.58,47.45,132.42,47.24,132.42,46.84Zm-1.91-.59a.86.86,0,0,1-.36.65,2.18,2.18,0,0,1-1,.7,3.37,3.37,0,0,1-1.31.26,1.86,1.86,0,0,1-1.28-.46,1.51,1.51,0,0,1-.5-1.14,1.35,1.35,0,0,1,.65-1.16,2.86,2.86,0,0,1,1.67-.44,5.51,5.51,0,0,1,1.06.1,6.2,6.2,0,0,1,1,.29Z"/><path class="cls-1" d="M13.16.92A3.08,3.08,0,0,0,11,0H1.87A1.86,1.86,0,0,0,.54,3.17L14.77,17.65a3,3,0,0,1,0,4.17L.54,36.3a1.86,1.86,0,0,0,1.33,3.17H11a3.08,3.08,0,0,0,2.2-.92L29.33,22.09a3.35,3.35,0,0,0,0-4.71Z"/></g></g></svg>