<svg xmlns="http://www.w3.org/2000/svg" viewBox="0 0 50 43.15"><defs><style>.cls-1{fill:#211915;}</style></defs><title>numerus-inclined50x50</title><g id="Capa_2" data-name="Capa 2"><g id="Capa_1-2" data-name="Capa 1"><path class="cls-1" d="M28.16,18.05,24.76,1.72A2.38,2.38,0,0,0,22,.06L2.21,4.18A3.49,3.49,0,0,0,.09,8.24L6.18,37.45A2.16,2.16,0,0,0,8.82,39h0l4.55-1a2.18,2.18,0,0,0,1.8-2.49h0L10.41,12.69A2.14,2.14,0,0,1,12,10.26a10.57,10.57,0,0,1,3.4-.55,2.3,2.3,0,0,1,1.46.53l10.09,8.48A.76.76,0,0,0,28.16,18.05Z"/><path class="cls-1" d="M49.91,34.91,43.82,5.7a2.17,2.17,0,0,0-2.64-1.57l-4.56.94a2.19,2.19,0,0,0-1.8,2.5h0l4.77,22.89A2.15,2.15,0,0,1,38,32.9a10.65,10.65,0,0,1-3.4.54,2.3,2.3,0,0,1-1.46-.53L23.1,24.42a.79.79,0,0,0-1.28.68l3.4,16.33A2.39,2.39,0,0,0,28,43.09L47.78,39A3.5,3.5,0,0,0,49.91,34.91Z"/></g></g></svg>