<svg xmlns="http://www.w3.org/2000/svg" viewBox="0 0 351.99 64.53"><defs><style>.cls-1{fill:#fff;}</style></defs><title>numerus-consultoria</title><g id="Capa_2" data-name="Capa 2"><g id="Capa_1-2" data-name="Capa 1"><path class="cls-1" d="M91.31,7.77h6.53v4.61a12.6,12.6,0,0,1,10.58-5.3,15.33,15.33,0,0,1,5.69,1,11.75,11.75,0,0,1,4.3,2.89,12.8,12.8,0,0,1,2.71,4.61,18.43,18.43,0,0,1,.95,6.12V41h-6.7V22.22a10.11,10.11,0,0,0-2.15-6.77,7.89,7.89,0,0,0-6.34-2.52,9.09,9.09,0,0,0-3.53.68,8.13,8.13,0,0,0-2.83,1.94,8.84,8.84,0,0,0-1.88,3.07,11.73,11.73,0,0,0-.68,4V41H91.31Z"/><path class="cls-1" d="M142.63,41.66q-6.65,0-10.17-3.9T128.93,27V7.77h6.77V26.53a10.17,10.17,0,0,0,2.09,6.73c1.39,1.66,3.51,2.49,6.34,2.49a9,9,0,0,0,3.47-.66,8,8,0,0,0,2.8-1.94,9.11,9.11,0,0,0,1.84-3,11.15,11.15,0,0,0,.68-4V7.78h6.64V41H153V36.42a12.53,12.53,0,0,1-10.4,5.24"/><path class="cls-1" d="M166.94,7.77h6.58v3.81a10.78,10.78,0,0,1,3.87-3.29,12,12,0,0,1,5.54-1.2,12.9,12.9,0,0,1,6.62,1.54,10,10,0,0,1,4,4.3,11.9,11.9,0,0,1,4.36-4.24,12.68,12.68,0,0,1,6.46-1.61,16.27,16.27,0,0,1,5.9,1,10.65,10.65,0,0,1,4.18,2.82,11.79,11.79,0,0,1,2.46,4.43,19.78,19.78,0,0,1,.8,5.78V41h-6.83V21.48a10,10,0,0,0-1.78-6.21q-1.78-2.34-5.71-2.34a7.43,7.43,0,0,0-5.69,2.27c-1.41,1.52-2.11,3.82-2.12,6.9V41h-6.72V21.05a9.12,9.12,0,0,0-1.75-6q-1.76-2.14-5.55-2.17a7.39,7.39,0,0,0-5.81,2.37c-1.42,1.58-2.13,3.94-2.13,7.1V41h-6.65Z"/><path class="cls-1" d="M240.89,41.66a18.84,18.84,0,0,1-7.23-1.32,17.12,17.12,0,0,1-5.56-3.64,15.86,15.86,0,0,1-3.6-5.44,18,18,0,0,1-1.26-6.77,17.56,17.56,0,0,1,1.32-6.86,17,17,0,0,1,3.66-5.5,17.37,17.37,0,0,1,5.47-3.69,17.07,17.07,0,0,1,6.83-1.36,18.19,18.19,0,0,1,6.8,1.26,16.27,16.27,0,0,1,5.38,3.55,16.45,16.45,0,0,1,3.56,5.38,17.62,17.62,0,0,1,1.3,6.8v2.77H229.63a10.56,10.56,0,0,0,3.69,6.49,11.46,11.46,0,0,0,7.57,2.42,10.92,10.92,0,0,0,5.87-1.47,11.68,11.68,0,0,0,3.85-3.87l5.47,3.26a18.52,18.52,0,0,1-6.08,5.8,17.61,17.61,0,0,1-9.11,2.19m-.37-28.72a10.47,10.47,0,0,0-6.83,2.31,11.26,11.26,0,0,0-3.81,5.94h21a9.67,9.67,0,0,0-3.47-6.09,10.8,10.8,0,0,0-6.86-2.17Z"/><path class="cls-1" d="M263.3,7.77h6.52v5.77a8.69,8.69,0,0,1,3.45-4.7,10,10,0,0,1,5.59-1.58,14.11,14.11,0,0,1,3.17.33,8.31,8.31,0,0,1,2.43.95l-2.59,6.4a7.44,7.44,0,0,0-4.18-1,8,8,0,0,0-5.65,1.9c-1.4,1.27-2.09,3.41-2.1,6.4V41H263.3Z"/><path class="cls-1" d="M302.21,41.66q-6.65,0-10.18-3.9T288.49,27V7.78h6.77V26.54a10.11,10.11,0,0,0,2.09,6.73q2.08,2.49,6.33,2.49a9,9,0,0,0,3.48-.66,8,8,0,0,0,2.8-1.94,9.38,9.38,0,0,0,1.84-3,11.13,11.13,0,0,0,.66-4V7.79h6.68V41H312.6V36.42a12.51,12.51,0,0,1-10.39,5.24"/><path class="cls-1" d="M338.47,41.66a19.34,19.34,0,0,1-8.89-1.84,14.12,14.12,0,0,1-5.75-5.48L329.78,31a11.56,11.56,0,0,0,3.69,3.64,10.15,10.15,0,0,0,5.3,1.29,7.56,7.56,0,0,0,4.92-1.38,4.15,4.15,0,0,0,1.65-3.29,2.42,2.42,0,0,0-.71-1.82,5.52,5.52,0,0,0-1.87-1.17,19.2,19.2,0,0,0-2.68-.8l-3.16-.7a42.33,42.33,0,0,1-4.16-1.08A15.14,15.14,0,0,1,329,23.93a8.32,8.32,0,0,1-2.67-2.77,8,8,0,0,1-1-4.21,8.26,8.26,0,0,1,.9-3.72A9.56,9.56,0,0,1,328.8,10a12.59,12.59,0,0,1,4-2.19,16.58,16.58,0,0,1,5.32-.79,17.56,17.56,0,0,1,7.94,1.63,14.7,14.7,0,0,1,5.41,4.58l-5.71,3.26a9,9,0,0,0-3.08-2.89,9.09,9.09,0,0,0-4.55-1.05,7,7,0,0,0-4.55,1.23,3.8,3.8,0,0,0-1.48,3,2.81,2.81,0,0,0,2.12,2.76,42,42,0,0,0,5.94,1.6c1.39.29,2.78.65,4.18,1.08A14.6,14.6,0,0,1,348.14,24a9.12,9.12,0,0,1,2.77,2.83,8,8,0,0,1,1.08,4.3,9.3,9.3,0,0,1-.83,3.72,10,10,0,0,1-2.49,3.38,12.92,12.92,0,0,1-4.22,2.47,17.37,17.37,0,0,1-6,.94"/><path class="cls-1" d="M92.11,56a8.64,8.64,0,0,1,.53-2.93,8.18,8.18,0,0,1,1.55-2.62,7.85,7.85,0,0,1,2.5-1.87A7.58,7.58,0,0,1,100,47.9a7.06,7.06,0,0,1,3.81,1,6.41,6.41,0,0,1,2.39,2.57l-2,1.36a4.55,4.55,0,0,0-.83-1.24,3.89,3.89,0,0,0-1.06-.81,4.33,4.33,0,0,0-1.19-.42,5.58,5.58,0,0,0-1.2-.13,4.67,4.67,0,0,0-2.25.52,5.08,5.08,0,0,0-1.62,1.36,6.29,6.29,0,0,0-1,1.91,6.79,6.79,0,0,0-.34,2.11,6.66,6.66,0,0,0,.39,2.28,6.42,6.42,0,0,0,1.09,1.91,5.49,5.49,0,0,0,1.67,1.32,4.55,4.55,0,0,0,2.11.49,5.3,5.3,0,0,0,1.23-.15,4.69,4.69,0,0,0,1.22-.48,4.77,4.77,0,0,0,1.08-.84,4.28,4.28,0,0,0,.82-1.22l2.13,1.22a5.11,5.11,0,0,1-1.1,1.62,7,7,0,0,1-1.61,1.18,8.53,8.53,0,0,1-1.89.74,8,8,0,0,1-2,.25,6.77,6.77,0,0,1-3.15-.73,8.1,8.1,0,0,1-2.45-1.92,8.83,8.83,0,0,1-1.61-2.69A8.4,8.4,0,0,1,92.11,56Z"/><path class="cls-1" d="M113.87,64.53a6.35,6.35,0,0,1-2.56-.5,5.9,5.9,0,0,1-1.94-1.36,5.82,5.82,0,0,1-1.24-2,6.63,6.63,0,0,1,0-4.75,5.79,5.79,0,0,1,1.25-2,6,6,0,0,1,2-1.35,6.58,6.58,0,0,1,5.08,0,6,6,0,0,1,2,1.35,5.94,5.94,0,0,1,1.25,2,6.63,6.63,0,0,1,0,4.75,5.85,5.85,0,0,1-1.25,2,6,6,0,0,1-2,1.36A6.33,6.33,0,0,1,113.87,64.53Zm-3.58-6.2a4.65,4.65,0,0,0,.27,1.61,3.94,3.94,0,0,0,.76,1.27,3.41,3.41,0,0,0,1.14.85,3.36,3.36,0,0,0,2.82,0,3.31,3.31,0,0,0,1.14-.86,4.3,4.3,0,0,0,.76-1.28,4.91,4.91,0,0,0,0-3.21,4.28,4.28,0,0,0-.76-1.3,3.44,3.44,0,0,0-1.14-.86,3.27,3.27,0,0,0-2.8,0,3.64,3.64,0,0,0-1.14.88,4.25,4.25,0,0,0-.77,1.29A4.45,4.45,0,0,0,110.29,58.33Z"/><path class="cls-1" d="M133,64.3h-2.53V57.57a4.41,4.41,0,0,0-.54-2.47,1.83,1.83,0,0,0-1.6-.77,3.06,3.06,0,0,0-1.1.21,3.67,3.67,0,0,0-1,.59,4.59,4.59,0,0,0-.87.89,4.38,4.38,0,0,0-.58,1.14V64.3h-2.53v-12h2.3V54.7a4.88,4.88,0,0,1,2-1.92,6.08,6.08,0,0,1,2.89-.7,3.57,3.57,0,0,1,1.77.39,2.94,2.94,0,0,1,1.09,1.07,4.45,4.45,0,0,1,.56,1.56A10.24,10.24,0,0,1,133,57Z"/><path class="cls-1" d="M140.24,64.53a9,9,0,0,1-2.88-.47,7.25,7.25,0,0,1-2.47-1.34l1-1.61A9,9,0,0,0,138,62.29a6,6,0,0,0,2.16.4,3.19,3.19,0,0,0,1.78-.43,1.42,1.42,0,0,0,.65-1.24,1.14,1.14,0,0,0-.73-1.1,14.16,14.16,0,0,0-2.3-.76c-.75-.2-1.4-.39-1.93-.58a4.84,4.84,0,0,1-1.31-.64,2.36,2.36,0,0,1-.74-.85,2.74,2.74,0,0,1-.23-1.17,3.48,3.48,0,0,1,1.35-2.84,4.39,4.39,0,0,1,1.48-.75,6.76,6.76,0,0,1,1.84-.25,7.65,7.65,0,0,1,2.52.41,6.56,6.56,0,0,1,2.09,1.2l-1.07,1.52A5.65,5.65,0,0,0,140,53.87a3,3,0,0,0-1.62.41,1.38,1.38,0,0,0-.65,1.27,1.29,1.29,0,0,0,.14.62,1.19,1.19,0,0,0,.45.44,3.65,3.65,0,0,0,.8.33q.49.15,1.23.33,1.22.3,2.1.6a5.68,5.68,0,0,1,1.46.7,2.6,2.6,0,0,1,.85.94,2.9,2.9,0,0,1,.28,1.3,3.25,3.25,0,0,1-1.3,2.72A5.63,5.63,0,0,1,140.24,64.53Z"/><path class="cls-1" d="M150.9,64.53a3.42,3.42,0,0,1-2.85-1.23,5.88,5.88,0,0,1-1-3.66V52.29h2.53v6.84c0,2.16.76,3.24,2.29,3.24a3.59,3.59,0,0,0,2.05-.66,4.32,4.32,0,0,0,1.49-1.93V52.29H158v9a1,1,0,0,0,.15.62.71.71,0,0,0,.54.2V64.3l-.65.1-.48,0a1.85,1.85,0,0,1-1.17-.38,1.28,1.28,0,0,1-.51-1l0-1.19a5.53,5.53,0,0,1-2.09,2A6,6,0,0,1,150.9,64.53Z"/><path class="cls-1" d="M161.15,47.53h2.52v13.3a1.5,1.5,0,0,0,.35,1.05,1.24,1.24,0,0,0,1,.38,2.29,2.29,0,0,0,.59-.09,5.81,5.81,0,0,0,.63-.21l.37,2a6.36,6.36,0,0,1-1.31.4,7.13,7.13,0,0,1-1.36.15,2.75,2.75,0,0,1-2-.72,2.69,2.69,0,0,1-.72-2Z"/><path class="cls-1" d="M174.66,63.68a11.54,11.54,0,0,1-1.34.52,5.63,5.63,0,0,1-1.81.29,4.11,4.11,0,0,1-1.13-.16,2.76,2.76,0,0,1-.93-.49,2.11,2.11,0,0,1-.63-.83,3.19,3.19,0,0,1-.23-1.26V54.24H167v-2h1.58V48.34h2.53v3.95h2.62v2h-2.62V61a1.23,1.23,0,0,0,.4.93,1.37,1.37,0,0,0,.88.29,2.72,2.72,0,0,0,1-.19,7.6,7.6,0,0,0,.71-.3Z"/><path class="cls-1" d="M181.73,64.53a6.35,6.35,0,0,1-2.56-.5,5.9,5.9,0,0,1-1.94-1.36,5.82,5.82,0,0,1-1.24-2,6.63,6.63,0,0,1,0-4.75,5.94,5.94,0,0,1,1.25-2,6,6,0,0,1,1.95-1.35,6.58,6.58,0,0,1,5.08,0,6,6,0,0,1,1.95,1.35,5.79,5.79,0,0,1,1.25,2,6.63,6.63,0,0,1,0,4.75,5.7,5.7,0,0,1-1.25,2A6,6,0,0,1,184.27,64,6.33,6.33,0,0,1,181.73,64.53Zm-3.58-6.2a4.65,4.65,0,0,0,.27,1.61,4.13,4.13,0,0,0,.76,1.27,3.41,3.41,0,0,0,1.14.85,3.36,3.36,0,0,0,2.82,0,3.31,3.31,0,0,0,1.14-.86,4.3,4.3,0,0,0,.76-1.28,4.91,4.91,0,0,0,0-3.21,4.28,4.28,0,0,0-.76-1.3,3.44,3.44,0,0,0-1.14-.86,3.27,3.27,0,0,0-2.8,0,3.64,3.64,0,0,0-1.14.88,4.31,4.31,0,0,0-1,2.89Z"/><path class="cls-1" d="M196.85,54.47a5.68,5.68,0,0,0-2.61.68,3.55,3.55,0,0,0-1.62,1.8V64.3h-2.53v-12h2.35V55a5.5,5.5,0,0,1,1.61-2,4,4,0,0,1,2.15-.82h.38a1.12,1.12,0,0,1,.27,0Z"/><path class="cls-1" d="M198.62,64.3v-12h2.52v12Zm1.83-13.74-1.65-.5,1.31-2.53h2.41Z"/><path class="cls-1" d="M207.3,64.53a4.52,4.52,0,0,1-1.62-.28,4,4,0,0,1-1.29-.8,3.64,3.64,0,0,1-.85-1.19,3.71,3.71,0,0,1-.31-1.49,3.27,3.27,0,0,1,.37-1.54,3.62,3.62,0,0,1,1.05-1.2,4.87,4.87,0,0,1,1.6-.78,7.38,7.38,0,0,1,2.06-.28,9.37,9.37,0,0,1,1.68.15,8.24,8.24,0,0,1,1.49.41V56.7a2.77,2.77,0,0,0-.76-2.08,3,3,0,0,0-2.18-.75,5.25,5.25,0,0,0-1.9.36,9.93,9.93,0,0,0-1.91,1L204,53.64a8.5,8.5,0,0,1,4.82-1.56,5.52,5.52,0,0,1,3.86,1.26A4.7,4.7,0,0,1,214,57v4.35c0,.53.22.81.66.82V64.3c-.24,0-.45.08-.63.1l-.52,0a1.6,1.6,0,0,1-1.13-.37,1.55,1.55,0,0,1-.5-.94l-.06-.76a5.38,5.38,0,0,1-2,1.62A5.79,5.79,0,0,1,207.3,64.53Zm.69-1.86a4.55,4.55,0,0,0,1.73-.33,3,3,0,0,0,1.28-.93,1.18,1.18,0,0,0,.48-.87V59a7.26,7.26,0,0,0-1.37-.39,7.66,7.66,0,0,0-1.41-.14,3.9,3.9,0,0,0-2.22.59,1.81,1.81,0,0,0-.86,1.55,1.92,1.92,0,0,0,.67,1.5A2.4,2.4,0,0,0,208,62.67Z"/><path class="cls-1" d="M20.24,39.14a1.36,1.36,0,0,1-1.36-1.36V11a1.35,1.35,0,0,0-2.23-1L1.6,22.85A4.6,4.6,0,0,0,0,26.33V53.92a1.36,1.36,0,0,0,1.36,1.36H46.88a4.57,4.57,0,0,0,3-1.1L64.67,41.52a1.35,1.35,0,0,0-.88-2.38Z"/><path class="cls-1" d="M27,1.1,12.23,13.76a1.35,1.35,0,0,0,.89,2.38H56.66A1.36,1.36,0,0,1,58,17.5V44.26a1.36,1.36,0,0,0,2.24,1l15-12.86A4.6,4.6,0,0,0,76.9,29V1.36A1.36,1.36,0,0,0,75.54,0H30A4.57,4.57,0,0,0,27,1.1Z"/></g></g></svg>