<svg xmlns="http://www.w3.org/2000/svg" viewBox="0 0 1024 1024"><defs><style>.cls-1{fill:#fff;}</style></defs><title>perforado</title><g id="Capa_2" data-name="Capa 2"><g id="Capa_1-2" data-name="Capa 1"><path class="cls-1" d="M0,0V1024H1024V0ZM314.9,269.47a219.87,219.87,0,0,0-69.58,11.15,44,44,0,0,0-31.68,49.63l97.49,468.06,0,.16a44.48,44.48,0,0,1-36.76,51L181.32,868.9l-.15,0a44.47,44.47,0,0,1-54-32.31L2.81,239.39c-12.95-62.18,43.17-83,43.17-83L450.13,72.18c44.09-9.18,57,33.85,57,33.85l69.55,333.9c2.79,13.42-14.9,22.91-25.73,13.78L344.81,280.21A47.15,47.15,0,0,0,314.9,269.47ZM977.73,867.65,573.59,951.82c-44,9.17-57-33.85-57-33.85L447,584.08c-2.8-13.43,15.23-23,26.11-13.86L679.33,743.78A47.41,47.41,0,0,0,709,754.62a218.36,218.36,0,0,0,69.6-11.07,44.11,44.11,0,0,0,31.68-49.64L712.83,225.83l0-.08a44.52,44.52,0,0,1,36.67-51.1l93.23-19.42a44.58,44.58,0,0,1,54.12,32.27l124.36,597.11C1034.15,846.81,977.73,867.65,977.73,867.65Z"/></g></g></svg>