<?xml version="1.0" encoding="utf-8"?>
<!-- Generator: Adobe Illustrator 27.0.0, SVG Export Plug-In . SVG Version: 6.00 Build 0)  -->
<svg version="1.1" id="layer" xmlns="http://www.w3.org/2000/svg" xmlns:xlink="http://www.w3.org/1999/xlink" x="0px" y="0px"
	 viewBox="0 0 613 150" style="enable-background:new 0 0 613 150;" xml:space="preserve">
<style type="text/css">
	.st0{fill:#03363D;}
</style>
<path class="st0" d="M477.5,101.2c5.4,0.1,10.6-1.9,14.4-5.6l7.2,7.8c-4.7,4.9-11.3,8.5-21.5,8.5c-17.5,0-28.7-11.6-28.7-27.2
	c-0.3-14.8,11.5-27,26.3-27.3c0.3,0,0.5,0,0.8,0c17.3,0,27.2,13.2,26.3,31.5h-41C462.9,96.3,468.2,101.2,477.5,101.2 M490,80
	c-1.1-7.1-5.3-12.3-13.8-12.3c-7.9,0-13.4,4.5-14.8,12.3H490z M208.5,100.6l31.5-32h-30.8V58.5h45.4v10.3l-31.5,32h32v10.1h-46.6
	L208.5,100.6z M290.5,101.2c5.4,0.1,10.6-1.9,14.4-5.6l7.2,7.8c-4.7,4.9-11.3,8.5-21.5,8.5c-17.5,0-28.7-11.6-28.7-27.2
	c-0.3-14.8,11.5-27,26.3-27.3c0.3,0,0.5,0,0.8,0c17.3,0,27.2,13.2,26.3,31.5h-41C275.8,96.3,281.2,101.2,290.5,101.2 M303,80
	c-1.1-7.1-5.3-12.3-13.8-12.3c-7.9,0-13.4,4.5-14.8,12.3H303z M383.4,84.5c0-16.7,12.5-27.2,26.3-27.2c6.7-0.1,13.1,2.8,17.5,7.9
	V34.3h11.1v76.5h-11.1v-7.3c-4.3,5.3-10.8,8.3-17.6,8.3C396.2,111.8,383.4,101.2,383.4,84.5 M427.8,84.5
	c-0.4-14.7-18.2-21.7-28.5-11.1s-2.8,28.2,11.9,28.2C420.7,101.5,427.8,93.9,427.8,84.5 M509.6,99.7l10.1-5.2
	c2.7,4.9,7.9,7.8,13.5,7.6c6.3,0,9.6-3.2,9.6-6.9c0-4.2-6.1-5.1-12.7-6.5c-8.9-1.8-18.2-4.8-18.2-15.6c0-8.3,7.9-15.9,20.3-15.8
	c9.7,0,17,3.9,21.2,10.1l-9.3,5.1c-2.6-3.9-7.1-6.1-11.8-6c-6,0-9.1,2.9-9.1,6.3c0,3.8,4.8,4.8,12.4,6.5c8.6,1.8,18.4,4.7,18.4,15.6
	c0,7.3-6.3,17-21.2,16.9C521.7,111.8,514,107.4,509.6,99.7 M584.1,87.6l-8.8,9.6v13.6h-11.1V34.3h11.1v50l23.7-26h13.6L592,80.8
	l21,29.9h-12.6L584.1,87.6z M349.7,57.4c-13.2,0-24.3,8.6-24.3,22.8v30.6h11.4V81.5c0-8.6,4.9-13.7,13.4-13.7
	c8.4,0,12.6,5.1,12.6,13.7v29.2h11.3V80.1c0-14.2-11.1-22.8-24.3-22.8 M81.6,41.5v98.5H0L81.6,41.5z M81.6,6.1
	c0,22.5-18.3,40.8-40.8,40.8C18.3,46.9,0,28.6,0,6.1H81.6z M95,139.9c0-22.5,18.3-40.8,40.8-40.8c22.5,0,40.8,18.3,40.8,40.8H95z
	 M95,104.6V6.1h81.6L95,104.6z"/>
</svg>
